<?xml version="1.0" encoding="UTF-8"?>
<!DOCTYPE svg PUBLIC "-//W3C//DTD SVG 1.1//EN" "http://www.w3.org/Graphics/SVG/1.1/DTD/svg11.dtd">
<!-- Creator: CorelDRAW 2017 -->
<svg xmlns="http://www.w3.org/2000/svg" xml:space="preserve" width="53.0553mm" height="53.0554mm" version="1.1" style="shape-rendering:geometricPrecision; text-rendering:geometricPrecision; image-rendering:optimizeQuality; fill-rule:evenodd; clip-rule:evenodd"
viewBox="0 0 5306 5306"
 xmlns:xlink="http://www.w3.org/1999/xlink">
 <defs>
  <style type="text/css">
   <![CDATA[
    .fil0 {fill:#3BFFFF;fill-rule:nonzero}
   ]]>
  </style>
 </defs>
 <g id="Слой_x0020_1">
  <metadata id="CorelCorpID_0Corel-Layer"/>
  <path class="fil0" d="M2653 5306c-731,0 -1395,-298 -1875,-778 -480,-480 -778,-1144 -778,-1875 0,-731 298,-1395 778,-1875 480,-480 1144,-778 1875,-778 731,0 1395,298 1875,778 480,480 778,1144 778,1875 0,731 -298,1395 -778,1875 -480,480 -1144,778 -1875,778zm1497 -3617c-2,-1 -1468,-699 -1468,-699 -19,-9 -41,-9 -60,0 0,0 -1465,698 -1467,699 -21,13 -34,35 -34,60l0 1670c0,25 13,48 35,60l1461 835c0,0 0,0 0,0l0 0 0 0 0 0c11,6 23,9 34,9 12,0 24,-3 35,-9l1461 -835c22,-12 35,-35 35,-60l0 -1670c0,-24 -13,-47 -34,-60zm-2332 2007l-557 -318 0 -680 557 292 0 706zm-471 -1945l592 -282 551 263 -619 295 -525 -275zm1236 1483l-626 -328 0 -678 626 328 0 678zm765 542l-626 358 0 -743 626 -328 0 713zm-534 -2044l551 -263 592 282 -525 275 -619 -295zm1230 810l-557 292 0 -678 557 -292 0 678zm-3193 1913c462,462 1099,747 1801,747 703,0 1340,-286 1801,-747 462,-462 747,-1099 747,-1801 0,-703 -286,-1340 -747,-1801 -462,-462 -1099,-747 -1801,-747 -703,0 -1340,286 -1801,747 -462,462 -747,1099 -747,1801 0,703 286,1340 747,1801z"/>
 </g>
</svg>
