<?xml version="1.0" encoding="UTF-8"?>
<!DOCTYPE svg PUBLIC "-//W3C//DTD SVG 1.1//EN" "http://www.w3.org/Graphics/SVG/1.1/DTD/svg11.dtd">
<!-- Creator: CorelDRAW 2017 -->
<svg xmlns="http://www.w3.org/2000/svg" xml:space="preserve" width="53.0553mm" height="53.0554mm" version="1.1" style="shape-rendering:geometricPrecision; text-rendering:geometricPrecision; image-rendering:optimizeQuality; fill-rule:evenodd; clip-rule:evenodd"
viewBox="0 0 5306 5306"
 xmlns:xlink="http://www.w3.org/1999/xlink">
 <defs>
  <style type="text/css">
   <![CDATA[
    .fil0 {fill:#3BFFFF;fill-rule:nonzero}
   ]]>
  </style>
 </defs>
 <g id="Слой_x0020_1">
  <metadata id="CorelCorpID_0Corel-Layer"/>
  <path class="fil0" d="M2653 5306c-731,0 -1395,-298 -1875,-778 -480,-480 -778,-1144 -778,-1875 0,-731 298,-1395 778,-1875 480,-480 1144,-778 1875,-778 731,0 1395,298 1875,778 480,480 778,1144 778,1875 0,731 -298,1395 -778,1875 -480,480 -1144,778 -1875,778zm-58 -2067l182 900 -20 22c-21,23 -52,37 -83,37 -32,0 -62,-13 -83,-37l-840 -922 100 0c78,0 145,-56 160,-132l91 -468 104 472c16,75 84,129 160,129l230 0zm-1248 -473c30,50 65,98 106,145l263 0 217 -1110c15,-76 81,-131 158,-132 80,1 145,54 162,129l244 1114 232 0c77,0 145,55 160,131l64 314 38 -288c11,-81 80,-142 162,-142l732 0 7 -7c1,-2 2,-3 4,-4 39,-47 72,-94 101,-141l76 -152c41,-103 61,-209 61,-319 0,-457 -345,-835 -788,-889l-59 -5c-16,-1 -33,-1 -49,-1 -209,0 -405,70 -565,200 -159,-130 -356,-200 -564,-200 -15,0 -31,0 -46,1l-59 5c-445,52 -791,431 -791,889 0,108 20,212 59,313l75 150zm1900 858l339 -371 -290 0 -49 371zm817 -583l-908 0c-23,0 -43,17 -46,40l-130 981 -202 -999c-4,-22 -23,-37 -46,-37l-326 0 -265 -1206c-5,-22 -23,-37 -46,-37 -22,0 -41,16 -45,38l-235 1205 -598 0c-26,0 -47,21 -47,47 0,26 21,47 47,47l636 0c22,0 41,-16 46,-38l199 -1021 224 1022c5,21 24,37 46,37l325 0 249 1235c5,22 24,38 46,38l2 0c23,-1 42,-18 45,-41l162 -1217 867 0c26,0 47,-21 47,-47 0,-26 -21,-47 -47,-47zm-3213 1413c462,462 1099,747 1801,747 703,0 1340,-286 1801,-747 462,-462 747,-1099 747,-1801 0,-703 -286,-1340 -747,-1801 -462,-462 -1099,-747 -1801,-747 -703,0 -1340,286 -1801,747 -462,462 -747,1099 -747,1801 0,703 286,1340 747,1801z"/>
 </g>
</svg>
