<?xml version="1.0" encoding="UTF-8"?>
<!DOCTYPE svg PUBLIC "-//W3C//DTD SVG 1.1//EN" "http://www.w3.org/Graphics/SVG/1.1/DTD/svg11.dtd">
<!-- Creator: CorelDRAW 2017 -->
<svg xmlns="http://www.w3.org/2000/svg" xml:space="preserve" width="53.0553mm" height="53.0554mm" version="1.1" style="shape-rendering:geometricPrecision; text-rendering:geometricPrecision; image-rendering:optimizeQuality; fill-rule:evenodd; clip-rule:evenodd"
viewBox="0 0 5306 5306"
 xmlns:xlink="http://www.w3.org/1999/xlink">
 <defs>
  <style type="text/css">
   <![CDATA[
    .fil0 {fill:#3BFFFF;fill-rule:nonzero}
   ]]>
  </style>
 </defs>
 <g id="Слой_x0020_1">
  <metadata id="CorelCorpID_0Corel-Layer"/>
  <path class="fil0" d="M2653 5306c-731,0 -1395,-298 -1875,-778 -480,-480 -778,-1144 -778,-1875 0,-731 298,-1395 778,-1875 480,-480 1144,-778 1875,-778 731,0 1395,298 1875,778 480,480 778,1144 778,1875 0,731 -298,1395 -778,1875 -480,480 -1144,778 -1875,778zm1233 -3582l-607 50c-74,-253 -270,-446 -509,-495 -90,-67 -194,-112 -308,-127l0 -6 -78 0 0 4c-385,40 -687,362 -698,754l-498 41 308 1927 1781 288 424 -211 416 -1943 -231 -283zm-693 57l-123 10c-22,-139 -76,-265 -154,-368 128,75 228,203 278,358zm-457 -423c128,103 220,259 249,440l-894 73c58,-284 301,-501 598,-519 16,1 32,3 47,6zm-315 -126c64,5 126,20 183,46 -306,53 -548,295 -600,601l-234 19c14,-356 297,-644 651,-666zm882 2818l-34 -9 574 -2255 34 9 -574 2255zm-2452 405c462,462 1099,747 1801,747 703,0 1340,-286 1801,-747 462,-462 747,-1099 747,-1801 0,-703 -286,-1340 -747,-1801 -462,-462 -1099,-747 -1801,-747 -703,0 -1340,286 -1801,747 -462,462 -747,1099 -747,1801 0,703 286,1340 747,1801z"/>
 </g>
</svg>
