<?xml version="1.0" encoding="UTF-8"?>
<!DOCTYPE svg PUBLIC "-//W3C//DTD SVG 1.1//EN" "http://www.w3.org/Graphics/SVG/1.1/DTD/svg11.dtd">
<!-- Creator: CorelDRAW 2017 -->
<svg xmlns="http://www.w3.org/2000/svg" xml:space="preserve" width="53.0553mm" height="53.0554mm" version="1.1" style="shape-rendering:geometricPrecision; text-rendering:geometricPrecision; image-rendering:optimizeQuality; fill-rule:evenodd; clip-rule:evenodd"
viewBox="0 0 5306 5306"
 xmlns:xlink="http://www.w3.org/1999/xlink">
 <defs>
  <style type="text/css">
   <![CDATA[
    .fil1 {fill:#3BFFFF}
    .fil0 {fill:#3BFFFF;fill-rule:nonzero}
   ]]>
  </style>
 </defs>
 <g id="Слой_x0020_1">
  <metadata id="CorelCorpID_0Corel-Layer"/>
  <g id="_2170987604176">
   <path class="fil0" d="M2653 5306c-731,0 -1395,-298 -1875,-778 -480,-480 -778,-1144 -778,-1875 0,-731 298,-1395 778,-1875 480,-480 1144,-778 1875,-778 731,0 1395,298 1875,778 480,480 778,1144 778,1875 0,731 -298,1395 -778,1875 -480,480 -1144,778 -1875,778zm-1801 -851c462,462 1099,747 1801,747 703,0 1340,-286 1801,-747 462,-462 747,-1099 747,-1801 0,-703 -286,-1340 -747,-1801 -462,-462 -1099,-747 -1801,-747 -703,0 -1340,286 -1801,747 -462,462 -747,1099 -747,1801 0,703 286,1340 747,1801z"/>
   <path class="fil1" d="M3482 3096c-163,0 -312,56 -431,150l-903 -533c2,-20 3,-40 3,-60 0,-20 -1,-40 -3,-60l903 -533c119,94 268,150 431,150 385,0 697,-312 697,-697 0,-385 -312,-697 -697,-697 -385,0 -697,312 -697,697 0,30 3,59 6,89l-915 499c-117,-90 -264,-144 -423,-144 -385,0 -697,312 -697,697 0,385 312,697 697,697 159,0 305,-54 423,-144l915 499c-4,29 -6,58 -6,89 0,385 312,697 697,697 385,0 697,-312 697,-697 0,-385 -312,-697 -697,-697zm-1657 -489c14,-18 25,-32 33,-43 58,-77 83,-126 75,-148l-3 -5c-2,-3 -7,-6 -16,-8 -8,-3 -19,-3 -32,-1l-145 1c-3,0 -7,0 -10,0 -3,1 -6,1 -7,2 -1,1 -2,1 -2,1l-2 2c-2,1 -4,3 -6,5 -2,2 -4,5 -5,9 -16,41 -34,78 -54,113 -12,21 -24,39 -34,54 -10,15 -19,26 -26,34 -7,7 -13,13 -19,17 -6,4 -10,6 -13,6 -3,-1 -6,-1 -9,-2 -5,-3 -8,-7 -11,-12 -3,-5 -5,-12 -6,-20 -1,-8 -2,-15 -2,-20 0,-6 0,-14 0,-24 0,-10 1,-17 1,-21 0,-13 0,-27 1,-41 1,-15 1,-27 1,-35 0,-9 0,-18 0,-28 0,-10 -1,-17 -2,-23 -1,-5 -3,-11 -5,-16 -2,-5 -6,-9 -10,-12 -5,-3 -10,-5 -17,-7 -18,-4 -40,-6 -68,-7l-8 0 -10 0c-52,0 -86,4 -102,12 -7,4 -13,9 -19,15 -6,7 -7,11 -3,12 20,3 34,10 43,22l3 6c2,4 5,12 7,23 2,11 4,23 5,37 2,24 2,45 0,63 -2,17 -3,31 -5,41 -2,10 -4,18 -7,24 -3,6 -5,10 -6,11 -1,1 -2,2 -3,3 -4,2 -9,2 -14,2 -5,0 -10,-2 -17,-7 -7,-5 -14,-11 -21,-19 -7,-8 -15,-20 -24,-34 -9,-15 -18,-32 -28,-52l-8 -15c-5,-9 -12,-23 -21,-41 -9,-18 -16,-35 -23,-52 -3,-7 -7,-12 -12,-16l-3 -1c-2,-1 -4,-3 -8,-4 -4,-2 -8,-3 -12,-3l-138 1c-14,0 -24,3 -29,10l-2 3c-1,2 -1,4 -2,8l0 0 0 0c0,4 1,8 3,13 20,47 42,93 66,137 24,44 44,79 62,106 17,27 35,52 53,76 18,24 30,39 36,46 6,7 10,12 14,15l13 12c8,8 20,18 35,29 16,11 33,22 52,33 19,11 41,20 66,27 25,7 50,10 73,8l58 0c12,-1 21,-5 27,-11l2 -3c1,-2 3,-5 4,-9 1,-4 2,-9 2,-14 0,-14 1,-27 3,-39 3,-12 5,-20 9,-26 3,-6 7,-11 11,-15 4,-4 7,-6 9,-7 2,-1 3,-1 4,-2 8,-3 17,0 28,8 11,8 21,18 31,29 10,12 21,25 34,39 13,14 25,25 35,32l10 6c7,4 15,8 26,11 11,3 20,4 28,3l129 -2c13,0 23,-2 30,-6 7,-4 11,-9 13,-14 1,-5 1,-11 0,-17 -1,-6 -2,-11 -4,-13 -1,-3 -2,-5 -3,-6 -17,-30 -49,-67 -96,-111l-2 -2 0 0c-21,-20 -35,-34 -41,-41 -10,-13 -13,-27 -7,-41 4,-10 19,-32 45,-66zm1740 752c-104,0 -190,87 -190,190l0 136 -109 0 0 163 109 0 0 380 163 0 0 -380 163 0 0 -163 -163 0 0 -109c0,-33 22,-54 54,-54l109 0 0 -163 -136 0zm82 -2060c0,27 22,49 49,49 27,0 49,-22 49,-49 0,-27 -22,-49 -49,-49 -27,0 -49,22 -49,49zm42 212c0,-113 -92,-206 -206,-206 -113,0 -206,92 -206,206 0,113 92,206 206,206 113,0 206,-92 206,-206zm-87 0c0,65 -53,119 -119,119 -65,0 -119,-53 -119,-119 0,-65 53,-119 119,-119 65,0 119,53 119,119zm194 -198l0 395c0,63 -51,114 -114,114l-395 0c-63,0 -114,-51 -114,-114l0 -395c0,-63 51,-114 114,-114l395 0c63,0 114,51 114,114zm-711 0l0 395c0,111 90,201 201,201l395 0c111,0 201,-90 201,-201l0 -395c0,-111 -90,-201 -201,-201l-395 0c-111,0 -201,90 -201,201z"/>
  </g>
 </g>
</svg>
