<?xml version="1.0" encoding="UTF-8"?>
<!DOCTYPE svg PUBLIC "-//W3C//DTD SVG 1.1//EN" "http://www.w3.org/Graphics/SVG/1.1/DTD/svg11.dtd">
<!-- Creator: CorelDRAW 2017 -->
<svg xmlns="http://www.w3.org/2000/svg" xml:space="preserve" width="52.1936mm" height="52.1937mm" version="1.1" style="shape-rendering:geometricPrecision; text-rendering:geometricPrecision; image-rendering:optimizeQuality; fill-rule:evenodd; clip-rule:evenodd"
viewBox="0 0 5219 5219"
 xmlns:xlink="http://www.w3.org/1999/xlink">
 <defs>
  <style type="text/css">
   <![CDATA[
    .fil0 {fill:#3BFFFF;fill-rule:nonzero}
   ]]>
  </style>
 </defs>
 <g id="Слой_x0020_1">
  <metadata id="CorelCorpID_0Corel-Layer"/>
  <path class="fil0" d="M2610 5219c-720,0 -1372,-293 -1844,-765 -473,-473 -765,-1125 -765,-1844 0,-719 293,-1372 765,-1844 473,-473 1125,-765 1844,-765 720,0 1372,293 1844,765 473,473 765,1125 765,1844 0,720 -293,1372 -765,1844 -473,473 -1125,765 -1844,765zm1640 -1343c-9,-31 -33,-68 -97,-68 -28,0 -56,7 -82,13 -10,2 -20,5 -28,6l-3 1c-39,7 -77,11 -109,11 -42,0 -61,-6 -65,-9 -10,-15 -51,-106 -129,-372 -45,-153 -80,-287 -93,-350 139,-80 268,-207 332,-328 86,-164 100,-332 40,-475 -27,-64 -109,-198 -200,-326 -45,-64 -87,-119 -121,-157 -43,-49 -77,-80 -114,-80 -6,0 -13,1 -19,3l-775 225c-44,13 -60,60 -72,137 -8,50 -14,118 -18,197 -8,157 -6,314 5,382 51,312 441,499 750,481 22,62 62,194 104,343 74,268 88,367 88,384 -6,11 -48,51 -148,92l-3 1c-8,3 -17,6 -27,10 -55,19 -148,52 -121,143 10,35 59,35 77,35 176,0 753,-173 818,-259 11,-15 11,-28 8,-37zm-409 -1645c3,6 2,11 1,13 -1,1 -7,11 -7,11 -118,195 -236,221 -326,221 -71,0 -146,-18 -224,-37 -87,-21 -177,-43 -272,-43 -69,0 -132,11 -193,35 -3,1 -8,1 -8,-8 -2,-155 12,-281 28,-339 1,-2 0,-5 8,-8l717 -208c11,-3 13,1 15,2 53,52 177,222 261,361zm-1337 -126c-12,-77 -27,-124 -72,-137l-775 -225c-6,-2 -13,-3 -19,-3 -37,0 -71,31 -114,80 -33,38 -75,93 -121,157 -91,128 -173,262 -200,326 -61,143 -46,312 40,475 64,121 193,248 332,328 -13,63 -48,197 -93,350 -78,266 -118,357 -128,372 -5,3 -24,9 -65,9 -32,0 -70,-4 -109,-11l-3 -1c-8,-1 -18,-4 -28,-6 -25,-6 -54,-13 -82,-13 -64,0 -88,37 -97,68 -1,3 -1,6 -1,9l0 2c0,7 3,16 10,26 65,86 642,259 818,259 18,0 67,0 77,-35 26,-91 -66,-123 -121,-143 -10,-3 -19,-7 -27,-10l-3 -1c-100,-41 -143,-81 -148,-92 -1,-18 14,-117 88,-385 41,-149 82,-281 104,-343 310,19 699,-168 750,-481 11,-68 13,-225 5,-382 -4,-79 -10,-147 -18,-197zm-96 301c-2,21 -13,22 -20,20 -57,-21 -117,-31 -182,-31 -95,0 -185,22 -272,43 -79,19 -153,37 -224,37 -90,0 -208,-25 -326,-221l-4 -7c-3,-6 0,-20 8,-33 84,-138 198,-290 251,-344 5,-5 13,-4 17,-3 170,50 644,187 716,208 6,2 8,9 8,9 17,53 30,161 28,322zm660 -1359c-52,0 -85,58 -92,58 -7,0 -38,-58 -92,-58 -53,0 -96,43 -98,96 -2,30 8,52 21,73 27,41 145,139 170,139 25,0 142,-98 169,-139 13,-21 23,-43 21,-73 -3,-53 -46,-96 -98,-96zm-741 0c-52,0 -85,58 -92,58 -7,0 -38,-58 -92,-58 -53,0 -96,43 -98,96 -2,30 8,52 21,73 27,41 145,139 170,139 25,0 142,-98 169,-139 14,-21 23,-43 21,-73 -3,-53 -46,-96 -98,-96zm419 392c-72,0 -117,80 -128,80 -9,0 -53,-80 -128,-80 -73,0 -133,60 -137,133 -2,41 11,73 30,101 37,57 201,193 235,193 35,0 197,-136 235,-193 19,-29 32,-60 30,-101 -4,-73 -64,-133 -137,-133zm-1906 2942c454,454 1080,735 1771,735 691,0 1317,-281 1771,-735 454,-454 735,-1080 735,-1771 0,-691 -281,-1317 -735,-1771 -454,-454 -1080,-735 -1771,-735 -691,0 -1317,281 -1771,735 -454,454 -735,1080 -735,1771 0,691 281,1317 735,1771z"/>
 </g>
</svg>
