<?xml version="1.0" encoding="UTF-8"?>
<!DOCTYPE svg PUBLIC "-//W3C//DTD SVG 1.1//EN" "http://www.w3.org/Graphics/SVG/1.1/DTD/svg11.dtd">
<!-- Creator: CorelDRAW 2017 -->
<svg xmlns="http://www.w3.org/2000/svg" xml:space="preserve" width="11.5056mm" height="11.5056mm" version="1.1" style="shape-rendering:geometricPrecision; text-rendering:geometricPrecision; image-rendering:optimizeQuality; fill-rule:evenodd; clip-rule:evenodd"
viewBox="0 0 1151 1151"
 xmlns:xlink="http://www.w3.org/1999/xlink">
 <defs>
  <style type="text/css">
   <![CDATA[
    .fil0 {fill:#3BFFFF}
   ]]>
  </style>
 </defs>
 <g id="Слой_x0020_1">
  <metadata id="CorelCorpID_0Corel-Layer"/>
  <path class="fil0" d="M575 0c318,0 575,258 575,575 0,318 -258,575 -575,575 -318,0 -575,-258 -575,-575 0,-318 258,-575 575,-575zm-345 456l0 476 148 0 0 -476 -148 0zm-12 -151c0,47 38,86 86,86 47,0 86,-38 86,-86 0,-47 -38,-86 -86,-86 -48,0 -86,38 -86,86zm253 151l0 476 148 0 0 -235c0,-62 12,-122 89,-122 76,0 77,71 77,126l0 231 148 0 0 -261c0,-128 -28,-227 -177,-227 -72,0 -120,39 -140,77l-2 0 0 -65 -142 0z"/>
 </g>
</svg>
