<?xml version="1.0" encoding="UTF-8"?>
<!DOCTYPE svg PUBLIC "-//W3C//DTD SVG 1.1//EN" "http://www.w3.org/Graphics/SVG/1.1/DTD/svg11.dtd">
<!-- Creator: CorelDRAW 2017 -->
<svg xmlns="http://www.w3.org/2000/svg" xml:space="preserve" width="11.5056mm" height="11.5041mm" version="1.1" style="shape-rendering:geometricPrecision; text-rendering:geometricPrecision; image-rendering:optimizeQuality; fill-rule:evenodd; clip-rule:evenodd"
viewBox="0 0 1151 1150"
 xmlns:xlink="http://www.w3.org/1999/xlink">
 <defs>
  <style type="text/css">
   <![CDATA[
    .fil0 {fill:white}
   ]]>
  </style>
 </defs>
 <g id="Слой_x0020_1">
  <metadata id="CorelCorpID_0Corel-Layer"/>
  <path class="fil0" d="M575 0c318,0 575,258 575,575 0,262 -176,484 -416,553l0 -441 154 0 0 -160 -154 0 0 -131c0,-39 52,-70 91,-70l79 0 0 -145 -171 0c-76,0 -170,70 -170,174l0 173 -153 0 0 160 153 0 0 463c-312,-6 -563,-261 -563,-575 0,-318 258,-575 575,-575z"/>
 </g>
</svg>
