<?xml version="1.0" encoding="UTF-8"?>
<!DOCTYPE svg PUBLIC "-//W3C//DTD SVG 1.1//EN" "http://www.w3.org/Graphics/SVG/1.1/DTD/svg11.dtd">
<!-- Creator: CorelDRAW 2017 -->
<svg xmlns="http://www.w3.org/2000/svg" xml:space="preserve" width="41.5143mm" height="22.3572mm" version="1.1" style="shape-rendering:geometricPrecision; text-rendering:geometricPrecision; image-rendering:optimizeQuality; fill-rule:evenodd; clip-rule:evenodd"
viewBox="0 0 4151 2236"
 xmlns:xlink="http://www.w3.org/1999/xlink">
 <defs>
  <style type="text/css">
   <![CDATA[
    .fil1 {fill:#5382A1}
    .fil0 {fill:#E76F00}
   ]]>
  </style>
 </defs>
 <g id="Слой_x0020_1">
  <metadata id="CorelCorpID_0Corel-Layer"/>
  <g id="_2134937924368">
   <path class="fil0" d="M2708 1647c-1,15 -37,36 -49,44 -55,35 -134,58 -185,6 -50,-50 -36,-142 18,-175 27,-16 62,-24 99,-27 29,-2 89,-8 117,-5l1 157zm-371 -479l21 85c36,-9 58,-22 112,-32 42,-8 89,-13 134,-7 46,6 71,23 87,57 8,17 12,37 14,58l-1 68c-3,2 -137,10 -156,12 -134,17 -268,90 -247,257 13,104 69,152 175,165 58,7 96,0 144,-20 20,-9 39,-18 56,-29 23,-14 43,-35 47,-37l14 72 108 0c2,-22 0,-290 0,-320 0,-54 0,-107 0,-160 0,-52 -4,-93 -28,-131 -73,-117 -233,-111 -365,-80 -30,7 -100,26 -118,42z"/>
   <path class="fil0" d="M4011 1656c-9,5 -19,15 -30,23 -31,22 -69,42 -109,47 -119,15 -147,-108 -109,-172 41,-68 171,-64 248,-64l0 166zm-370 -488c1,13 17,75 22,84 20,-4 64,-23 113,-32 70,-14 186,-26 220,50 14,31 24,117 14,126 -6,4 -65,5 -78,6 -78,5 -142,11 -209,46 -71,37 -131,103 -116,219 13,105 70,151 175,164 77,10 138,-10 200,-49 27,-17 38,-32 47,-38l14 72 109 0 0 -480c0,-54 -4,-92 -29,-132 -71,-116 -235,-109 -364,-78 -30,7 -99,26 -118,42z"/>
   <path class="fil0" d="M3151 1819l174 0c6,-1 18,-29 21,-36 7,-14 12,-26 18,-39 12,-25 22,-54 33,-81 42,-112 76,-235 105,-352 7,-29 41,-168 41,-188l-130 0c-28,0 -17,-4 -24,54 -8,60 -20,120 -35,176 -11,41 -84,304 -99,321l-37 -141c-14,-47 -27,-92 -41,-138l-64 -204c-7,-23 -14,-48 -23,-69l-154 0c1,14 101,327 108,349 18,60 36,114 54,173 18,58 38,117 54,175z"/>
   <path class="fil0" d="M2047 1107l0 603c0,112 -37,240 -149,277 7,14 55,63 68,83 38,-7 94,-42 115,-62 32,-30 52,-54 76,-103 48,-97 40,-200 40,-316 0,-238 1,-476 0,-714 -18,-3 -120,-1 -150,-1l0 234z"/>
   <path class="fil0" d="M819 1211l-47 -69c-16,-23 -31,-48 -45,-73 -26,-46 -58,-105 -73,-163 -27,-106 39,-172 97,-242 9,-11 19,-21 28,-31 61,-64 144,-140 209,-203 66,-64 105,-136 113,-240 4,-54 -6,-171 -45,-192 11,82 14,137 -19,219 -38,95 -101,152 -173,208 -59,46 -156,129 -207,177 -33,31 -89,87 -112,142 -34,81 0,134 36,190 17,27 35,50 54,74 22,28 41,48 58,70 18,23 41,45 61,67 12,14 52,56 64,64z"/>
   <path class="fil1" d="M1520 1912c23,37 0,53 -31,68 -141,66 -616,78 -765,80 -151,2 -304,-4 -450,-29 -24,-4 -128,-21 -133,-48 -3,-17 15,-31 25,-36 34,-21 95,-35 138,-43 12,-2 42,-5 51,-9 -71,-10 -295,27 -345,97 -31,44 21,64 55,76 129,42 399,51 541,53 212,3 723,1 911,-128 11,-7 32,-23 35,-38 3,-19 -20,-37 -31,-42z"/>
   <path class="fil0" d="M907 1298c23,-8 89,-62 107,-81 24,-24 64,-70 67,-122 3,-47 -30,-109 -50,-139 -63,-96 -114,-151 -28,-257 29,-35 60,-63 96,-93 43,-36 114,-85 165,-117l58 -37c-31,4 -112,37 -144,48 -43,16 -93,41 -130,63 -129,75 -256,191 -204,353 35,109 137,175 130,257 -4,50 -53,100 -67,125z"/>
   <path class="fil1" d="M1176 1832c-40,-15 -69,-32 -105,-54 -21,-12 -13,-11 -39,-5 -107,26 -282,27 -394,23 -29,-1 -111,-3 -127,-31 -10,-17 4,-30 9,-40 -74,15 -149,76 -46,127 116,57 359,58 485,36 36,-6 200,-44 217,-58z"/>
   <path class="fil1" d="M1211 1591c-31,-8 -58,-27 -77,-43 -16,-14 -11,-11 -46,-5 -126,21 -503,58 -611,13 -14,-6 -30,-14 -31,-31 -1,-20 15,-30 22,-41 -87,11 -170,94 -54,134 131,45 413,46 552,29 46,-6 208,-37 243,-57z"/>
   <path class="fil1" d="M1298 1307c-17,1 -39,6 -55,8 -19,3 -38,6 -57,8 -116,16 -244,29 -360,36 -91,5 -432,17 -483,-31 -4,-21 21,-35 36,-43 59,-31 121,-42 178,-60 -80,-7 -280,50 -352,95 -78,49 52,68 101,75 286,40 553,18 836,-22 46,-7 56,-4 87,-24 22,-14 50,-28 69,-44z"/>
   <path class="fil1" d="M310 2168c80,34 254,54 344,61 127,10 266,8 393,-1 164,-12 359,-30 503,-104 34,-18 96,-59 102,-100 -10,5 -19,14 -29,21 -255,175 -837,159 -1137,137l-176 -15z"/>
   <path class="fil1" d="M1355 1238c62,-19 133,-7 173,29 43,38 43,110 12,166 -41,75 -128,141 -199,186 -12,8 -24,14 -35,21 46,-5 156,-54 197,-80 53,-33 113,-81 137,-143 35,-88 -16,-156 -70,-187 -31,-18 -69,-29 -113,-27 -34,1 -88,15 -103,35z"/>
  </g>
 </g>
</svg>
