<?xml version="1.0" encoding="UTF-8"?>
<!DOCTYPE svg PUBLIC "-//W3C//DTD SVG 1.1//EN" "http://www.w3.org/Graphics/SVG/1.1/DTD/svg11.dtd">
<!-- Creator: CorelDRAW 2017 -->
<svg xmlns="http://www.w3.org/2000/svg" xml:space="preserve" width="63.4524mm" height="15.4387mm" version="1.1" style="shape-rendering:geometricPrecision; text-rendering:geometricPrecision; image-rendering:optimizeQuality; fill-rule:evenodd; clip-rule:evenodd"
viewBox="0 0 6345 1544"
 xmlns:xlink="http://www.w3.org/1999/xlink">
 <defs>
  <style type="text/css">
   <![CDATA[
    .fil0 {fill:#636363;fill-rule:nonzero}
    .fil1 {fill:url(#id0);fill-rule:nonzero}
    .fil2 {fill:url(#id1);fill-rule:nonzero}
   ]]>
  </style>
  <linearGradient id="id0" gradientUnits="userSpaceOnUse" x1="-517" y1="-329" x2="940" y2="936">
   <stop offset="0" style="stop-opacity:1; stop-color:#599FD4"/>
   <stop offset="1" style="stop-opacity:1; stop-color:#2F6998"/>
  </linearGradient>
  <linearGradient id="id1" gradientUnits="userSpaceOnUse" x1="1216" y1="1387" x2="674" y2="612">
   <stop offset="0" style="stop-opacity:1; stop-color:#FFD43B"/>
   <stop offset="1" style="stop-opacity:1; stop-color:#FFE873"/>
  </linearGradient>
 </defs>
 <g id="Слой_x0020_1">
  <metadata id="CorelCorpID_0Corel-Layer"/>
  <g id="_2171182954736">
   <path class="fil0" d="M2392 784c0,-195 -56,-295 -166,-300 -44,-2 -87,5 -129,21 -33,12 -56,24 -68,36l0 465c71,45 134,65 189,62 116,-8 175,-102 175,-284zm137 8l0 0c0,99 -23,181 -70,246 -52,74 -124,112 -216,114 -69,2 -141,-20 -215,-65l0 422 -119 -42 0 -937c20,-24 45,-45 75,-62 71,-41 157,-63 258,-64l2 2c93,-1 164,37 214,114 47,71 70,161 70,272z"/>
   <path class="fil0" d="M3257 1069c0,133 -13,224 -40,276 -27,51 -77,92 -153,122 -61,24 -127,37 -197,39l-20 -75c72,-10 122,-20 152,-29 58,-20 97,-49 119,-90 17,-33 26,-95 26,-187l0 -31c-81,37 -167,55 -256,55 -59,0 -110,-18 -155,-55 -50,-40 -75,-91 -75,-153l0 -496 119 -41 0 499c0,53 17,94 52,123 34,29 79,43 134,42 55,-1 113,-22 175,-64l0 -582 119 0 0 647z"/>
   <path class="fil0" d="M3722 1146c-14,1 -27,2 -39,2 -67,0 -120,-16 -157,-48 -37,-32 -56,-77 -56,-133l0 -469 -82 0 0 -75 82 0 0 -199 119 -42 0 241 134 0 0 75 -134 0 0 466c0,45 12,76 36,95 21,15 53,24 98,26l0 62z"/>
   <path class="fil0" d="M4443 1136l-119 0 0 -460c0,-47 -11,-87 -33,-121 -25,-38 -60,-57 -105,-57 -55,0 -123,29 -205,86l0 551 -119 0 0 -1098 119 -38 0 500c76,-55 159,-83 249,-83 63,0 114,21 153,64 39,42 59,95 59,158l0 497z"/>
   <path class="fil0" d="M5075 765c0,-75 -14,-137 -42,-185 -34,-60 -86,-91 -156,-94 -131,8 -196,101 -196,280 0,82 14,151 41,206 35,70 87,105 157,104 131,-1 197,-104 197,-310zm130 1l0 0c0,106 -27,195 -82,266 -60,79 -142,119 -248,119 -104,0 -186,-40 -245,-119 -53,-71 -80,-159 -80,-266 0,-100 29,-184 86,-253 61,-73 141,-109 240,-109 99,0 179,36 241,109 58,69 86,153 86,253z"/>
   <path class="fil0" d="M5888 1136l-119 0 0 -486c0,-53 -16,-95 -48,-125 -32,-30 -75,-44 -128,-43 -57,1 -110,20 -161,55l0 598 -119 0 0 -613c69,-50 132,-82 189,-98 54,-14 102,-21 144,-21 28,0 55,3 80,8 47,11 85,31 114,60 33,33 49,72 49,117l0 546z"/>
   <path class="fil1" d="M734 42c-61,0 -120,6 -171,15 -152,27 -179,83 -179,186l0 137 358 0 0 46 -358 0 -134 0c-104,0 -195,63 -224,182 -33,136 -34,222 0,364 25,106 86,182 190,182l123 0 0 -164c0,-118 102,-223 224,-223l358 0c100,0 179,-82 179,-182l0 -341c0,-97 -82,-170 -179,-186 -62,-10 -125,-15 -187,-15zm-194 110l0 0c37,0 67,31 67,68 0,38 -30,68 -67,68 -37,0 -67,-30 -67,-68 0,-38 30,-68 67,-68z"/>
   <path class="fil2" d="M1144 425l0 159c0,123 -105,227 -224,227l-358 0c-98,0 -179,84 -179,182l0 341c0,97 84,154 179,182 113,33 222,39 358,0 90,-26 179,-79 179,-182l0 -137 -358 0 0 -46 358 0 179 0c104,0 143,-73 179,-182 37,-112 36,-220 0,-364 -26,-104 -75,-182 -179,-182l-134 0zm-201 864l0 0c37,0 67,30 67,68 0,38 -30,68 -67,68 -37,0 -67,-31 -67,-68 0,-38 30,-68 67,-68z"/>
   <path class="fil0" d="M6120 316l21 0 0 -131 49 0 0 -16 -120 0 0 16 49 0 0 131zm89 0l0 0 18 0 0 -120 39 120 20 0 40 -119 0 119 19 0 0 -147 -26 0 -44 126 -38 -126 -29 0 0 147z"/>
  </g>
 </g>
</svg>
