<?xml version="1.0" encoding="UTF-8"?>
<!DOCTYPE svg PUBLIC "-//W3C//DTD SVG 1.1//EN" "http://www.w3.org/Graphics/SVG/1.1/DTD/svg11.dtd">
<!-- Creator: CorelDRAW 2017 -->
<svg xmlns="http://www.w3.org/2000/svg" xml:space="preserve" width="14.7741mm" height="18.977mm" version="1.1" style="shape-rendering:geometricPrecision; text-rendering:geometricPrecision; image-rendering:optimizeQuality; fill-rule:evenodd; clip-rule:evenodd"
viewBox="0 0 1477 1898"
 xmlns:xlink="http://www.w3.org/1999/xlink">
 <defs>
  <style type="text/css">
   <![CDATA[
    .fil0 {fill:black}
   ]]>
  </style>
 </defs>
 <g id="Слой_x0020_1">
  <metadata id="CorelCorpID_0Corel-Layer"/>
  <g id="_2171203846272">
   <path class="fil0" d="M442 1174c-56,-44 -116,-87 -157,-146 -86,-105 -153,-227 -198,-356 -27,-83 -37,-173 -72,-253 -37,-58 6,-122 70,-140 28,-5 78,-32 18,-13 -54,40 -59,-36 -4,-41 38,-5 52,-36 39,-64 -41,-26 98,-56 28,-95 -73,-79 102,-94 59,-4 -10,69 122,-13 91,67 31,38 117,9 115,62 46,3 61,41 104,44 44,20 125,36 140,86 -44,35 -146,-72 -150,24 13,142 10,289 62,424 25,82 84,146 138,210 52,63 121,107 193,144 62,29 130,49 198,61 28,-21 76,-100 119,-67 2,37 -85,78 -4,74 48,-14 81,37 120,-9 36,43 151,-27 125,60 -35,22 -86,9 -121,40 -58,-29 -103,26 -167,19 -71,13 -143,18 -215,18 -118,-9 -238,-13 -350,-54 -63,-18 -125,-54 -180,-90l0 0zm99 43c62,27 122,55 189,63 107,15 218,38 325,17 -49,-22 -99,9 -147,-16 -58,12 -120,-3 -180,-11 -67,-30 -140,-50 -203,-89 -79,-29 41,37 62,42 49,28 -54,-14 -69,-26 -41,-23 -46,-18 -4,5 9,5 17,10 26,14l0 0zm-117 -83c60,22 0,-42 -28,-38 -12,-21 -46,-34 -22,-46 -43,15 -45,-57 -66,-47 -46,-14 -18,-66 -73,-97 -5,-33 -54,-62 -70,-112 -7,-26 -56,-99 -26,-31 26,66 70,123 108,179 29,54 63,110 116,143 18,17 35,43 60,49l0 0zm-172 -189c2,-9 11,20 0,0l0 0zm243 215c13,-6 -19,-7 0,0l0 0zm32 12c-3,-16 -15,9 0,0l0 0zm41 17c19,-18 -30,-12 0,0l0 0zm70 39c12,-17 -38,-7 0,0l0 0zm-133 -93c30,-19 -39,0 0,0l0 0zm30 15c-1,-10 -11,5 0,0l0 0zm152 95c24,15 143,34 69,6 -12,3 -137,-35 -69,-6l0 0zm-241 -188c-2,-10 -38,-11 0,0l0 0zm71 41c18,-13 -38,-10 0,0l0 0zm60 36c26,-10 -43,-10 0,0l0 0zm-159 -109c29,22 116,3 44,-13 -33,-17 -106,-29 -56,10l12 3 0 0zm199 122c12,-20 -50,-12 0,0l0 0zm-61 -48c70,20 -59,-44 -17,-7l9 4 8 3 0 0zm122 70c66,1 -60,-9 0,0l0 0zm-286 -182c-3,-12 -16,1 0,0l0 0zm398 245c2,-22 -22,17 0,0l0 0zm-285 -176c-4,-12 -21,0 0,0l0 0zm-107 -77c38,-2 -52,-17 0,0l0 0zm-127 -82c-5,-18 -41,-33 0,0l0 0zm333 211c-7,-8 -3,2 0,0l0 0zm207 127c-1,-12 -11,5 0,0l0 0zm-226 -146c4,-16 -33,-5 0,0l0 0zm-154 -98c28,-3 -45,-19 0,0l0 0zm261 162c44,-18 -43,-9 0,0l0 0zm-136 -92c51,7 -61,-35 -11,-4l11 4 0 0zm177 109c48,-28 32,67 81,8 48,-35 -42,43 18,6 43,-29 106,14 146,27 29,-1 57,25 86,9 57,-15 -111,-23 -67,-50 -52,15 -90,-18 -116,-51 -58,-13 -126,-43 -155,-95 -12,-19 17,3 -10,-29 -35,-31 -53,-67 -76,-105 -28,-15 -32,-59 -34,-1 0,-37 -34,-61 -42,-51 0,-35 37,-18 11,-44 -6,-36 -24,-74 -29,-116 -9,-20 -1,-62 -29,-17 -10,47 -3,-58 12,-23 21,-36 -7,-31 -9,-26 14,-30 9,-73 -4,-56 7,-32 11,-117 -11,-102 13,-33 25,-152 -33,-107 -24,0 -65,9 -84,18 61,33 -6,12 -31,7 -3,31 -28,18 -58,18 49,6 -24,50 -52,33 -36,17 31,61 1,74 4,20 -56,-7 -51,39 -35,-15 -5,55 13,32 60,16 42,53 44,88 -10,21 -48,-48 -9,-45 -31,-51 -35,-18 -61,5 -6,2 66,34 21,49 40,6 41,41 49,63 24,25 19,-28 48,2 -18,-27 -96,-76 -33,-60 0,-27 -11,-49 8,-48 19,-35 -20,85 23,41 12,-5 15,-35 36,3 31,31 11,53 -33,25 8,27 59,36 49,78 10,37 24,23 37,21 10,36 15,9 16,-8 44,10 34,36 48,54 31,14 -44,-94 9,-32 55,50 21,71 -29,63 31,-3 42,42 81,41 36,17 60,82 -2,55 -21,-19 -97,-43 -35,-6 57,26 103,42 158,76 39,28 56,60 71,67 -33,16 -100,-13 -50,-21 -31,-6 -66,-21 -36,17 25,21 89,19 101,21 -10,21 -26,23 0,25 -30,16 10,18 12,28l0 0zm-61 -173c-18,-19 -23,-55 -3,-24 10,4 32,58 3,24l0 0zm199 127c11,-1 0,9 0,0l0 0zm-228 -173c-1,-29 7,22 0,0l0 0zm-20 -27c-23,-44 29,13 0,0l0 0zm-240 -166c13,-4 7,23 0,0l0 0zm191 104c8,-31 10,26 0,0l0 0zm-135 -94c-10,-17 20,16 0,0l0 0zm116 37c-22,-49 15,-27 5,8l-5 -8 0 0zm-200 -133c-10,-16 -26,-63 -21,-77 5,23 49,100 22,32 -30,-57 36,19 43,33 3,14 -19,-4 -4,29 -27,-38 -16,21 -41,-17l0 0zm-62 -43c3,-37 14,25 0,0l0 0zm28 10c13,-28 22,39 0,0l0 0zm-67 -52c-23,-23 -40,-44 1,-14 16,1 -35,-48 4,-15 41,7 20,67 -5,30l0 0zm35 -1c13,-13 7,13 0,0l0 0zm22 7c-20,-38 25,16 0,0l0 0zm-43 -41c-67,-60 84,31 11,11l-11 -11 0 0zm192 111c-29,-17 -8,-122 2,-50 28,-9 -2,37 19,37 -3,29 -13,40 -22,14l0 0zm71 42c3,-32 6,22 0,0l0 0zm-12 -12c3,-13 0,16 0,0l0 0zm-237 -160c-43,-59 125,60 28,15 -10,-3 -22,-4 -28,-15l0 0zm136 72c-4,-50 9,8 0,0l0 0zm104 66c8,-28 1,19 0,0l0 0zm-233 -161c26,-5 106,45 32,14 -8,-9 -26,-5 -32,-14l0 0zm219 109c3,-51 15,-30 0,7l0 -7 0 0zm-200 -127c10,-15 -28,-69 5,-19 14,11 41,19 17,24 38,33 -9,9 -23,-5l0 0zm189 111c7,-58 6,34 0,0l0 0zm-211 -165c8,-3 4,11 0,0l0 0zm49 29c13,-27 23,30 0,0l0 0zm139 77c0,-10 3,15 0,0l0 0zm-8 -18c-19,-48 18,25 0,0l0 0zm-12 -31c-3,-20 11,25 0,0l0 0zm19 -31c-13,-23 17,-103 20,-54 -14,38 -4,60 6,8 18,-41 -4,80 -26,45l0 0zm20 -118c6,-7 1,9 0,0l0 0zm-33 653c-8,-7 1,4 0,0l0 0zm68 35c38,10 38,-6 3,-11 -18,-17 -77,-35 -25,-2 3,9 14,9 21,13l0 0zm-135 -90c21,16 79,44 30,6 17,-19 -32,-29 -16,-42 -41,-25 -32,-23 -4,-22 -49,-22 7,-20 4,-31 -19,-4 -94,-33 -50,2 -45,-23 -11,8 -24,5 -46,-12 41,35 -7,23 26,21 71,53 11,22 -8,11 43,28 55,37l0 0zm71 41c87,28 -43,-34 0,0l0 0zm366 222c1,-17 -12,15 0,0l0 0zm38 16c20,-19 1,31 33,-5 0,-26 -1,-41 -37,-10 -10,6 -14,29 4,14l0 0zm-597 -375c-6,-24 -43,-24 0,0l0 0zm40 26c-15,-25 -53,-22 0,0l0 0zm228 138c22,20 102,15 27,2 -11,-16 -71,-13 -27,-2l0 0zm314 194c34,-29 -33,13 0,0l0 0zm71 49c0,-9 -15,4 0,0l0 0zm0 -13c38,-40 -37,2 0,0l0 0zm-753 -477c-32,-46 -20,-67 -51,-105 -6,-29 -54,-94 -25,-25 26,41 34,103 76,130l0 0zm741 464c70,-45 -29,-20 0,0l0 0zm53 21c35,-30 -22,-6 0,0l0 0zm-707 -453c10,-15 -26,-2 0,0l0 0zm696 439c34,-22 -8,-18 -6,2l6 -2 0 0zm-460 -290c-1,-15 -18,1 0,0l0 0zm28 16c-9,-18 -14,3 0,0l0 0zm486 288c43,-31 -26,-6 -9,6l9 -6 0 0zm-17 -8c35,-30 -37,13 0,0l0 0zm85 57c24,-16 -29,-5 0,0l0 0zm-797 -513c32,7 127,78 71,5 -29,-9 -12,-79 -41,-67 20,33 16,47 -25,26 -52,-25 -29,13 -19,23 -14,3 18,12 14,12l0 0zm-145 -115c6,-24 -52,-130 -27,-53 9,16 8,46 27,53l0 0zm266 164c-16,-14 -1,-2 0,0l0 0zm40 9c0,-25 -45,-10 0,0l0 0zm350 221c-7,-17 -26,0 0,0l0 0zm17 12c-3,-10 -10,2 0,0l0 0zm139 87c13,-10 -17,-1 0,0l0 0zm-739 -475c38,-15 -41,-11 0,0l0 0zm553 348c0,-25 -24,6 0,0l0 0zm-568 -384c24,-8 -23,-5 0,0l0 0zm71 34c0,-8 -8,3 0,0l0 0zm867 532c32,-6 103,16 115,-8 -38,-1 -132,-27 -137,6l8 1 14 1 0 0zm-845 -526c1,-25 -20,-1 0,0l0 0zm-187 -130c-8,-48 -32,-7 0,0l0 0zm45 11c1,-15 -41,-14 0,0l0 0zm25 13c-7,-6 -6,8 0,0l0 0zm160 103c8,-7 -18,-5 0,0l0 0zm-177 -131c-4,-36 -52,-5 0,0l0 0zm-91 -59c-1,-17 -9,6 0,0l0 0zm14 -10c-2,-20 -12,2 0,0l0 0zm75 45c32,-12 -58,-26 -6,-2l6 2 0 0zm1005 621c20,-19 -26,-6 0,0l0 0zm121 63c8,-24 -21,3 0,0l0 0zm-1119 -723c3,-23 -25,5 0,0l0 0zm-107 -72c-6,-33 -5,-91 50,-71 -73,15 51,91 35,31 31,2 60,-18 44,12 61,-7 103,-59 162,-52 46,-6 96,-11 145,-29 40,-3 79,-47 57,-72 -55,-5 -113,2 -174,14 -68,14 -129,41 -197,52 -67,9 13,25 -6,28 -35,12 41,20 -4,33 -28,-5 -58,-15 -46,-45 -64,8 -120,35 -69,100l4 0 0 0zm154 -78c15,-55 80,45 24,7 -7,-5 -18,-9 -24,-7l0 0zm3 -27c22,-16 11,9 0,0l0 0zm27 0c2,-25 63,13 10,9l-10 -9 0 0zm37 -15c14,-16 4,14 0,0l0 0zm10 -6c23,-27 129,-17 51,-3 -21,-16 -37,9 -51,3l0 0zm139 -21c-3,-75 69,27 0,0l0 0zm39 0c14,-38 56,-15 7,-8 1,4 -1,19 -7,8l0 0zm-317 200c43,-26 -46,-23 0,0l0 0zm32 9c15,-16 -33,-6 0,0l0 0zm-94 -66c25,-19 -29,-7 0,0l0 0zm1268 793c1,-22 -19,10 0,0l0 0zm-129 -88c4,-25 -17,2 0,0l0 0zm164 96c34,0 104,-11 29,-11 -12,2 -68,1 -29,11l0 0zm-1182 -751c28,-2 43,-31 -5,-29 -76,-8 67,26 -10,16 -10,7 14,15 15,13l0 0zm24 12c-3,-18 -9,9 0,0l0 0zm29 -77c12,-15 -17,-4 0,0l0 0zm-92 -154c50,-17 117,-36 141,8 -24,-29 -10,-57 13,-15 32,42 48,-19 27,-34 24,29 50,43 16,2 38,-45 -75,6 -101,5 -12,6 -127,29 -96,33l0 0zm29 -56c28,-21 98,13 53,-21 -4,-4 -98,26 -53,21l0 0zm103 4c33,1 -14,-44 25,-24 -6,-21 -46,-25 -65,-34 -11,19 22,58 40,57l0 0zm-85 -94c11,-16 -20,8 0,0l0 0zm42 10c53,-7 -14,-23 -11,-1l11 1 0 0zm-79 -62c-38,-49 71,8 32,-43 -32,-26 -63,29 -32,43l0 0zm482 259c17,-31 -71,-41 -12,-11 5,2 4,13 12,11l0 0z"/>
   <path class="fil0" d="M307 1451c-4,15 -6,40 -7,76 0,7 -3,10 -9,10 -6,0 -11,-3 -13,-9 -7,-16 -13,-28 -19,-34 -7,-8 -17,-12 -29,-14 -13,-2 -45,-3 -96,-3 -12,0 -19,1 -23,4 -2,2 -3,5 -3,10l0 152c0,5 3,8 10,7 20,0 49,-2 87,-4 7,-1 12,-3 15,-7 3,-4 5,-14 8,-30 2,-9 7,-12 16,-10 8,2 11,5 10,10 -6,31 -8,70 -6,119 0,6 -3,9 -11,9 -6,1 -10,-3 -12,-10 -6,-28 -17,-43 -32,-45 -16,-2 -42,-3 -77,-3 -4,0 -6,1 -6,4l0 151c0,11 4,19 12,23 7,3 21,6 42,9 11,1 16,6 14,14 -1,7 -11,10 -30,9 -53,-4 -97,-4 -132,1 -10,1 -14,-3 -14,-12 0,-6 5,-9 14,-10 22,-2 33,-22 33,-58l0 -288c0,-15 -3,-26 -8,-34 -5,-8 -15,-15 -29,-22 -9,-4 -12,-10 -10,-16 1,-4 3,-7 5,-7 2,-1 8,0 18,1 14,2 47,3 100,3 62,0 115,-1 161,-4 15,-1 23,0 23,4 0,1 0,2 0,3l0 0z"/>
   <path class="fil0" d="M525 1879c0,9 -5,13 -15,12 -31,-3 -69,-2 -115,1 -9,1 -15,1 -17,-1 -2,-1 -3,-5 -3,-11 0,-5 6,-10 18,-14 12,-4 18,-15 18,-33l0 -304c0,-18 -3,-32 -8,-40 -5,-9 -15,-15 -28,-20 -7,-2 -10,-6 -10,-10 0,-7 5,-12 15,-15 15,-5 31,-13 47,-23 13,-8 22,-12 26,-12 8,0 12,6 12,17 0,-1 0,10 -1,34 -1,22 -1,44 -1,66l1 300c0,14 3,24 10,30 7,6 18,10 35,12 10,1 15,5 15,11l0 0z"/>
   <path class="fil0" d="M829 1859c0,5 -9,12 -26,21 -17,10 -31,14 -41,14 -9,0 -16,-4 -23,-13 -7,-9 -11,-13 -14,-13 -2,0 -13,5 -32,14 -19,9 -39,14 -58,14 -18,0 -34,-5 -46,-16 -13,-12 -20,-28 -20,-48 0,-39 44,-67 133,-83 15,-3 23,-9 23,-19l1 -22c1,-37 -15,-55 -49,-55 -10,0 -19,9 -27,26 -9,17 -21,27 -37,28 -18,2 -28,-6 -28,-23 0,-11 14,-23 41,-38 29,-15 56,-23 83,-23 46,0 68,22 68,65l-1 139c0,15 6,22 19,22 2,0 7,-1 14,-2 7,-1 11,-2 12,-2 6,0 10,4 10,13l0 0zm-104 -77c0,-6 -1,-9 -4,-11 -3,-2 -7,-2 -13,-1 -54,10 -81,27 -81,53 0,26 14,39 42,39 11,0 23,-2 35,-6 14,-5 21,-11 21,-18l1 -55z"/>
   <path class="fil0" d="M1079 1820c0,24 -9,43 -27,57 -18,14 -43,21 -75,21 -21,0 -42,-2 -63,-7 -18,-4 -29,-8 -32,-11 -2,-3 -3,-19 -3,-46 0,-12 3,-18 8,-19 5,-1 10,2 14,9 17,29 44,44 81,44 32,0 47,-11 47,-33 0,-10 -4,-18 -11,-24 -8,-7 -23,-16 -46,-26 -33,-15 -55,-27 -66,-38 -12,-12 -18,-27 -18,-47 0,-24 9,-43 28,-57 17,-13 40,-20 69,-20 18,0 35,1 50,4 16,3 25,7 25,11 2,13 5,31 11,55 1,3 -2,5 -9,7 -7,2 -12,0 -15,-4 -18,-29 -40,-43 -67,-43 -31,0 -46,10 -46,30 0,11 4,20 12,26 7,6 25,14 52,26 29,12 48,23 59,33 13,13 20,30 20,51l0 0z"/>
   <path class="fil0" d="M1475 1879c0,8 -5,12 -16,12 -16,0 -36,1 -62,3 -13,2 -22,1 -27,-5 -35,-38 -66,-78 -90,-120 -2,-4 -5,-5 -8,-5 -4,0 -10,3 -20,10 -11,6 -16,14 -16,25 0,8 0,19 1,33 0,14 4,24 11,28 5,3 16,6 33,7 11,1 16,5 16,12 0,5 -1,8 -3,10 -2,1 -6,2 -13,1 -22,-2 -60,-1 -114,3 -13,1 -21,-1 -22,-5 0,-2 -1,-4 -1,-7 0,-7 7,-12 21,-16 12,-3 19,-18 19,-43l0 -294c0,-18 -2,-31 -5,-38 -5,-9 -15,-16 -31,-22 -7,-2 -11,-6 -11,-10 0,-7 5,-12 16,-15 17,-6 33,-13 48,-23 12,-8 20,-12 23,-12 9,0 14,6 14,18 0,-2 0,10 0,33 0,16 0,38 0,66l1 211c0,6 2,9 5,9 3,0 9,-3 16,-9 19,-15 41,-34 69,-57 5,-6 8,-10 8,-13 0,-6 -9,-10 -27,-13 -8,-1 -12,-5 -11,-13 1,-8 5,-11 12,-10 16,2 40,3 71,4 22,0 43,0 64,0 7,0 10,4 10,12 0,8 -5,12 -16,12 -17,1 -34,5 -49,12 -21,10 -44,27 -68,51 -2,1 -3,3 -3,5 0,3 4,11 11,23 28,43 55,75 79,97 16,14 31,21 45,21 10,0 17,1 19,2 2,1 4,5 4,12l0 0z"/>
  </g>
 </g>
</svg>
