<?xml version="1.0" encoding="UTF-8"?>
<!DOCTYPE svg PUBLIC "-//W3C//DTD SVG 1.1//EN" "http://www.w3.org/Graphics/SVG/1.1/DTD/svg11.dtd">
<!-- Creator: CorelDRAW 2017 -->
<svg xmlns="http://www.w3.org/2000/svg" xml:space="preserve" width="78.3717mm" height="18.9594mm" version="1.1" style="shape-rendering:geometricPrecision; text-rendering:geometricPrecision; image-rendering:optimizeQuality; fill-rule:evenodd; clip-rule:evenodd"
viewBox="0 0 7837 1896"
 xmlns:xlink="http://www.w3.org/1999/xlink">
 <defs>
  <style type="text/css">
   <![CDATA[
    .fil1 {fill:black}
    .fil0 {fill:#326690}
    .fil2 {fill:white}
   ]]>
  </style>
 </defs>
 <g id="Слой_x0020_1">
  <metadata id="CorelCorpID_0Corel-Layer"/>
  <g id="_2171032208768">
   <path class="fil0" d="M5849 517c-101,55 -96,231 13,273 117,42 243,46 361,76 29,8 59,21 71,50 29,59 4,147 -63,168 -96,29 -210,29 -302,-8 -63,-25 -92,-88 -96,-147 -25,0 -55,0 -80,4 4,59 17,122 63,159 76,59 172,67 264,71 84,0 176,-8 247,-55 84,-59 92,-214 -8,-264 -92,-46 -197,-50 -294,-71 -46,-13 -101,-17 -143,-46 -55,-50 -29,-155 42,-172 92,-25 193,-29 281,4 55,17 75,75 84,122 25,0 50,0 80,0 0,-50 -17,-105 -59,-138 -67,-55 -159,-59 -239,-59 -71,-4 -151,-4 -222,34z"/>
   <path class="fil1" d="M2859 538c-42,-38 -105,-50 -159,-50 -122,0 -243,4 -365,4 0,214 0,432 0,646 21,0 42,0 63,0 0,-92 -4,-185 0,-273 105,0 206,0 310,0 75,-4 164,-38 193,-113 25,-71 17,-164 -42,-214zm-34 201c-21,55 -84,71 -138,75 -96,4 -193,0 -285,0 0,-88 0,-180 0,-268 92,0 185,0 277,0 46,0 101,8 130,46 29,38 34,96 17,147z"/>
   <path class="fil0" d="M7279 491c0,214 0,428 0,646 185,0 373,0 558,0 0,-17 0,-34 0,-55 -159,-4 -319,0 -482,-4 0,-197 0,-394 0,-591 -25,4 -50,4 -75,4z"/>
   <path class="fil2" d="M4058 575c0,46 0,92 0,138 -29,0 -55,0 -84,0 0,13 0,29 0,42 29,0 59,0 84,0 0,96 0,197 0,294 0,29 8,59 34,75 46,21 96,17 147,13 0,-13 0,-29 0,-42 -34,4 -67,8 -96,-8 -21,-13 -17,-38 -21,-59 0,-92 0,-180 0,-273 38,0 75,0 113,0 0,-17 0,-29 -4,-46 -38,0 -75,0 -113,0 0,-46 0,-92 0,-138 -13,4 -38,4 -59,4z"/>
   <path class="fil2" d="M3526 739c-59,38 -59,147 13,176 96,34 206,25 306,55 50,17 55,92 8,117 -67,34 -147,29 -218,17 -50,-8 -92,-42 -96,-96 -25,0 -50,0 -71,0 8,38 17,80 50,105 55,38 126,38 189,42 67,0 138,-4 197,-38 50,-29 67,-96 38,-143 -21,-34 -59,-46 -96,-55 -80,-17 -164,-17 -243,-34 -29,-8 -55,-29 -55,-59 0,-42 46,-63 84,-71 59,-8 126,-13 185,13 34,13 42,46 50,80 25,0 46,0 71,0 -4,-38 -17,-80 -50,-101 -63,-42 -138,-42 -210,-38 -50,-4 -105,0 -151,29z"/>
   <path class="fil2" d="M5015 718c-29,13 -46,42 -63,71 0,-25 0,-50 0,-71 -21,0 -42,0 -67,0 -4,143 0,281 0,424 21,0 42,0 63,0 0,-71 0,-147 0,-218 0,-50 17,-109 59,-138 46,-34 105,-25 159,-25 0,-17 0,-38 0,-55 -50,-4 -101,-8 -151,13z"/>
   <path class="fil0" d="M6592 525c92,-46 197,-55 298,-46 96,8 193,42 256,117 80,84 96,218 63,327 -17,63 -59,109 -105,151 38,25 75,50 113,80 -17,17 -34,29 -50,46 -38,-25 -75,-55 -113,-75 -29,0 -59,17 -92,25 -84,17 -176,17 -260,0 -92,-17 -185,-71 -235,-155 -50,-80 -55,-185 -34,-273 25,-88 84,-159 159,-197zm126 17c-88,21 -172,84 -201,172 -29,96 -21,210 50,289 63,71 155,101 247,101 101,4 210,-25 277,-105 92,-117 80,-306 -42,-398 -92,-80 -218,-84 -331,-59z"/>
   <path class="fil1" d="M4058 575c21,0 42,0 67,0 0,46 0,92 0,138 38,0 76,0 113,0 0,17 0,29 4,46 -38,0 -76,0 -113,0 0,92 0,180 0,273 0,21 0,46 21,59 29,13 63,8 96,8 0,13 0,29 0,42 -50,4 -101,8 -147,-13 -29,-13 -38,-46 -34,-75 0,-96 0,-197 0,-294 -29,0 -59,0 -84,0 0,-13 0,-29 0,-42 29,0 55,0 84,0 -8,-50 -8,-96 -8,-143z"/>
   <path class="fil1" d="M3337 739c-75,-42 -168,-46 -252,-34 -71,13 -138,50 -168,117 -29,67 -29,147 4,214 38,71 117,109 193,113 96,8 206,-4 277,-80 75,-96 59,-268 -55,-331zm-13 315c-38,38 -92,55 -143,55 -59,4 -122,-8 -164,-46 -55,-50 -63,-134 -42,-206 21,-63 80,-101 143,-109 59,-8 126,-4 180,29 42,25 63,71 67,117 8,59 0,117 -42,159z"/>
   <path class="fil1" d="M3526 739c42,-29 96,-34 147,-38 71,-4 151,-4 210,38 34,21 46,63 50,101 -25,0 -46,0 -71,0 -4,-34 -17,-63 -50,-80 -59,-25 -122,-25 -185,-13 -38,4 -84,25 -84,71 -4,29 25,55 55,59 80,21 164,17 243,34 38,8 75,25 96,55 29,46 13,117 -38,143 -59,34 -130,38 -197,38 -63,-4 -134,-4 -189,-42 -34,-25 -46,-63 -50,-105 25,0 50,0 71,0 0,55 46,92 96,96 71,8 151,17 218,-17 46,-25 42,-101 -8,-117 -101,-29 -210,-21 -306,-55 -67,-21 -67,-130 -8,-168z"/>
   <path class="fil1" d="M4440 710c67,-17 143,-17 210,4 38,13 67,42 96,67 0,-25 4,-46 4,-67 21,0 42,0 63,0 4,130 0,260 4,390 4,55 -8,113 -50,151 -55,50 -134,59 -206,59 -63,0 -130,-4 -189,-34 -38,-21 -59,-63 -67,-105 21,0 42,0 63,0 13,29 25,63 55,75 46,21 96,21 147,21 55,-4 117,-13 151,-59 34,-46 25,-105 25,-159 -67,71 -172,84 -264,71 -59,-8 -117,-29 -159,-75 -46,-59 -50,-138 -34,-206 17,-67 84,-117 151,-134zm55 42c-46,8 -96,29 -122,71 -29,50 -29,117 -13,168 21,55 84,84 138,92 71,8 155,0 206,-55 59,-71 50,-193 -25,-247 -50,-38 -122,-38 -185,-29z"/>
   <path class="fil1" d="M5015 718c50,-21 101,-17 151,-17 0,17 0,38 0,55 -55,0 -113,-8 -159,25 -42,29 -59,88 -59,138 0,71 0,147 0,218 -21,0 -42,0 -63,0 -4,-143 -4,-281 0,-424 21,0 42,0 67,0 0,25 0,50 0,71 17,-25 34,-55 63,-67z"/>
   <path class="fil1" d="M5191 806c42,-71 130,-101 210,-105 84,-4 176,8 235,71 46,42 59,105 63,168 -159,0 -315,0 -474,0 4,42 17,88 50,117 63,55 155,63 231,42 50,-13 92,-50 109,-101 25,0 50,0 71,0 -21,71 -84,122 -155,138 -96,21 -210,17 -294,-42 -84,-59 -101,-197 -46,-289zm122 -34c-46,25 -71,75 -80,126 134,0 268,0 403,0 -4,-29 -13,-63 -34,-84 -71,-84 -201,-92 -289,-42z"/>
   <path class="fil2" d="M1102 34c-80,-13 -164,-17 -243,-4 -46,8 -92,29 -130,50 -130,-42 -277,-67 -411,-42 -96,17 -189,75 -239,164 -63,105 -75,231 -67,352 17,134 50,268 88,398 34,113 71,226 134,327 34,55 84,113 151,130 55,13 109,-4 151,-38 21,21 46,38 75,46 80,29 168,29 247,-4 4,109 0,222 42,323 17,50 42,96 88,126 50,34 109,38 168,29 50,-8 105,-25 147,-50 46,-29 84,-71 105,-122 50,-113 55,-235 59,-356 117,8 239,-21 327,-101 34,-29 63,-75 50,-122 -13,-42 -59,-71 -101,-67 -46,4 -88,17 -134,17 101,-176 180,-365 214,-562 13,-84 25,-168 0,-252 -13,-46 -46,-84 -80,-117 -76,-76 -180,-126 -285,-147 -122,-25 -243,-13 -356,21z"/>
   <path class="fil2" d="M1097 85c126,-38 260,-50 386,-13 101,29 193,88 256,172 25,34 34,80 34,122 4,75 -13,151 -29,222 -46,193 -130,373 -235,541 59,25 126,13 185,4 25,-4 59,-13 75,13 17,25 0,55 -17,71 -88,88 -222,109 -340,88 -13,105 -25,210 -42,319 -8,59 -29,122 -76,159 -42,38 -101,55 -155,63 -55,8 -122,4 -164,-38 -46,-42 -76,-105 -80,-164 -13,-105 -13,-214 -13,-319 -50,42 -117,67 -185,63 -46,-4 -101,-13 -134,-46 -21,-17 -17,-50 4,-67 38,-29 88,-25 130,-42 34,-8 50,-42 67,-63 -38,-4 -75,-13 -105,-29 -50,55 -101,113 -147,168 -29,34 -67,63 -113,55 -50,-8 -88,-46 -117,-84 -55,-80 -92,-172 -122,-264 -46,-151 -84,-302 -105,-457 -13,-117 0,-243 67,-340 55,-80 147,-122 239,-130 126,-13 252,13 369,55 96,-63 222,-75 336,-50 13,-8 21,-4 29,-8zm92 34c25,17 50,29 75,46 101,67 180,164 226,273 13,34 29,63 25,101 0,71 -25,143 -17,214 8,75 25,155 4,231 -4,25 -21,50 -29,75 0,4 4,13 4,13 8,-13 17,-25 25,-38 80,-130 138,-273 180,-419 21,-80 38,-164 38,-247 0,-34 -4,-71 -25,-101 -46,-59 -109,-105 -180,-134 -105,-34 -218,-38 -327,-13zm-294 8c-80,8 -155,55 -201,117 -63,88 -92,197 -101,302 67,-29 138,-59 214,-42 46,13 84,55 92,101 21,96 34,193 13,289 -17,75 -63,143 -80,222 21,0 42,4 59,13 38,21 59,63 55,105 -4,105 -4,210 4,315 4,42 4,88 17,130 17,50 50,101 105,113 59,8 117,-8 172,-34 50,-25 76,-84 84,-138 17,-113 29,-226 42,-340 4,-42 -4,-84 21,-122 13,-25 38,-34 59,-46 -17,-25 -38,-50 -55,-76 -55,-117 -130,-226 -155,-352 -8,-55 -4,-117 42,-155 50,-42 117,-38 180,-38 -38,-105 -105,-197 -189,-264 -109,-80 -247,-117 -377,-101zm-558 8c-71,13 -143,55 -180,122 -50,88 -55,189 -46,285 17,126 46,252 84,377 34,105 67,210 126,302 21,34 46,67 84,80 34,8 59,-21 80,-42 42,-55 92,-105 138,-159 -67,-59 -101,-151 -92,-243 8,-67 13,-138 8,-210 -8,-96 8,-197 38,-294 21,-71 59,-134 109,-189 -113,-25 -235,-50 -348,-29zm977 432c-34,25 -34,75 -25,113 25,122 96,222 147,331 42,-80 17,-172 8,-260 -8,-71 13,-138 17,-206 -46,0 -101,-8 -147,21zm-726 46c0,59 4,117 0,172 -4,50 -17,101 -4,151 17,92 96,168 193,168 13,-46 29,-92 50,-134 59,-113 46,-243 17,-361 -8,-34 -38,-59 -71,-59 -67,0 -130,29 -185,63zm851 566c-17,17 -17,42 -17,63 38,13 80,13 122,8 59,-8 122,-25 168,-71 -71,8 -151,25 -222,-8 -17,-8 -38,0 -50,8zm-692 84c-42,25 -92,21 -130,42 84,42 206,29 264,-50 29,-29 0,-88 -38,-84 -42,25 -59,71 -96,92z"/>
   <path class="fil2" d="M1332 584c25,-17 59,-17 84,-8 0,34 -42,59 -71,42 -8,-4 -25,-21 -13,-34z"/>
   <path class="fil2" d="M741 588c25,-8 55,-4 75,13 13,13 0,34 -13,38 -29,21 -75,0 -80,-34 0,-8 8,-17 17,-17z"/>
   <path class="fil0" d="M1190 118c105,-25 222,-21 323,17 71,25 134,76 180,134 25,29 25,67 25,101 0,84 -17,164 -38,247 -42,147 -101,289 -180,419 -8,13 -17,25 -25,38 0,-4 -4,-13 -4,-13 8,-25 25,-50 29,-76 21,-75 4,-155 -4,-231 -8,-71 17,-143 17,-214 4,-34 -13,-67 -25,-101 -50,-109 -126,-206 -226,-273 -17,-21 -46,-34 -71,-50z"/>
   <path class="fil0" d="M896 127c130,-17 268,21 373,101 84,67 155,159 189,264 -59,0 -130,-4 -180,38 -46,38 -50,101 -42,155 25,130 101,239 155,352 13,29 34,50 55,76 -25,13 -46,21 -59,46 -21,38 -13,80 -21,122 -13,113 -25,226 -42,340 -8,55 -34,113 -84,138 -50,25 -113,42 -172,34 -55,-8 -92,-63 -105,-113 -13,-42 -13,-88 -17,-130 -4,-105 -4,-210 -4,-315 4,-42 -17,-84 -55,-105 -17,-8 -38,-13 -59,-13 17,-75 63,-143 80,-222 21,-96 8,-193 -13,-289 -8,-46 -46,-88 -92,-101 -75,-17 -147,8 -214,42 8,-105 38,-214 101,-302 50,-63 126,-105 206,-117z"/>
   <path class="fil0" d="M338 135c117,-21 235,0 348,34 -50,55 -88,117 -109,189 -29,92 -42,193 -38,294 4,71 4,138 -8,210 -13,88 25,180 92,243 -46,55 -92,105 -138,159 -21,25 -46,50 -80,42 -38,-13 -63,-46 -84,-80 -59,-92 -92,-197 -126,-302 -38,-122 -67,-247 -84,-377 -8,-96 -4,-201 46,-285 38,-67 105,-109 180,-126z"/>
   <path class="fil0" d="M1315 567c42,-29 101,-25 147,-21 -4,67 -25,134 -17,206 8,84 29,176 -8,260 -55,-109 -126,-210 -147,-331 -4,-38 -4,-84 25,-113zm17 17c-13,13 0,29 13,34 29,17 71,-8 71,-42 -25,-8 -59,-8 -84,8z"/>
   <path class="fil0" d="M590 613c55,-34 117,-63 180,-59 34,0 63,25 71,59 29,117 38,247 -17,361 -21,42 -38,88 -50,134 -96,0 -176,-80 -193,-168 -13,-50 4,-101 4,-151 8,-63 4,-117 4,-176zm151 -25c-8,4 -17,8 -17,17 4,34 50,55 80,34 13,-8 25,-25 13,-38 -21,-17 -50,-21 -75,-13z"/>
   <path class="fil0" d="M1441 1179c13,-8 34,-21 50,-8 67,38 147,17 222,8 -46,42 -105,63 -168,71 -42,4 -84,8 -122,-8 0,-21 0,-46 17,-63z"/>
   <path class="fil0" d="M749 1263c38,-21 55,-67 92,-92 38,-4 71,55 38,84 -59,80 -180,96 -264,50 42,-17 92,-17 134,-42z"/>
   <path class="fil1" d="M1102 34c113,-29 235,-42 352,-21 105,17 206,71 285,147 34,34 67,71 80,117 25,84 13,168 0,252 -38,197 -113,386 -214,562 46,0 88,-13 134,-17 42,-4 92,25 101,67 13,46 -17,92 -50,122 -92,80 -218,105 -331,101 -8,122 -8,243 -59,356 -25,50 -59,92 -105,122 -46,29 -96,42 -147,50 -55,8 -117,4 -168,-29 -46,-29 -71,-75 -88,-126 -38,-105 -34,-214 -42,-323 -80,34 -168,34 -247,4 -29,-8 -55,-25 -75,-46 -42,34 -96,50 -151,38 -67,-17 -113,-75 -151,-130 -63,-101 -101,-214 -134,-327 -38,-130 -71,-260 -88,-398 -8,-122 0,-247 67,-352 50,-84 143,-143 239,-164 138,-29 281,0 411,38 42,-21 84,-42 130,-50 88,-13 172,-4 252,8zm-4 50c-8,4 -21,-4 -29,-4 -113,-25 -239,-13 -336,50 -117,-42 -243,-67 -369,-55 -92,8 -189,55 -239,130 -67,101 -75,226 -67,340 21,155 59,306 105,453 34,92 67,185 122,264 29,38 67,80 117,84 46,4 84,-21 113,-55 50,-59 96,-113 147,-168 34,17 71,25 105,29 -21,25 -38,55 -67,63 -42,17 -92,13 -130,42 -21,17 -25,50 -4,67 34,34 88,42 134,46 67,4 134,-17 185,-63 0,105 0,214 13,319 4,63 34,126 80,164 42,38 109,46 164,38 55,-13 113,-29 155,-63 46,-42 67,-101 75,-159 17,-105 29,-210 42,-319 117,21 252,-4 340,-88 17,-17 38,-50 17,-71 -17,-21 -50,-17 -75,-13 -59,13 -126,25 -185,-4 105,-168 189,-348 235,-541 17,-71 29,-147 29,-222 -4,-42 -8,-88 -34,-122 -63,-84 -155,-143 -256,-172 -122,-17 -260,-8 -386,29z"/>
  </g>
 </g>
</svg>
