<?xml version="1.0" encoding="UTF-8"?>
<!DOCTYPE svg PUBLIC "-//W3C//DTD SVG 1.1//EN" "http://www.w3.org/Graphics/SVG/1.1/DTD/svg11.dtd">
<!-- Creator: CorelDRAW 2017 -->
<svg xmlns="http://www.w3.org/2000/svg" xml:space="preserve" width="47.8672mm" height="30.4604mm" version="1.1" style="shape-rendering:geometricPrecision; text-rendering:geometricPrecision; image-rendering:optimizeQuality; fill-rule:evenodd; clip-rule:evenodd"
viewBox="0 0 4787 3046"
 xmlns:xlink="http://www.w3.org/1999/xlink">
 <defs>
  <style type="text/css">
   <![CDATA[
    .fil0 {fill:black;fill-rule:nonzero}
   ]]>
  </style>
 </defs>
 <g id="Слой_x0020_1">
  <metadata id="CorelCorpID_0Corel-Layer"/>
  <g id="_2171182954192">
   <path class="fil0" d="M167 248c0,53 -32,92 -87,92 -46,0 -80,-39 -80,-92 0,-50 37,-92 85,-92 50,0 83,41 83,92zm-127 2754l0 0 0 -2107 86 0 0 2107 -86 0z"/>
   <path class="fil0" d="M2999 1501c0,1062 -590,1545 -1235,1545 -659,0 -1193,-522 -1193,-1501 0,-1005 553,-1545 1240,-1545 673,0 1189,531 1189,1501zm-2341 22l0 0c0,805 390,1431 1110,1431 725,0 1140,-645 1140,-1440 0,-737 -333,-1411 -1093,-1411 -760,0 -1157,634 -1157,1420z"/>
   <path class="fil0" d="M3316 2774c145,97 395,190 610,190 408,0 771,-286 771,-706 0,-390 -242,-594 -652,-768 -367,-156 -698,-326 -698,-743 0,-434 342,-742 808,-742 250,0 439,70 527,132l-35 76c-75,-53 -276,-120 -496,-120 -492,0 -706,372 -706,645 0,378 293,504 670,684 439,215 672,405 672,817 0,443 -316,803 -878,803 -233,0 -500,-79 -632,-180l39 -88z"/>
  </g>
 </g>
</svg>
