<?xml version="1.0" encoding="UTF-8"?>
<!DOCTYPE svg PUBLIC "-//W3C//DTD SVG 1.1//EN" "http://www.w3.org/Graphics/SVG/1.1/DTD/svg11.dtd">
<!-- Creator: CorelDRAW 2017 -->
<svg xmlns="http://www.w3.org/2000/svg" xml:space="preserve" width="66.172mm" height="18.9769mm" version="1.1" style="shape-rendering:geometricPrecision; text-rendering:geometricPrecision; image-rendering:optimizeQuality; fill-rule:evenodd; clip-rule:evenodd"
viewBox="0 0 6617 1898"
 xmlns:xlink="http://www.w3.org/1999/xlink">
 <defs>
  <style type="text/css">
   <![CDATA[
    .fil4 {fill:#494849;fill-rule:nonzero}
    .fil3 {fill:#C0BEBD;fill-rule:nonzero}
    .fil0 {fill:url(#id0);fill-rule:nonzero}
    .fil2 {fill:url(#id1);fill-rule:nonzero}
    .fil1 {fill:url(#id2);fill-rule:nonzero}
   ]]>
  </style>
  <linearGradient id="id0" gradientUnits="userSpaceOnUse" x1="140" y1="938" x2="706" y2="1130">
   <stop offset="0" style="stop-opacity:1; stop-color:#9B9A75"/>
   <stop offset="0.231373" style="stop-opacity:1; stop-color:#9B9A75"/>
   <stop offset="0.788235" style="stop-opacity:1; stop-color:#9B9A75"/>
   <stop offset="1" style="stop-opacity:1; stop-color:#FBF8EE"/>
  </linearGradient>
  <linearGradient id="id1" gradientUnits="userSpaceOnUse" x1="-489" y1="966" x2="917" y2="646">
   <stop offset="0" style="stop-opacity:1; stop-color:#4EA346"/>
   <stop offset="0.580392" style="stop-opacity:1; stop-color:#6FB362"/>
   <stop offset="1" style="stop-opacity:1; stop-color:#90C37F"/>
  </linearGradient>
  <linearGradient id="id2" gradientUnits="userSpaceOnUse" x1="407" y1="-4" x2="821" y2="1605">
   <stop offset="0" style="stop-opacity:1; stop-color:#589E4C"/>
   <stop offset="1" style="stop-opacity:1; stop-color:#498D41"/>
  </linearGradient>
 </defs>
 <g id="Слой_x0020_1">
  <metadata id="CorelCorpID_0Corel-Layer"/>
  <g id="_2170987624112">
   <path class="fil0" d="M454 1837l-49 -16c0,0 6,-249 -84,-267 -59,-69 9,-2935 225,-10 0,0 -74,37 -88,100 -14,63 -4,193 -4,193z"/>
   <path class="fil1" d="M480 1596c0,0 428,-282 328,-868 -97,-425 -325,-565 -349,-619 -27,-38 -54,-105 -54,-105l18 1186c0,0 -38,362 57,406z"/>
   <path class="fil2" d="M379 1612c0,0 -402,-274 -379,-757 23,-483 307,-721 362,-764 36,-38 37,-53 40,-90 25,54 21,803 24,891 10,341 -19,657 -47,721z"/>
   <path class="fil3" d="M4965 726c23,0 110,4 151,4 76,0 129,-4 271,-4 119,0 219,32 291,94 87,75 133,179 133,306 0,181 -83,285 -165,344 -83,62 -190,96 -343,96 -81,0 -221,-3 -337,-4l-2 0c-5,-11 10,-52 20,-54 31,-4 40,-5 55,-11 25,-10 30,-23 33,-67 4,-83 3,-182 3,-294 0,-80 1,-237 -1,-286 -4,-41 -22,-52 -57,-60 -18,-4 -42,-8 -76,-12 -3,-8 18,-44 25,-52zm270 743l0 0c28,23 85,32 135,32 65,0 129,-12 191,-68 64,-58 107,-146 107,-286 0,-135 -51,-245 -157,-309 -60,-37 -137,-52 -225,-52 -26,0 -51,1 -66,8 -4,3 -12,13 -12,19 -3,24 -3,207 -3,316 0,111 0,266 3,285 1,16 9,44 27,56z"/>
   <path class="fil3" d="M5924 726c12,0 48,4 140,4 87,0 157,-3 241,-3 104,0 248,37 248,193 0,76 -54,138 -125,167 -4,1 -4,4 0,5 100,25 188,87 188,205 0,115 -72,187 -176,233 -64,28 -142,37 -222,37 -61,0 -224,-7 -315,-5 -9,-4 9,-47 17,-54 22,-1 38,-3 61,-10 32,-8 36,-19 40,-67 3,-41 3,-190 3,-296 0,-144 1,-242 0,-290 -1,-37 -15,-49 -41,-56 -20,-4 -54,-8 -81,-12 -7,-7 14,-47 21,-52zm552 600l0 0c0,-118 -87,-185 -245,-185 -7,0 -57,-1 -69,1 -4,1 -8,4 -8,7 0,84 -1,219 3,273 3,23 19,55 39,64 22,12 70,15 104,15 93,0 176,-52 176,-175zm-307 -535l0 0c-5,1 -12,15 -12,21 -1,48 -3,174 -3,261 0,3 4,7 7,7 18,1 61,3 97,3 51,0 81,-7 98,-15 43,-21 64,-68 64,-119 0,-116 -81,-160 -202,-160 -8,0 -31,0 -49,3z"/>
   <path class="fil4" d="M1081 1565c-2,-4 -5,-14 -4,-27 0,-10 2,-16 4,-18 26,-4 38,-7 52,-11 24,-6 33,-19 34,-49 4,-72 4,-207 3,-302l0 -3c0,-10 0,-24 -13,-34 -19,-12 -42,-23 -72,-31 -11,-3 -18,-9 -17,-16 0,-7 7,-15 22,-18 39,-4 142,-29 182,-47 2,3 6,9 5,19 0,4 -1,9 -1,13 -1,13 -2,29 -2,44 0,4 5,9 10,9 3,0 5,-1 7,-3 77,-60 146,-82 181,-82 58,0 103,28 138,85 2,3 5,5 8,5 3,0 6,-2 7,-4 71,-54 141,-86 188,-86 111,0 177,83 177,222 0,40 0,90 -1,138 0,41 -1,80 -1,107 0,7 9,25 22,28 16,8 40,12 69,17l1 0c2,8 -2,39 -7,45 -7,0 -18,-1 -30,-1 -23,-1 -55,-3 -91,-3 -74,0 -112,1 -149,4 -3,-9 -4,-39 0,-45 21,-4 32,-7 45,-11 23,-8 30,-18 32,-49 1,-22 5,-217 -3,-263 -7,-48 -43,-104 -122,-104 -29,0 -77,12 -122,46 -3,3 -4,8 -4,11l0 1c5,25 5,54 5,98 0,25 0,52 0,78 0,54 -1,104 0,143 0,26 16,32 29,37 7,2 12,3 18,4 11,3 22,5 38,8 2,5 2,21 -1,34 -2,7 -4,10 -5,12 -41,-1 -83,-3 -144,-3 -18,0 -48,1 -75,2 -21,1 -42,1 -53,1 -2,-3 -4,-11 -4,-23 0,-11 2,-19 4,-22 6,-1 11,-2 16,-3 14,-3 27,-5 38,-8 20,-6 28,-17 29,-43 4,-60 7,-231 -1,-274 -14,-69 -54,-104 -117,-104 -37,0 -84,18 -122,46 -6,5 -11,17 -11,28 0,20 0,45 0,71 0,86 -1,193 2,240 1,14 6,31 33,37 6,2 16,3 28,5 7,1 14,2 22,4 3,7 1,36 -4,45 -12,0 -26,-1 -43,-1 -25,-1 -57,-3 -93,-3 -42,0 -72,1 -95,3 -16,1 -30,1 -43,1z"/>
   <path class="fil4" d="M2445 1577c-203,0 -276,-149 -276,-289 0,-97 40,-174 119,-226 56,-34 123,-54 183,-54 155,0 264,111 264,271 0,109 -43,194 -125,248 -39,24 -108,50 -164,50zm-22 -512l0 0c-25,0 -48,6 -65,18 -47,29 -71,86 -71,169 0,157 79,266 191,266 33,0 60,-10 83,-29 35,-28 53,-86 53,-166 0,-155 -77,-258 -191,-258z"/>
   <path class="fil4" d="M4552 1577c-203,0 -276,-149 -276,-289 0,-97 40,-174 119,-226 56,-34 123,-54 183,-54 155,0 264,112 264,271 0,109 -43,194 -125,248 -39,24 -108,50 -164,50zm-22 -512l0 0c-25,0 -48,6 -65,18 -47,29 -71,86 -71,169 0,157 79,266 191,266 33,0 60,-10 83,-29 35,-28 53,-86 53,-166 0,-155 -77,-258 -191,-258z"/>
   <path class="fil4" d="M3850 1898c-73,0 -126,-15 -171,-50 -44,-34 -63,-84 -63,-118 0,-10 2,-36 24,-60 13,-14 42,-41 110,-88 2,-1 4,-3 4,-5 0,-3 -2,-5 -4,-6 -56,-21 -73,-57 -78,-76 0,-1 0,-2 -1,-3 -2,-8 -3,-15 7,-22 8,-6 20,-13 34,-21 20,-12 42,-25 54,-35 2,-2 3,-5 2,-8 0,-3 -2,-5 -5,-6 -83,-28 -125,-89 -125,-183 0,-61 28,-115 77,-150 33,-26 117,-58 172,-58l3 0c56,1 87,13 131,29 24,9 46,12 77,12 46,0 66,-15 84,-31 1,2 3,9 4,24 1,16 -3,39 -15,55 -9,13 -31,23 -52,23 -2,0 -4,0 -6,0 -21,-2 -31,-5 -31,-5l-5 2c-2,2 -1,5 1,8 0,1 1,2 1,2 3,11 8,42 8,51 0,98 -39,141 -81,173 -40,30 -87,48 -140,54l0 0c-1,0 -6,0 -16,1 -7,1 -15,1 -16,1l-1 0c-9,3 -33,14 -33,35 0,18 11,39 62,43 10,1 22,2 33,2 68,5 153,11 193,24 55,20 89,69 89,128 0,88 -63,171 -168,222 -51,24 -103,36 -159,36zm-8 -310l0 0c-24,0 -41,7 -51,13 -50,32 -73,64 -73,100 0,34 13,62 42,86 35,30 82,44 144,44 122,0 176,-65 176,-130 0,-45 -23,-75 -69,-92 -36,-13 -96,-20 -169,-20zm8 -528l0 0c-63,0 -103,49 -103,126 0,77 35,167 133,167 17,0 47,-7 63,-24 23,-21 38,-64 38,-110 0,-100 -49,-159 -130,-159z"/>
   <path class="fil4" d="M3519 1516c-30,-4 -51,-8 -77,-20 -4,-3 -10,-15 -10,-19 -3,-41 -3,-162 -3,-241 0,-64 -11,-120 -38,-160 -33,-45 -79,-72 -138,-72 -53,0 -123,36 -181,86 -1,1 -10,10 -10,-3 0,-13 2,-40 3,-57 1,-17 -9,-25 -9,-25 -38,19 -145,44 -184,48 -29,6 -37,33 -5,43l0 0c0,0 0,0 1,0 32,10 54,20 70,31 12,9 11,23 11,33 1,90 1,227 -3,302 -1,29 -9,40 -31,45l2 -1c-16,4 -30,7 -50,9 -7,7 -7,45 0,53 14,0 83,-4 139,-4 79,0 119,4 139,4 8,-9 11,-45 5,-53 -23,-1 -39,-4 -56,-8 -22,-5 -27,-16 -28,-40 -3,-63 -3,-197 -3,-287 0,-25 7,-37 15,-44 27,-24 72,-40 111,-40 38,0 64,12 83,28 26,21 35,52 38,75 5,51 4,152 4,241 0,48 -4,60 -22,66 -8,4 -30,8 -56,11 -8,8 -5,45 0,53 35,0 76,-4 135,-4 74,0 122,4 141,4 8,-9 11,-44 5,-53z"/>
  </g>
 </g>
</svg>
