<?xml version="1.0" encoding="UTF-8"?>
<!DOCTYPE svg PUBLIC "-//W3C//DTD SVG 1.1//EN" "http://www.w3.org/Graphics/SVG/1.1/DTD/svg11.dtd">
<!-- Creator: CorelDRAW 2017 -->
<svg xmlns="http://www.w3.org/2000/svg" xml:space="preserve" width="45.5687mm" height="14.5791mm" version="1.1" style="shape-rendering:geometricPrecision; text-rendering:geometricPrecision; image-rendering:optimizeQuality; fill-rule:evenodd; clip-rule:evenodd"
viewBox="0 0 4557 1458"
 xmlns:xlink="http://www.w3.org/1999/xlink">
 <defs>
  <style type="text/css">
   <![CDATA[
    .fil3 {fill:#621B1C}
    .fil0 {fill:#912626}
    .fil4 {fill:#9A2928}
    .fil1 {fill:#C6302B}
    .fil2 {fill:white}
    .fil5 {fill:#636466;fill-rule:nonzero}
    .fil6 {fill:#636466;fill-rule:nonzero}
   ]]>
  </style>
 </defs>
 <g id="Слой_x0020_1">
  <metadata id="CorelCorpID_0Corel-Layer"/>
  <g id="_2170952549344">
   <g>
    <path class="fil0" d="M1641 1123c-91,48 -563,242 -664,294 -100,52 -156,52 -236,14 -79,-38 -582,-241 -672,-284 -45,-22 -69,-40 -69,-57l0 -173c0,0 654,-142 760,-180 106,-38 142,-39 232,-6 90,33 627,130 716,162 0,0 0,154 0,170 0,17 -20,36 -67,60z"/>
    <path class="fil1" d="M1641 951c-91,47 -563,242 -664,294 -100,52 -156,52 -236,14 -79,-38 -582,-241 -672,-284 -90,-43 -92,-73 -3,-108 89,-35 588,-231 694,-269 106,-38 142,-39 232,-6 90,33 559,220 648,252 89,33 92,59 1,107z"/>
    <path class="fil0" d="M1641 844c-91,47 -563,242 -664,294 -100,52 -156,52 -236,14 -79,-38 -582,-241 -672,-284 -45,-22 -69,-40 -69,-57l0 -173c0,0 654,-142 760,-180 106,-38 142,-39 232,-6 90,33 627,130 716,162 0,0 0,154 0,170 0,17 -20,36 -67,60z"/>
    <path class="fil1" d="M1641 672c-91,47 -563,242 -664,294 -100,52 -156,52 -236,14 -79,-38 -582,-241 -672,-284 -90,-43 -92,-73 -3,-108 89,-35 588,-231 694,-269 106,-38 142,-39 232,-6 90,33 559,220 648,252 89,33 92,59 1,107l0 0z"/>
    <path class="fil0" d="M1641 554c-91,48 -563,242 -664,294 -100,52 -156,52 -236,14 -79,-38 -582,-241 -672,-284 -45,-22 -69,-40 -69,-57l0 -173c0,0 654,-142 760,-180 106,-38 142,-39 232,-6 90,33 627,130 716,162 0,0 0,154 0,170 0,17 -20,36 -67,60z"/>
    <path class="fil1" d="M1641 382c-91,47 -563,242 -664,294 -100,52 -156,52 -236,14 -79,-38 -582,-241 -672,-284 -90,-43 -92,-73 -3,-108 89,-35 588,-231 694,-269 106,-38 142,-39 232,-6 90,33 559,220 648,252 89,33 92,59 1,107z"/>
    <polygon class="fil2" points="1062,215 916,230 883,309 830,221 660,205 787,160 749,90 867,136 979,100 949,172 "/>
    <polygon class="fil2" points="874,598 600,485 993,424 "/>
    <path class="fil2" d="M494 259c116,0 210,36 210,81 0,45 -94,81 -210,81 -116,0 -210,-36 -210,-81 0,-45 94,-81 210,-81z"/>
    <polygon class="fil3" points="1236,236 1468,328 1236,420 "/>
    <polygon class="fil4" points="979,338 1236,236 1236,420 1211,430 "/>
   </g>
   <path class="fil5" d="M2430 378c-65,-1 -121,22 -164,51 -9,7 -20,17 -27,26l0 -9c0,-38 -33,-68 -72,-68 -38,0 -69,30 -69,68l0 514c0,38 31,69 69,69 39,0 72,-31 72,-69l0 -248c7,-18 22,-68 53,-110 16,-25 35,-47 60,-63 22,-17 48,-25 78,-25 39,0 69,-33 69,-69 0,-38 -30,-68 -69,-68z"/>
   <path class="fil6" d="M2772 1028c93,0 169,-27 233,-86 30,-27 17,-67 0,-85 -17,-21 -70,-25 -98,4 -33,25 -89,37 -136,33 -46,-4 -98,-27 -125,-59 -23,-22 -38,-56 -44,-86l415 0c37,0 64,-21 68,-52 1,-3 1,-9 1,-12 0,0 0,0 0,0 0,0 0,0 0,0 0,-3 0,-5 0,-7 -10,-176 -145,-302 -314,-302 -179,0 -317,149 -318,326 1,177 140,325 318,326zm0 -528c113,9 180,86 193,138l-369 0c10,-53 65,-133 176,-138z"/>
   <path class="fil6" d="M3748 703c0,0 0,0 0,0 0,-1 0,-1 0,-1l0 -516c0,-38 -31,-70 -70,-70 -40,0 -72,33 -72,70l0 245c-48,-34 -111,-55 -175,-55 -176,0 -317,149 -317,327 0,176 141,325 317,325 65,0 128,-22 177,-56 7,31 34,56 69,56 39,0 70,-33 70,-70l0 -254zm-194 -132c33,33 52,80 52,132 0,50 -20,96 -52,129 -33,34 -74,53 -123,53 -47,0 -90,-20 -123,-53 -33,-33 -52,-80 -52,-129 0,-52 20,-99 52,-132 33,-34 76,-53 123,-53 48,0 90,20 123,53z"/>
   <path class="fil6" d="M3909 378c-39,0 -70,30 -70,72l0 508c0,39 31,70 70,70 40,0 70,-31 70,-70l0 -508c0,-42 -30,-72 -70,-72zm70 -192c0,-39 -30,-70 -70,-70 -39,0 -70,31 -70,70l0 27c0,39 31,72 70,72 40,0 70,-33 70,-72l0 -27z"/>
   <path class="fil6" d="M4073 938l0 0c52,42 130,89 232,90l0 0c64,0 123,-20 170,-52l0 0c47,-34 82,-87 82,-151l0 0c0,-30 -9,-60 -25,-86l0 0c-22,-37 -57,-61 -93,-77l0 0c-38,-18 -78,-30 -121,-38l-1 0 -1 -1 0 0c-44,-8 -78,-20 -95,-31l0 0c-9,-5 -13,-10 -14,-13l0 0c-3,-4 -3,-5 -3,-10l0 0c0,-7 4,-18 21,-30l0 0c17,-13 46,-23 78,-23l0 0c42,0 78,21 120,48l0 0c33,22 76,13 96,-18l0 0c20,-33 10,-76 -21,-96l0 0 0 0c-42,-29 -106,-72 -196,-72l0 0c-60,0 -115,17 -160,48l0 0c-43,33 -77,83 -77,143l0 0c0,30 8,59 22,82l0 0c23,35 55,59 90,76l0 0c34,16 73,26 113,34l1 0 0 0 0 0 0 0c47,9 86,23 104,37l0 0c10,7 16,12 17,16l0 0c3,4 4,7 4,13l0 0c0,10 -5,23 -23,39l0 0c-21,13 -53,25 -89,25l0 0c-51,1 -110,-29 -143,-57l0 0c-29,-25 -74,-21 -98,10l0 0c-23,29 -20,73 9,96z"/>
  </g>
 </g>
</svg>
