<?xml version="1.0" encoding="UTF-8"?>
<!DOCTYPE svg PUBLIC "-//W3C//DTD SVG 1.1//EN" "http://www.w3.org/Graphics/SVG/1.1/DTD/svg11.dtd">
<!-- Creator: CorelDRAW 2017 -->
<svg xmlns="http://www.w3.org/2000/svg" xml:space="preserve" width="30.069mm" height="30.069mm" version="1.1" style="shape-rendering:geometricPrecision; text-rendering:geometricPrecision; image-rendering:optimizeQuality; fill-rule:evenodd; clip-rule:evenodd"
viewBox="0 0 3007 3007"
 xmlns:xlink="http://www.w3.org/1999/xlink">
 <defs>
  <style type="text/css">
   <![CDATA[
    .fil0 {fill:#F1592A}
    .fil1 {fill:#F1592A;fill-rule:nonzero}
   ]]>
  </style>
 </defs>
 <g id="Слой_x0020_1">
  <metadata id="CorelCorpID_0Corel-Layer"/>
  <path class="fil0" d="M338 1063l214 0 0 94 -121 0 0 703 121 0 0 94 -214 0 0 -890zm2123 0l215 0 0 890 -215 0 0 -94 121 0 0 -703 -121 0 0 -94z"/>
  <path class="fil1" d="M1069 1509c0,33 -5,64 -17,93 -11,29 -27,53 -47,74 -20,21 -45,37 -73,49 -28,12 -60,18 -95,18 -35,0 -66,-6 -94,-18 -28,-12 -53,-28 -73,-49 -20,-21 -36,-46 -47,-74 -11,-29 -17,-59 -17,-93 0,-33 6,-64 17,-93 11,-29 27,-53 47,-74 20,-21 45,-37 73,-49 28,-12 60,-17 94,-17 23,0 45,3 65,8 20,5 39,13 56,23 17,10 32,22 46,36 14,14 25,30 35,47 9,17 17,36 22,56 5,20 7,41 7,64zm-87 0c0,-25 -3,-48 -10,-67 -7,-20 -16,-37 -29,-51 -12,-14 -27,-25 -45,-32 -18,-7 -38,-11 -60,-11 -22,0 -42,4 -60,11 -18,7 -33,18 -45,32 -13,14 -22,31 -29,51 -7,20 -10,42 -10,67 0,25 3,47 10,67 7,20 16,37 29,51 13,14 28,24 45,32 18,7 38,11 60,11 22,0 42,-4 60,-11 18,-7 33,-18 45,-32 12,-14 22,-31 29,-51 7,-20 10,-42 10,-67z"/>
  <path id="1" class="fil1" d="M1144 1737l0 -456 157 0c30,0 55,3 77,9 21,6 39,14 52,24 14,11 23,23 30,38 6,15 9,32 9,51 0,11 -2,21 -5,31 -3,10 -8,19 -15,27 -7,9 -15,16 -25,23 -10,7 -22,13 -37,18 63,14 94,48 94,102 0,19 -4,37 -11,54 -7,16 -18,31 -32,42 -14,12 -31,21 -52,28 -21,7 -44,10 -71,10l-172 0zm85 -200l0 134 86 0c16,0 29,-2 40,-6 11,-4 19,-9 26,-15 6,-6 11,-14 14,-22 3,-8 4,-17 4,-27 0,-10 -2,-19 -5,-27 -3,-8 -8,-15 -15,-20 -7,-6 -15,-10 -26,-13 -11,-3 -23,-4 -38,-4l-86 0zm0 -59l68 0c29,0 51,-5 66,-16 15,-11 22,-27 22,-50 0,-24 -7,-41 -20,-51 -13,-10 -35,-15 -63,-15l-72 0 0 132z"/>
  <path id="2" class="fil1" d="M1729 1575c0,26 -3,49 -9,69 -6,21 -16,38 -28,53 -13,15 -28,26 -47,33 -19,8 -41,12 -65,12 -11,0 -23,-1 -33,-2 -11,-1 -22,-3 -34,-6 1,-8 1,-17 2,-25 1,-8 2,-17 2,-25 1,-5 3,-8 6,-11 3,-3 7,-4 13,-4 4,0 8,1 14,2 6,1 13,2 22,2 12,0 23,-2 32,-5 9,-3 17,-9 23,-17 6,-8 11,-17 14,-30 3,-12 5,-27 5,-44l0 -296 85 0 0 294z"/>
  <polygon id="3" class="fil1" points="1811,1514 1975,1514 1975,1579 1811,1579 "/>
  <path id="4" class="fil1" d="M2375 1630c5,0 9,2 12,5l33 36c-19,23 -41,41 -68,53 -27,12 -60,18 -97,18 -34,0 -64,-6 -91,-17 -27,-12 -50,-28 -69,-48 -19,-21 -34,-45 -44,-74 -10,-29 -15,-60 -15,-94 0,-34 5,-66 16,-94 11,-29 26,-53 46,-74 20,-21 44,-37 71,-48 28,-11 58,-17 92,-17 33,0 63,5 89,16 26,11 48,25 66,43l-28 39c-2,3 -4,5 -6,7 -3,2 -6,3 -11,3 -3,0 -6,-1 -10,-3 -3,-2 -7,-4 -11,-7 -4,-3 -9,-5 -14,-9 -5,-3 -11,-6 -18,-9 -7,-3 -15,-5 -24,-7 -9,-2 -20,-3 -32,-3 -20,0 -39,4 -56,11 -17,7 -32,18 -44,32 -12,14 -22,31 -28,51 -7,20 -10,43 -10,68 0,26 4,49 11,68 7,20 17,37 29,51 12,14 27,24 44,31 17,7 35,11 54,11 12,0 22,-1 31,-2 9,-1 18,-3 26,-6 8,-3 15,-6 22,-11 7,-4 14,-10 21,-16 2,-2 4,-3 7,-5 2,-1 5,-2 7,-2z"/>
  <path class="fil0" d="M1503 0c830,0 1503,673 1503,1503 0,830 -673,1503 -1503,1503 -830,0 -1503,-673 -1503,-1503 0,-830 673,-1503 1503,-1503zm997 506c-255,-255 -608,-413 -997,-413 -389,0 -742,158 -997,413 -255,255 -413,608 -413,997 0,389 158,742 413,997 255,255 608,413 997,413 389,0 742,-158 997,-413 255,-255 413,-608 413,-997 0,-389 -158,-742 -413,-997z"/>
 </g>
</svg>
