<?xml version="1.0" encoding="UTF-8"?>
<!DOCTYPE svg PUBLIC "-//W3C//DTD SVG 1.1//EN" "http://www.w3.org/Graphics/SVG/1.1/DTD/svg11.dtd">
<!-- Creator: CorelDRAW 2017 -->
<svg xmlns="http://www.w3.org/2000/svg" xml:space="preserve" width="43.8536mm" height="40.9223mm" version="1.1" style="shape-rendering:geometricPrecision; text-rendering:geometricPrecision; image-rendering:optimizeQuality; fill-rule:evenodd; clip-rule:evenodd"
viewBox="0 0 4385 4092"
 xmlns:xlink="http://www.w3.org/1999/xlink">
 <defs>
  <style type="text/css">
   <![CDATA[
    .fil1 {fill:black;fill-rule:nonzero}
    .fil0 {fill:#97C03D;fill-rule:nonzero}
   ]]>
  </style>
 </defs>
 <g id="Слой_x0020_1">
  <metadata id="CorelCorpID_0Corel-Layer"/>
  <g id="_2171182955952">
   <path class="fil0" d="M3487 1123l0 742c0,50 -20,96 -53,128 -33,33 -78,53 -128,53 -100,0 -182,-81 -182,-182l0 -742c0,-50 20,-96 53,-128 33,-33 78,-53 128,-53 100,0 182,81 182,182z"/>
   <path class="fil0" d="M1929 512c0,-50 -41,-91 -91,-91 -50,0 -91,41 -91,91 0,50 41,91 91,91 50,0 91,-41 91,-91zm706 0c0,-50 -41,-91 -91,-91 -50,0 -91,41 -91,91 0,50 41,91 91,91 50,0 91,-41 91,-91zm59 -502c7,-10 21,-13 32,-6 10,7 13,21 6,32l-152 219c253,110 424,324 424,570l-1630 0c0,-247 173,-462 428,-572l-150 -217c-7,-10 -5,-25 6,-32 10,-7 25,-5 32,6l156 226c104,-39 220,-60 343,-60 124,0 242,22 348,62l157 -227z"/>
   <path class="fil0" d="M3004 942l0 1283c0,111 0,202 -202,202l-97 0 0 407c0,100 -81,182 -182,182 -100,0 -182,-81 -182,-182l0 -407 -299 0 0 407c0,100 -81,182 -182,182 -100,0 -182,-81 -182,-182l0 -407 -105 0c-202,0 -202,-90 -202,-202l0 -1283 1630 0z"/>
   <path class="fil0" d="M1261 1123l0 742c0,50 -20,96 -53,128 -33,33 -78,53 -128,53 -100,0 -182,-81 -182,-182l0 -742c0,-50 20,-96 53,-128 33,-33 78,-53 128,-53 100,0 182,81 182,182z"/>
   <path class="fil1" d="M274 3499c-153,11 -274,139 -274,295 0,163 132,296 296,296l111 0 0 -116 -111 0c-99,0 -180,-81 -180,-180 0,-92 69,-168 158,-178l242 0 0 474 113 0 0 -591 -355 0z"/>
   <path class="fil1" d="M1068 3483c-158,0 -287,129 -287,287l0 319 102 0 0 -319 0 0c9,-95 89,-169 186,-169 103,0 187,84 187,187l0 304 101 0 0 -322c0,-158 -129,-287 -287,-287z"/>
   <path class="fil1" d="M2056 3799c2,-158 -125,-289 -283,-291l-267 -2 -1 102 267 2 0 0c95,10 168,91 166,188 -1,103 -86,185 -189,184l-251 -2 -1 101 269 2c158,2 289,-125 291,-283z"/>
   <path class="fil1" d="M3134 3951c-97,0 -176,-79 -176,-176 0,-97 79,-176 176,-176 97,0 176,79 176,176 0,97 -79,176 -176,176zm0 -473c-164,0 -298,133 -298,298 0,164 133,298 298,298 164,0 298,-133 298,-298 0,-164 -133,-298 -298,-298z"/>
   <polygon class="fil1" points="3566,4082 3685,4082 3685,3505 3566,3505 "/>
   <path class="fil1" d="M4385 3793c2,-158 -125,-289 -283,-291l-267 -2 -1 102 267 2 0 0c95,10 168,91 166,188 -1,103 -86,185 -189,184l-251 -2 -1 101 269 2c158,2 289,-125 291,-283z"/>
   <path class="fil1" d="M2626 3893c60,-37 101,-104 101,-180 0,-117 -95,-212 -212,-212l-309 0 0 116 309 0c53,0 95,43 95,95 0,53 -43,95 -95,95l-309 0 0 118c0,0 257,0 294,0 37,0 72,66 72,108l0 51 116 0 0 -51c0,-56 -24,-106 -62,-141z"/>
  </g>
 </g>
</svg>
