<?xml version="1.0" encoding="UTF-8"?>
<!DOCTYPE svg PUBLIC "-//W3C//DTD SVG 1.1//EN" "http://www.w3.org/Graphics/SVG/1.1/DTD/svg11.dtd">
<!-- Creator: CorelDRAW 2017 -->
<svg xmlns="http://www.w3.org/2000/svg" xml:space="preserve" width="38.3547mm" height="13.364mm" version="1.1" style="shape-rendering:geometricPrecision; text-rendering:geometricPrecision; image-rendering:optimizeQuality; fill-rule:evenodd; clip-rule:evenodd"
viewBox="0 0 3835 1336"
 xmlns:xlink="http://www.w3.org/1999/xlink">
 <defs>
  <style type="text/css">
   <![CDATA[
    .fil0 {fill:#092E20}
   ]]>
  </style>
 </defs>
 <g id="Слой_x0020_1">
  <metadata id="CorelCorpID_0Corel-Layer"/>
  <g id="_2171096002064">
   <g>
    <path class="fil0" d="M456 0c68,0 136,0 204,0 0,322 0,645 0,967 -196,32 -383,52 -518,-23 -173,-97 -187,-404 -50,-540 69,-69 209,-118 359,-86 0,-101 0,-203 0,-304 0,-6 -1,-13 5,-14zm-245 654l0 0c-1,127 92,202 241,168 0,-112 0,-224 0,-336 -150,-46 -240,47 -241,168z"/>
    <path class="fil0" d="M991 0c0,71 0,142 0,213 -68,0 -136,0 -204,0 0,-71 0,-142 0,-213 68,0 136,0 204,0z"/>
    <path class="fil0" d="M3452 309c170,-18 298,57 350,173 87,197 -5,424 -145,490 -73,35 -149,38 -218,32 -213,-19 -347,-236 -272,-477 12,-38 25,-61 32,-73 46,-79 124,-131 254,-145zm-9 522l0 0c223,87 247,-399 23,-354 -140,28 -135,310 -23,354z"/>
    <path class="fil0" d="M1631 976c-169,10 -425,67 -518,-45 -54,-66 -48,-192 0,-254 63,-80 199,-97 322,-109 11,-28 4,-72 -9,-91 -113,-29 -225,16 -304,50 0,-53 0,-106 0,-159 120,-55 398,-113 481,14 44,67 27,183 27,286 0,107 0,210 0,309zm-359 -222l0 0c-57,95 85,118 177,91 0,-47 0,-94 0,-141 -70,10 -150,5 -177,50z"/>
    <path class="fil0" d="M2349 985c-68,0 -136,0 -204,0 0,-67 0,-165 0,-263 0,-87 14,-197 -32,-232 -36,-27 -121,-14 -173,0 0,165 0,330 0,495 -68,0 -136,0 -204,0 0,-210 0,-421 0,-631 209,-54 586,-112 613,150 13,129 -10,323 0,481z"/>
    <path class="fil0" d="M3166 336c-18,54 -45,100 -68,150 -21,5 -39,-8 -50,0 -5,221 47,521 -41,681 -53,96 -151,158 -300,168 -109,7 -193,-10 -272,-41 0,-64 0,-127 0,-191 93,54 329,99 395,-14 20,-33 18,-67 27,-118 -43,2 -84,22 -136,23 -214,3 -347,-168 -295,-404 20,-91 73,-165 145,-209 149,-91 378,-84 595,-45zm-513 431l0 0c34,56 127,76 204,41 -4,-106 -6,-215 -5,-327 -177,-47 -282,153 -200,286z"/>
    <path class="fil0" d="M991 321c0,150 0,259 0,441 -9,180 -7,323 -72,409 -13,17 -41,42 -64,59 -19,15 -56,44 -77,45 -21,1 -75,-29 -100,-41 -32,-15 -62,-35 -95,-45 78,-48 151,-84 182,-182 26,-85 23,-207 23,-327 0,-118 1,-255 1,-360l204 0z"/>
   </g>
  </g>
 </g>
</svg>
