<?xml version="1.0" encoding="UTF-8"?>
<!DOCTYPE svg PUBLIC "-//W3C//DTD SVG 1.1//EN" "http://www.w3.org/Graphics/SVG/1.1/DTD/svg11.dtd">
<!-- Creator: CorelDRAW 2017 -->
<svg xmlns="http://www.w3.org/2000/svg" xml:space="preserve" width="32.8592mm" height="17.0619mm" version="1.1" style="shape-rendering:geometricPrecision; text-rendering:geometricPrecision; image-rendering:optimizeQuality; fill-rule:evenodd; clip-rule:evenodd"
viewBox="0 0 3286 1706"
 xmlns:xlink="http://www.w3.org/1999/xlink">
 <defs>
  <style type="text/css">
   <![CDATA[
    .fil1 {fill:#C67F07}
    .fil0 {fill:#00546B}
   ]]>
  </style>
 </defs>
 <g id="Слой_x0020_1">
  <metadata id="CorelCorpID_0Corel-Layer"/>
  <g id="_2171182904720">
   <path class="fil0" d="M0 1554l108 0 0 -430 169 375c19,45 47,62 100,62 53,0 79,-17 99,-62l169 -375 0 430 109 0 0 -430c0,-42 -17,-62 -52,-73 -83,-25 -138,-3 -163,53l-166 370 -160 -370c-24,-56 -80,-78 -164,-53 -34,11 -51,31 -51,73l0 430z"/>
   <path class="fil0" d="M845 1205l109 0 0 236c-1,13 4,43 63,44 31,1 235,0 237,0l0 -282 109 0c0,0 0,385 0,386 0,95 -118,116 -173,117l-344 0 0 -73c1,0 344,0 345,0 70,-8 62,-43 62,-54l0 -28 -231 0c-108,-1 -177,-48 -178,-103 0,-5 3,-242 0,-244z"/>
   <path class="fil0" d="M3189 931c-67,-2 -118,5 -162,23 -13,5 -33,5 -34,21 7,7 8,18 13,27 10,17 28,39 43,51 18,13 35,27 53,38 33,20 69,32 101,52 18,12 37,27 55,39 9,7 15,18 27,22 0,-1 0,-2 0,-3 -6,-8 -8,-18 -13,-27 -8,-8 -17,-16 -25,-24 -24,-33 -54,-61 -87,-84 -27,-18 -85,-43 -96,-74 0,0 -1,-1 -2,-2 18,-2 40,-8 58,-13 28,-8 54,-6 83,-13 13,-3 27,-8 40,-12 0,-3 0,-5 0,-8 -15,-15 -26,-35 -42,-49 -43,-37 -89,-73 -138,-103 -26,-17 -59,-28 -87,-42 -10,-5 -27,-8 -33,-16 -15,-18 -23,-43 -34,-64 -24,-46 -48,-97 -68,-145 -15,-33 -24,-65 -43,-95 -86,-142 -179,-228 -323,-312 -31,-18 -68,-25 -107,-34 -21,-1 -42,-3 -63,-3 -13,-6 -27,-22 -38,-29 -48,-30 -170,-95 -205,-9 -23,54 33,108 53,135 14,19 33,41 43,63 6,14 8,29 13,44 13,37 26,78 43,112 9,18 19,36 31,52 7,9 18,13 21,28 -12,17 -13,42 -19,63 -30,94 -18,211 24,280 13,21 45,67 88,49 38,-15 29,-63 40,-104 3,-10 1,-17 6,-23 0,1 0,2 0,2 12,23 23,46 34,69 26,41 71,83 108,112 20,15 36,41 61,50 0,-1 0,-2 0,-3 -1,0 -1,0 -2,0 -5,-8 -13,-11 -19,-17 -15,-15 -32,-33 -43,-50 -35,-47 -66,-98 -93,-152 -13,-26 -25,-54 -36,-80 -5,-10 -5,-25 -13,-30 -13,18 -31,34 -40,57 -16,36 -18,80 -23,126 -3,1 -2,0 -3,2 -27,-7 -36,-34 -46,-58 -25,-59 -29,-154 -8,-223 6,-18 31,-73 21,-89 -5,-16 -22,-25 -31,-38 -11,-16 -23,-36 -30,-53 -20,-47 -30,-98 -52,-145 -10,-22 -28,-44 -42,-64 -16,-23 -33,-38 -46,-65 -4,-9 -10,-24 -3,-34 2,-7 5,-9 12,-11 11,-9 42,3 53,8 31,13 57,24 83,42 12,8 24,24 39,28 6,0 12,0 18,0 27,6 57,2 82,9 44,14 84,35 120,58 109,69 199,168 260,285 10,19 14,37 23,57 18,41 39,83 57,123 18,39 34,79 59,112 13,18 63,27 85,36 17,8 43,14 58,23 28,18 57,38 83,57 13,10 55,31 58,48z"/>
   <path class="fil0" d="M2338 206c-14,0 -24,2 -34,4 0,0 0,1 0,2 1,0 1,0 2,0 7,13 18,23 27,34 7,13 13,27 19,40 1,-1 2,-2 2,-2 12,-8 18,-22 18,-42 -5,-6 -6,-12 -10,-18 -5,-8 -16,-13 -23,-19z"/>
   <path class="fil1" d="M1447 1554l314 0c37,0 72,-8 100,-21 48,-22 70,-51 70,-89l0 -80c0,-31 -26,-60 -78,-80 -27,-10 -60,-16 -93,-16l-132 0c-44,0 -65,-13 -71,-43 -1,-3 -1,-7 -1,-10l0 -49c0,-3 0,-6 1,-9 6,-23 18,-28 56,-33 3,0 8,0 10,0l311 0 0 -73 -305 0c-44,0 -68,3 -88,9 -64,20 -93,52 -93,108l0 63c0,49 55,91 148,101 10,1 21,1 32,1l113 0c4,0 8,0 12,1 34,3 49,9 59,22 7,7 8,13 8,20l0 63c0,8 -5,18 -15,26 -10,8 -26,14 -47,15 -4,0 -7,1 -11,1l-301 0 0 73z"/>
   <path class="fil1" d="M2610 1428c0,74 56,116 168,124 11,1 21,2 32,2l284 0 0 -73 -286 0c-63,0 -88,-16 -88,-54l0 -375 -109 0 0 376z"/>
   <path class="fil1" d="M2000 1432l0 -259c0,-66 47,-106 138,-118 10,-1 20,-2 29,-2l207 0c11,0 20,1 31,2 91,13 137,53 137,118l0 259c0,53 -19,82 -64,101l107 97 -126 0 -87 -78 -88 5 -117 0c-19,0 -41,-3 -63,-8 -69,-19 -103,-56 -103,-116zm118 -6c0,3 2,7 3,11 6,30 34,47 78,47l98 0 -90 -82 126 0 79 72c15,-8 24,-20 28,-35 1,-3 1,-8 1,-11l0 -248c0,-3 0,-7 -1,-10 -6,-28 -34,-44 -77,-44l-164 0c-48,0 -80,21 -80,54l0 246z"/>
   <path class="fil1" d="M3143 1555l16 0 0 -61 21 0 0 -13 -58 0 0 13 22 0 0 61zm121 0l15 0 0 -73 -23 0 -18 50 -20 -50 -22 0 0 73 14 0 0 -56 1 0 21 56 11 0 21 -56 0 56z"/>
  </g>
 </g>
</svg>
