<?xml version="1.0" encoding="UTF-8"?>
<!DOCTYPE svg PUBLIC "-//W3C//DTD SVG 1.1//EN" "http://www.w3.org/Graphics/SVG/1.1/DTD/svg11.dtd">
<!-- Creator: CorelDRAW 2017 -->
<svg xmlns="http://www.w3.org/2000/svg" xml:space="preserve" width="18.9769mm" height="18.9769mm" version="1.1" style="shape-rendering:geometricPrecision; text-rendering:geometricPrecision; image-rendering:optimizeQuality; fill-rule:evenodd; clip-rule:evenodd"
viewBox="0 0 1898 1898"
 xmlns:xlink="http://www.w3.org/1999/xlink">
 <defs>
  <style type="text/css">
   <![CDATA[
    .fil0 {fill:#2C5BB4;fill-rule:nonzero}
   ]]>
  </style>
 </defs>
 <g id="Слой_x0020_1">
  <metadata id="CorelCorpID_0Corel-Layer"/>
  <path class="fil0" d="M949 0c524,0 949,425 949,949 0,524 -425,949 -949,949 -524,0 -949,-425 -949,-949 0,-524 425,-949 949,-949zm6 416c83,0 154,51 184,122l243 -81c0,-2 0,-3 0,-5 0,-34 27,-61 61,-61 22,0 41,11 51,28l112 -37c-159,-185 -395,-302 -657,-302 -149,0 -290,38 -412,104l287 281c35,-31 81,-50 132,-50zm193 150c4,16 6,32 6,49 0,69 -35,129 -87,165l222 387c11,-4 23,-6 35,-6 53,0 97,43 97,97 0,1 0,3 0,4l308 60c1,0 3,1 4,1 54,-113 84,-240 84,-374 0,-205 -71,-393 -190,-541l-123 41c0,2 0,3 0,5 0,34 -27,61 -61,61 -22,0 -41,-11 -51,-28l-244 81zm-107 228c-26,12 -55,20 -86,20 -38,0 -74,-11 -104,-30l-224 310c18,18 29,42 29,69 0,8 -1,16 -3,24l276 117c11,-15 29,-24 49,-24 23,0 44,13 54,33l196 -48c0,-3 0,-5 0,-8 0,-31 14,-58 36,-76l-222 -387zm-214 -27c-43,-37 -71,-91 -71,-152 0,-49 18,-94 47,-128l-290 -284c-1,-1 -2,-2 -2,-3 -256,151 -429,429 -429,748 0,51 4,101 13,150 1,0 3,0 4,0l367 40c11,-41 49,-72 93,-72 16,0 31,4 44,11l224 -310zm-186 447c-17,27 -48,46 -82,46 -4,0 -9,0 -13,-1l-59 202c18,11 30,30 30,53 0,28 -20,52 -46,59l0 90c0,3 -1,6 -3,8 138,92 303,145 481,145 197,0 378,-65 523,-176l-23 -53c-3,1 -7,1 -11,1 -34,0 -61,-27 -61,-61 0,-20 10,-38 25,-49l-55 -128c-8,2 -16,3 -24,3 -40,0 -75,-25 -89,-60l-196 48c0,33 -27,60 -61,60 -34,0 -61,-27 -61,-61 0,-3 0,-6 1,-9l-276 -117zm-123 37c-32,-15 -54,-46 -56,-83l-362 -40c45,215 169,400 341,524l0 -79c-27,-7 -46,-31 -46,-59 0,-34 27,-61 61,-61 1,0 2,0 2,0l59 -202zm897 39c-7,20 -22,38 -40,49l55 128c3,0 6,-1 9,-1 34,0 61,27 61,61 0,19 -9,37 -23,48l20 46c91,-74 167,-167 222,-272l-304 -60z"/>
 </g>
</svg>
