<?xml version="1.0" encoding="UTF-8"?>
<!DOCTYPE svg PUBLIC "-//W3C//DTD SVG 1.1//EN" "http://www.w3.org/Graphics/SVG/1.1/DTD/svg11.dtd">
<!-- Creator: CorelDRAW 2017 -->
<svg xmlns="http://www.w3.org/2000/svg" xml:space="preserve" width="72.6673mm" height="13.3641mm" version="1.1" style="shape-rendering:geometricPrecision; text-rendering:geometricPrecision; image-rendering:optimizeQuality; fill-rule:evenodd; clip-rule:evenodd"
viewBox="0 0 7267 1336"
 xmlns:xlink="http://www.w3.org/1999/xlink">
 <defs>
  <style type="text/css">
   <![CDATA[
    .fil0 {fill:#424242}
    .fil1 {fill:#D71F00}
   ]]>
  </style>
 </defs>
 <g id="Слой_x0020_1">
  <metadata id="CorelCorpID_0Corel-Layer"/>
  <g id="_2171032182112">
   <path class="fil0" d="M210 708c116,-3 87,-39 201,-116 102,-69 168,-27 195,74 52,196 -212,169 -324,119 -68,-30 -64,-33 -110,-81 -33,75 -70,126 -113,194 103,14 321,52 419,48 296,-11 400,-485 114,-514 -151,-16 -169,87 -260,143 -53,33 -71,22 -110,-28 -92,-120 -62,-222 72,-258 71,-19 161,-18 247,30 32,17 97,104 135,51 40,-56 102,-164 86,-224 -4,-15 -17,-45 -27,-17 -12,32 -39,79 -72,75 -105,-12 -119,-78 -271,-56 -212,32 -566,315 -297,519 15,11 73,43 113,42z"/>
   <path class="fil1" d="M4563 640c25,-87 131,-216 188,-93 26,55 13,139 13,265 0,61 -36,66 -58,87 -9,8 -10,28 -15,46l302 0c-5,-18 -16,-44 -32,-62 -13,-15 -26,-19 -38,-29 0,-72 -4,-141 -2,-203 3,-100 -4,-184 -63,-242 -135,-134 -228,72 -296,90l0 141z"/>
   <path class="fil0" d="M1590 519c0,433 -442,291 -526,13 -107,-351 526,-381 526,-13zm-713 0c0,254 306,413 399,414 280,1 470,-211 471,-499 0,-540 -870,-278 -870,86z"/>
   <path class="fil0" d="M1305 990c-157,0 -269,276 -163,172 149,-147 284,19 599,136 82,31 160,64 237,-3 43,-37 97,-167 55,-229 -77,112 -18,243 -322,86 -62,-27 -362,-163 -407,-163z"/>
   <path class="fil0" d="M1833 222c18,1 78,-11 99,40 16,44 20,327 11,482 -5,86 -1,132 -100,147l0 46 651 0 17 -228c5,-54 7,-47 -19,-37 -82,184 -84,180 -291,180 -62,0 -83,-59 -83,-115 0,-143 -8,-363 9,-458 4,-21 27,-32 41,-39 62,-35 65,3 65,-87l-399 0c0,2 0,58 0,69z"/>
   <path class="fil1" d="M2858 610l110 -235 106 234 -215 0zm0 326c-1,-29 0,-33 0,-53 -53,-2 -103,-14 -93,-72 10,-55 37,-85 61,-125l284 -1c26,37 59,84 76,137 22,71 -59,61 -92,62 -1,7 0,25 -1,53l366 0c-16,-79 -21,-49 -66,-97 -41,-43 -79,-130 -121,-220 -78,-170 -184,-379 -229,-463l-62 0c-26,36 -293,618 -334,692 -31,40 -47,35 -63,42l-2 46 276 -1z"/>
   <path class="fil1" d="M3533 126c19,41 24,142 25,257 1,156 -6,338 -6,425 0,36 -21,56 -46,74 -24,17 -28,20 -26,54l295 0c0,-22 -1,-35 -5,-43 -12,-32 -54,-16 -55,-67l-1 -690c0,-33 53,-94 71,-137 -65,9 -211,96 -252,126z"/>
   <path class="fil1" d="M4298 792c-4,0 -305,164 -289,-189 3,-72 17,-132 50,-138 47,-8 62,45 89,80 51,66 160,17 165,-25 6,-55 -35,-89 -78,-118 -48,-33 -119,-55 -206,-3 -199,118 -246,471 -22,547 121,41 263,-68 290,-154z"/>
   <path class="fil1" d="M5494 786c-4,0 -255,136 -286,-108 45,-21 296,-121 301,-164 6,-55 -35,-89 -78,-118 -48,-33 -119,-55 -206,-3 -199,118 -246,471 -22,547 121,41 263,-68 290,-154zm-289 -174c0,-5 0,-10 1,-15 3,-72 17,-132 50,-138 47,-8 86,37 113,72 1,1 -150,75 -164,82z"/>
   <path class="fil1" d="M4380 135c19,41 24,142 25,257 1,156 -6,338 -6,425 0,36 -21,56 -46,74 -24,17 -28,20 -26,54l295 0c0,-22 -1,-35 -5,-43 -12,-32 -54,-16 -55,-67l5 -690c0,-33 65,-103 83,-146 -65,9 -229,105 -270,135z"/>
   <path class="fil1" d="M6122 463c-50,-88 -102,-155 -241,-36 -59,50 -38,30 -99,83l-6 -142c-60,7 -138,50 -179,73 58,119 57,384 21,434 -19,28 -33,26 -42,27 0,4 0,13 0,43l278 0c1,-24 1,-39 -4,-46 -22,-36 -63,-14 -63,-137 0,-283 216,-426 216,-41 0,37 5,105 -7,130 -17,34 -52,41 -70,43 0,8 0,25 -1,49l304 0c-1,-24 0,-40 -7,-48 -34,-36 -64,36 -64,-224 0,-120 165,-268 204,-111 11,43 14,305 -13,313 -18,5 -37,15 -45,22 -11,10 -9,25 -9,48l309 0c0,-33 -1,-47 -10,-56 -26,-17 -65,-10 -65,-189 0,-103 9,-195 -36,-261 -33,-49 -97,-102 -171,-66 -45,22 -77,54 -109,85 -45,43 -57,63 -91,4z"/>
   <path class="fil1" d="M6828 457c0,-55 58,-41 68,-96 4,-26 -1,-22 -25,-14 -71,24 -163,60 -216,100 -28,22 -23,24 -9,58 49,126 218,372 215,417 -42,124 -242,139 -254,375 -1,22 5,18 18,12 44,-21 32,-51 93,-81 42,-21 143,-34 246,-37 46,-1 100,-4 136,2 26,4 60,6 54,34 -6,29 -65,98 -32,108 22,7 130,-157 133,-171 6,-26 3,-75 -25,-85 -96,-35 -274,-12 -400,-16 55,-62 480,-342 434,-533 -11,-47 -46,-95 -83,-124 -38,-31 -64,-48 -111,-30 -29,11 -57,27 -76,48 -27,28 -19,38 10,64 38,34 88,46 113,119 14,87 -55,171 -114,198 -21,-54 -175,-306 -175,-349z"/>
  </g>
 </g>
</svg>
