<?xml version="1.0" encoding="UTF-8"?>
<!DOCTYPE svg PUBLIC "-//W3C//DTD SVG 1.1//EN" "http://www.w3.org/Graphics/SVG/1.1/DTD/svg11.dtd">
<!-- Creator: CorelDRAW 2017 -->
<svg xmlns="http://www.w3.org/2000/svg" xml:space="preserve" width="49.4507mm" height="49.4508mm" version="1.1" style="shape-rendering:geometricPrecision; text-rendering:geometricPrecision; image-rendering:optimizeQuality; fill-rule:evenodd; clip-rule:evenodd"
viewBox="0 0 4945 4945"
 xmlns:xlink="http://www.w3.org/1999/xlink">
 <defs>
  <style type="text/css">
   <![CDATA[
    .fil0 {fill:#3BFFFF;fill-rule:nonzero}
   ]]>
  </style>
 </defs>
 <g id="Слой_x0020_1">
  <metadata id="CorelCorpID_0Corel-Layer"/>
  <path class="fil0" d="M1075 1444c-153,44 -266,185 -266,353 0,203 164,367 367,367l986 0 49 0 1581 0c64,0 121,26 163,68 42,42 68,99 68,163 0,64 -26,121 -68,163 -42,42 -99,68 -163,68l-75 0 0 -163c0,-55 -45,-100 -100,-100l-2346 0c-55,0 -100,45 -100,100l0 1128c0,55 45,100 100,100l2346 0c55,0 100,-45 100,-100l-57 0 -57 0 14 0 0 -14c-8,0 -13,6 -14,14l14 0 0 -14 -2346 0 0 14 14 0c0,-8 -6,-14 -14,-14l0 14 14 0 0 -1128 -14 0 0 14c8,0 13,-6 14,-14l-14 0 0 14 2346 0 0 -14 -14 0c0,7 6,13 14,14l0 -14 -14 0 0 1128 114 0 0 -851 75 0c190,0 344,-154 344,-345 0,-190 -154,-344 -344,-344l-1581 0 -49 0 -986 0c-70,0 -133,-28 -179,-74 -46,-46 -74,-109 -74,-179 0,-70 28,-133 74,-179 22,-22 49,-40 78,-53l0 50c0,20 6,40 19,57 6,8 15,16 25,22 11,6 24,9 37,9l0 -114 0 38 18 -33c-5,-3 -11,-5 -18,-5l0 38 18 -33 -15 26 27 -14c-2,-3 -5,-8 -13,-12l-15 26 27 -14 -16 8 18 0c0,-2 0,-5 -2,-8l-16 8 18 0 0 -223 0 0 -21 0 16 12c4,-6 5,-9 5,-12l-21 0 16 12 -26 -20 16 28c5,-3 8,-6 10,-9l-26 -20 16 28 -18 -33 0 38c7,0 13,-2 18,-5l-18 -33 0 38 145 0 0 172 -145 0 0 57 0 57 145 0 114 0 1921 0 0 -7 491 -193 -491 -193 0 -7 -402 0 0 114 288 0 0 172 -1807 0 0 -172 1519 0 0 -57 0 -57 -1519 0 -114 0 -145 0c-13,0 -26,4 -37,9 -16,9 -27,22 -34,35 -7,14 -10,28 -10,44l0 0 0 53zm1398 3501c-682,0 -1300,-277 -1748,-725 -448,-448 -725,-1066 -725,-1748 0,-682 277,-1300 725,-1748 448,-448 1066,-725 1748,-725 682,0 1300,277 1748,725 448,448 725,1066 725,1748 0,682 -277,1300 -725,1748 -448,448 -1066,725 -1748,725zm-1679 -794c430,430 1024,697 1679,697 655,0 1249,-266 1679,-697 430,-430 697,-1024 697,-1679 0,-655 -266,-1249 -697,-1679 -430,-430 -1024,-697 -1679,-697 -655,0 -1249,266 -1679,697 -430,430 -697,1024 -697,1679 0,655 266,1249 697,1679zm2541 -2578l0 -141 180 71 -180 71zm-42 1869l186 0 0 -114 -186 0 0 114zm-269 0l186 0 0 -114 -186 0 0 114zm-1076 0l996 0 0 -114 -996 0 0 114zm-269 0l186 0 0 -114 -186 0 0 114zm-269 0l186 0 0 -114 -186 0 0 114zm1884 -249l186 0 0 -114 -186 0 0 114zm-269 0l186 0 0 -114 -186 0 0 114zm-269 0l186 0 0 -114 -186 0 0 114zm-269 0l186 0 0 -114 -186 0 0 114zm-269 0l186 0 0 -114 -186 0 0 114zm-269 0l186 0 0 -114 -186 0 0 114zm-269 0l186 0 0 -114 -186 0 0 114zm-269 0l186 0 0 -114 -186 0 0 114zm1884 -249l186 0 0 -114 -186 0 0 114zm-269 0l186 0 0 -114 -186 0 0 114zm-269 0l186 0 0 -114 -186 0 0 114zm-269 0l186 0 0 -114 -186 0 0 114zm-269 0l186 0 0 -114 -186 0 0 114zm-269 0l186 0 0 -114 -186 0 0 114zm-269 0l186 0 0 -114 -186 0 0 114zm-269 0l186 0 0 -114 -186 0 0 114zm1884 -249l186 0 0 -114 -186 0 0 114zm-269 0l186 0 0 -114 -186 0 0 114zm-269 0l186 0 0 -114 -186 0 0 114zm-269 0l186 0 0 -114 -186 0 0 114zm-269 0l186 0 0 -114 -186 0 0 114zm-269 0l186 0 0 -114 -186 0 0 114zm-269 0l186 0 0 -114 -186 0 0 114zm-269 0l186 0 0 -114 -186 0 0 114z"/>
 </g>
</svg>
