<?xml version="1.0" encoding="UTF-8"?>
<!DOCTYPE svg PUBLIC "-//W3C//DTD SVG 1.1//EN" "http://www.w3.org/Graphics/SVG/1.1/DTD/svg11.dtd">
<!-- Creator: CorelDRAW 2017 -->
<svg xmlns="http://www.w3.org/2000/svg" xml:space="preserve" width="49.4507mm" height="49.4508mm" version="1.1" style="shape-rendering:geometricPrecision; text-rendering:geometricPrecision; image-rendering:optimizeQuality; fill-rule:evenodd; clip-rule:evenodd"
viewBox="0 0 4945 4945"
 xmlns:xlink="http://www.w3.org/1999/xlink">
 <defs>
  <style type="text/css">
   <![CDATA[
    .fil0 {fill:#3BFFFF;fill-rule:nonzero}
   ]]>
  </style>
 </defs>
 <g id="Слой_x0020_1">
  <metadata id="CorelCorpID_0Corel-Layer"/>
  <path class="fil0" d="M2815 2935l-62 530 -36 0 0 404 57 0 0 -57 57 0 0 -227 826 0 0 170 -883 0 0 57 57 0 -57 0 0 57 997 0 0 -404 -50 0 -213 -530 112 0 0 -817 -266 -236 -204 0 0 -108 34 0 0 -481 -34 0 0 -217 -521 0 0 217 -94 0 0 481 57 0 0 -57 57 0 0 -310 422 0 0 253 -479 0 0 57 57 0 -57 0 0 57 94 0 0 140 0 0 0 166 -167 0 0 -170 -114 0 0 170 -151 0 0 -168 0 -30 0 -108 151 0 0 -57 -57 0 0 -57 -479 0 0 -253 422 0 0 310 57 0 0 -57 0 57 57 0 0 -424 -94 0 0 -217 -521 0 0 217 -34 0 0 481 34 0 0 108 -204 0 -266 236 0 817 113 0 -213 530 -50 0 0 404 1054 0 0 -57 -57 0 0 -57 -883 0 0 -170 826 0 0 227 57 0 0 -57 0 57 57 0 0 -347 -36 0 -62 -530 127 0 0 -57 -57 0 0 -57 -764 0 0 -217 110 0 0 -114 -110 0 0 -100 110 0 0 -114 -110 0 0 -109 196 -174 511 0 0 84 -156 0 0 114 156 0 0 299 -156 0 0 114 156 0 0 274 57 0 0 -57 0 57 57 0 0 -274 151 0 0 128 114 0 0 -128 167 0 0 330 57 0 0 -57 57 0 0 -274 156 0 0 -114 -156 0 0 -299 156 0 0 -114 -156 0 0 -84 511 0 196 174 0 109 -110 0 0 114 110 0 0 100 -110 0 0 114 110 0 0 217 -764 0 0 57 57 0 -57 0 0 57 70 0zm-343 2010c-682,0 -1300,-277 -1748,-725 -448,-448 -725,-1066 -725,-1748 0,-682 277,-1300 725,-1748 448,-448 1066,-725 1748,-725 682,0 1300,277 1748,725 448,448 725,1066 725,1748 0,682 -277,1300 -725,1748 -448,448 -1066,725 -1748,725zm-1679 -794c430,430 1024,697 1679,697 655,0 1249,-266 1679,-697 430,-430 697,-1024 697,-1679 0,-655 -266,-1249 -697,-1679 -430,-430 -1024,-697 -1679,-697 -655,0 -1249,266 -1679,697 -430,430 -697,1024 -697,1679 0,655 266,1249 697,1679zm1728 -1661l0 -299 167 0 0 299 -167 0zm866 444l213 530 -732 0 62 -530 458 0zm-349 -1054l-237 0 0 -108 237 0 0 108zm0 -589l-294 0 0 -103 294 0 0 103zm-631 1199l-151 0 0 -299 151 0 0 299zm-265 -610l-237 0 0 -108 237 0 0 108zm-585 1054l458 0 62 530 -732 0 213 -530zm642 -1643l-294 0 0 -103 294 0 0 103z"/>
 </g>
</svg>
