<?xml version="1.0" encoding="UTF-8"?>
<!DOCTYPE svg PUBLIC "-//W3C//DTD SVG 1.1//EN" "http://www.w3.org/Graphics/SVG/1.1/DTD/svg11.dtd">
<!-- Creator: CorelDRAW 2017 -->
<svg xmlns="http://www.w3.org/2000/svg" xml:space="preserve" width="48.6474mm" height="48.6474mm" version="1.1" style="shape-rendering:geometricPrecision; text-rendering:geometricPrecision; image-rendering:optimizeQuality; fill-rule:evenodd; clip-rule:evenodd"
viewBox="0 0 4865 4865"
 xmlns:xlink="http://www.w3.org/1999/xlink">
 <defs>
  <style type="text/css">
   <![CDATA[
    .fil0 {fill:#3BFFFF;fill-rule:nonzero}
   ]]>
  </style>
 </defs>
 <g id="Слой_x0020_1">
  <metadata id="CorelCorpID_0Corel-Layer"/>
  <path class="fil0" d="M2869 3145c3,-21 7,-42 12,-63 10,-38 24,-72 42,-96l-46 -34 45 35c155,-199 237,-394 281,-543 22,-74 34,-137 41,-184 3,-23 5,-42 7,-57 1,-15 2,-24 2,-30 0,-470 -381,-851 -851,-851 -470,0 -851,381 -851,851 0,6 0,15 2,30 8,100 58,434 328,783l45 -35 -46 34c18,23 32,58 41,95 5,21 9,42 12,63l-48 0 0 114 63 0 0 87 -63 0 0 114 63 0 0 86 -63 0 0 114 1033 0 0 -114 -856 0 0 -86 856 0 0 -114 -856 0 0 -87 856 0 0 -114 -49 0zm-437 1720c-671,0 -1279,-273 -1719,-713 -440,-440 -713,-1049 -713,-1719 0,-671 273,-1279 713,-1719 440,-440 1049,-713 1719,-713 671,0 1279,273 1719,713 440,440 713,1049 713,1719 0,671 -273,1279 -713,1719 -440,440 -1049,713 -1719,713zm-1651 -782c423,423 1007,685 1651,685 644,0 1228,-262 1651,-685 423,-423 685,-1007 685,-1651 0,-644 -262,-1228 -685,-1651 -423,-423 -1007,-685 -1651,-685 -644,0 -1228,262 -1651,685 -423,423 -685,1007 -685,1651 0,644 262,1228 685,1651zm1621 -2139l-53 26 97 197 99 14 -72 70 17 98 -88 -47 -88 47 17 -99 -72 -70 99 -14 97 -197 -53 -26 -53 26 53 -26 -53 -26 -70 141 -275 40 199 194 -27 155 -20 118 246 -129 246 129 -47 -274 199 -194 -275 -40 -123 -249 -53 107 53 26zm575 244l-57 0c0,143 -58,272 -152,366 -94,94 -223,152 -366,152 -143,0 -272,-58 -366,-152 -94,-94 -152,-223 -152,-366 0,-143 58,-272 152,-366 94,-94 223,-152 366,-152 143,0 272,58 366,152 94,94 152,223 152,366l114 0c0,-349 -283,-632 -632,-632 -349,0 -632,283 -632,632 0,349 283,632 632,632 349,0 632,-283 632,-632l-57 0zm-347 -1090l-41 152 110 29 41 -152 -110 -29zm269 95l-79 136 99 57 79 -136 -99 -57zm235 162l-111 111 81 81 111 -111 -81 -81zm186 217l-136 79 57 99 136 -79 -57 -99zm123 258l-152 41 30 110 152 -41 -30 -110zm-105 395l157 0 0 -114 -157 0 0 114zm135 171l-152 -41 -30 110 152 41 30 -110zm-95 269l-136 -79 -57 99 136 79 57 -99zm-1893 99l136 -79 -57 -99 -136 79 57 99zm-123 -258l152 -41 -30 -110 -152 41 30 110zm-52 -281l157 0 0 -114 -157 0 0 114zm22 -285l152 41 30 -110 -152 -41 -30 110zm95 -269l136 79 57 -99 -136 -79 -57 99zm162 -235l111 111 81 -81 -111 -111 -81 81zm217 -186l79 136 99 -57 -79 -136 -99 57zm258 -123l41 152 110 -30 -41 -152 -110 30zm281 105l114 0 0 -157 -114 0 0 157zm-319 2627l752 0 0 -114 -752 0 0 114zm23 -716c-3,-29 -9,-60 -16,-91 -12,-47 -30,-95 -61,-136l0 0 0 0c-145,-186 -221,-367 -262,-505 -20,-69 -31,-126 -37,-168 -3,-21 -5,-38 -6,-50 -1,-12 -1,-20 -1,-20 0,-204 82,-388 216,-521 134,-133 317,-216 521,-216 204,0 388,82 521,216 133,133 216,317 216,521 0,0 0,8 -1,20 -7,85 -52,397 -305,723l-1 1 0 0c-31,41 -49,88 -61,136 -8,31 -13,62 -17,92l53 0 0 -9 -811 0 0 9 53 0z"/>
 </g>
</svg>
