<?xml version="1.0" encoding="UTF-8"?>
<!DOCTYPE svg PUBLIC "-//W3C//DTD SVG 1.1//EN" "http://www.w3.org/Graphics/SVG/1.1/DTD/svg11.dtd">
<!-- Creator: CorelDRAW 2017 -->
<svg xmlns="http://www.w3.org/2000/svg" xml:space="preserve" width="180.622mm" height="180.622mm" version="1.1" style="shape-rendering:geometricPrecision; text-rendering:geometricPrecision; image-rendering:optimizeQuality; fill-rule:evenodd; clip-rule:evenodd"
viewBox="0 0 18062 18062"
 xmlns:xlink="http://www.w3.org/1999/xlink">
 <defs>
  <style type="text/css">
   <![CDATA[
    .fil0 {fill:#3BFFFF;fill-rule:nonzero}
   ]]>
  </style>
 </defs>
 <g id="Слой_x0020_1">
  <metadata id="CorelCorpID_0Corel-Layer"/>
  <path class="fil0" d="M7890 9657l0 -1455c0,-7 3,-12 7,-17 5,-4 10,-7 17,-7l2234 0c13,0 24,11 24,24l0 1455 -94 0 0 -1391 -2092 0 0 1391 -94 0zm1141 1847c-682,0 -1300,-277 -1748,-725 -448,-448 -725,-1066 -725,-1748 0,-682 277,-1300 725,-1748 448,-448 1066,-725 1748,-725 682,0 1300,277 1748,725 448,448 725,1066 725,1748 0,682 -277,1300 -725,1748 -448,448 -1066,725 -1748,725zm-1679 -794c430,430 1024,697 1679,697 655,0 1249,-266 1679,-697 430,-430 697,-1024 697,-1679 0,-655 -266,-1249 -697,-1679 -430,-430 -1024,-697 -1679,-697 -655,0 -1249,266 -1679,697 -430,430 -697,1024 -697,1679 0,655 266,1249 697,1679zm853 -1173l108 0 0 -116 -108 0 0 116zm0 -234l108 0 0 -116 -108 0 0 116zm0 -234l108 0 0 -116 -108 0 0 116zm0 -234l108 0 0 -116 -108 0 0 116zm0 -234l108 0 0 -116 -108 0 0 116zm219 234l1047 0 0 -116 -1047 0 0 116zm1240 -234l122 0 0 -116 -122 0 0 116zm-840 702l659 0 0 -116 -659 0 0 116zm-201 0l99 0 0 -116 -99 0 0 116zm1044 -234l158 0 0 -116 -158 0 0 116zm-844 468l647 0 0 -116 -647 0 0 116zm774 0l228 0 0 -116 -228 0 0 116zm-774 -468l183 0 0 -116 -183 0 0 116zm295 0l434 0 0 -116 -434 0 0 116zm-608 0l212 0 0 -116 -212 0 0 116zm277 -468l122 0 0 -116 -122 0 0 116zm235 0l531 0 0 -116 -531 0 0 116zm-598 0l260 0 0 -116 -260 0 0 116zm1864 1056l0 -1455c0,-77 -63,-140 -140,-140l-2234 0c-77,0 -140,63 -140,140l0 1455 -357 0 0 58 58 0 0 58 3054 0 0 89 58 0 -35 -47 17 23 -17 -23 0 0 17 23 -17 -23c0,0 -26,19 -58,36 -16,9 -34,17 -51,24 -17,6 -33,9 -42,9l-2739 0c-10,0 -26,-3 -43,-9 -26,-9 -54,-24 -75,-37 -10,-6 -19,-12 -25,-16 -3,-2 -5,-4 -7,-5l-2 -1 0 0 -4 6 4 -6 0 0 -4 6 4 -6 -35 47 58 0 0 -147 -58 0 0 58 0 -58 -58 0 0 176 23 17c1,1 30,22 71,45 20,11 44,22 69,31 25,9 52,16 82,16l2739 0c30,0 57,-7 82,-16 38,-14 72,-32 97,-48 25,-15 42,-28 43,-28l23 -17 0 -234 -357 0zm-327 0l-1860 0 0 -1275 1860 0 0 1275z"/>
 </g>
</svg>
