<?xml version="1.0" encoding="UTF-8"?>
<!DOCTYPE svg PUBLIC "-//W3C//DTD SVG 1.1//EN" "http://www.w3.org/Graphics/SVG/1.1/DTD/svg11.dtd">
<!-- Creator: CorelDRAW 2017 -->
<svg xmlns="http://www.w3.org/2000/svg" xml:space="preserve" width="180.622mm" height="180.622mm" version="1.1" style="shape-rendering:geometricPrecision; text-rendering:geometricPrecision; image-rendering:optimizeQuality; fill-rule:evenodd; clip-rule:evenodd"
viewBox="0 0 18062 18062"
 xmlns:xlink="http://www.w3.org/1999/xlink">
 <defs>
  <style type="text/css">
   <![CDATA[
    .fil0 {fill:#3BFFFF;fill-rule:nonzero}
   ]]>
  </style>
 </defs>
 <g id="Слой_x0020_1">
  <metadata id="CorelCorpID_0Corel-Layer"/>
  <path class="fil0" d="M10046 8470c29,77 47,159 54,244 -13,-3 -27,-5 -41,-5l-114 0c-88,0 -159,71 -159,159l57 0 57 0c0,-25 20,-45 45,-45l114 0c21,0 38,14 44,33l0 816 2 0 0 129c0,25 -20,45 -45,45l-114 0c-25,0 -45,-20 -45,-45l0 -932 -114 0 0 932c0,88 71,159 159,159l114 0c60,0 112,-33 139,-81 161,-37 281,-180 281,-352l0 -377c0,-165 -111,-305 -263,-348l0 -17c0,-128 -24,-251 -68,-364 35,-34 53,-81 53,-128 0,-32 -8,-64 -26,-93 -206,-342 -569,-546 -968,-546l-362 0c-399,0 -761,205 -968,546l0 0c-17,29 -26,61 -26,93 0,47 19,94 53,128 -44,113 -68,236 -68,364l0 14c-147,46 -254,183 -254,345l0 377c0,170 118,313 276,351 14,57 34,109 60,156 40,73 94,134 157,184 96,75 213,124 344,154 99,23 206,36 318,41 9,2 19,3 29,3l214 0c84,0 151,-68 151,-151l-57 0 -57 0c0,21 -17,38 -38,38l-136 0 0 -1c-31,0 -61,-1 -91,-2 -14,-5 -25,-19 -25,-35 0,-21 17,-38 38,-38l214 0c21,0 38,17 38,38l114 0c0,-84 -68,-151 -151,-151l-214 0c-84,0 -151,68 -151,151 0,9 1,17 2,26 -46,-5 -90,-12 -132,-20 -164,-32 -298,-92 -389,-185 -34,-34 -62,-73 -85,-118l106 0c88,0 159,-71 159,-159l-57 0 -57 0c0,25 -20,45 -45,45l-114 0c-16,0 -30,-8 -38,-20 -3,-14 -6,-29 -8,-44l0 -913c0,-25 20,-45 45,-45l114 0c25,0 45,20 45,45l0 932 114 0 0 -932c0,-88 -71,-159 -159,-159l-114 0c-18,0 -34,3 -50,8 6,-86 25,-169 54,-247 8,1 15,2 23,2 60,0 120,-31 153,-87l0 0c142,-234 388,-373 661,-373l362 0c273,0 519,139 661,373 34,56 93,87 153,87l0 -57 0 0 0 57c8,0 15,0 23,-2zm-1014 3034c-682,0 -1300,-277 -1748,-725 -448,-448 -725,-1066 -725,-1748 0,-682 277,-1300 725,-1748 448,-448 1066,-725 1748,-725 682,0 1300,277 1748,725 448,448 725,1066 725,1748 0,682 -277,1300 -725,1748 -448,448 -1066,725 -1748,725zm-1679 -794c430,430 1024,697 1679,697 655,0 1249,-266 1679,-697 430,-430 697,-1024 697,-1679 0,-655 -266,-1249 -697,-1679 -430,-430 -1024,-697 -1679,-697 -655,0 -1249,266 -1679,697 -430,430 -697,1024 -697,1679 0,655 266,1249 697,1679zm2865 -1787c28,12 53,30 75,51 45,45 72,107 72,175l0 377c0,69 -28,130 -72,175 -21,21 -47,39 -75,51l0 -830zm-2380 -3l0 752c0,25 1,49 3,72 -26,-12 -50,-29 -70,-49 -45,-45 -72,-106 -73,-175l0 -377c0,-69 28,-130 73,-175 20,-20 42,-36 67,-48zm2185 -524l0 -38c-22,0 -44,-11 -56,-32 -162,-268 -446,-428 -759,-428l-362 0c-312,0 -597,161 -759,428l0 0c-12,20 -34,31 -56,32 -12,0 -23,-3 -34,-9l0 0c-20,-12 -32,-34 -32,-56 0,-12 3,-23 9,-34l3 -5 -3 5c187,-308 511,-491 871,-491l362 0c360,0 684,183 871,491 6,11 9,22 9,34 0,22 -11,44 -32,56l0 0c-11,6 -22,9 -34,9l0 38z"/>
 </g>
</svg>
