<?xml version="1.0" encoding="UTF-8"?>
<!DOCTYPE svg PUBLIC "-//W3C//DTD SVG 1.1//EN" "http://www.w3.org/Graphics/SVG/1.1/DTD/svg11.dtd">
<!-- Creator: CorelDRAW 2017 -->
<svg xmlns="http://www.w3.org/2000/svg" xml:space="preserve" width="49.4507mm" height="49.4508mm" version="1.1" style="shape-rendering:geometricPrecision; text-rendering:geometricPrecision; image-rendering:optimizeQuality; fill-rule:evenodd; clip-rule:evenodd"
viewBox="0 0 4945 4945"
 xmlns:xlink="http://www.w3.org/1999/xlink">
 <defs>
  <style type="text/css">
   <![CDATA[
    .fil0 {fill:#3BFFFF;fill-rule:nonzero}
   ]]>
  </style>
 </defs>
 <g id="Слой_x0020_1">
  <metadata id="CorelCorpID_0Corel-Layer"/>
  <path class="fil0" d="M3698 2421l52 0 0 -885c0,-93 -76,-169 -169,-169l-47 0c-93,0 -169,76 -169,169l0 40 -16 0c-93,0 -169,75 -169,169l0 582 114 0 0 -582c0,-30 25,-55 55,-55l16 0 0 788 33 0 0 858 319 0 0 -858 33 0 0 -57 -52 0zm-1225 2524c-682,0 -1300,-277 -1748,-725 -448,-448 -725,-1066 -725,-1748 0,-682 277,-1300 725,-1748 448,-448 1066,-725 1748,-725 682,0 1300,277 1748,725 448,448 725,1066 725,1748 0,682 -277,1300 -725,1748 -448,448 -1066,725 -1748,725zm-1679 -794c430,430 1024,697 1679,697 655,0 1249,-266 1679,-697 430,-430 697,-1024 697,-1679 0,-655 -266,-1249 -697,-1679 -430,-430 -1024,-697 -1679,-697 -655,0 -1249,266 -1679,697 -430,430 -697,1024 -697,1679 0,655 266,1249 697,1679zm701 -817l371 0 0 -114 -371 0 0 114zm0 -289l1145 0 0 -114 -1145 0 0 114zm0 -286l1153 0 0 -114 -1153 0 0 114zm0 -286l1153 0 0 -114 -1153 0 0 114zm0 -286l1153 0 0 -114 -1153 0 0 114zm10 -337l543 0 0 -114 -543 0 0 114zm1042 -145l0 57 525 0 -582 -582 0 582 57 0 0 -57 57 0 0 -251 194 194 -250 0 0 57 57 0 -57 0zm-178 -525l-1173 0 0 2589 1868 0 0 -1894 -114 0 0 1781 -1640 0 0 -2361 1060 0 0 -114 0 0zm1249 2527c0,-25 8,-67 20,-99 6,-16 13,-29 19,-37 3,-4 5,-6 5,-6l0 0 -4 -6 3 6 1 -1 -4 -6 3 6 -8 -17 5 18 4 -1 -8 -17 5 18 43 -11 0 -183 -114 0 0 139 57 0 -14 -55c-16,4 -28,11 -39,20 -12,10 -22,21 -30,33 -1,-2 -3,-4 -4,-5 -7,-10 -15,-19 -26,-27 -10,-8 -23,-16 -39,-20l-14 55 57 0 0 -139 -114 0 0 183 43 11 4 -17 -8 16 4 2 4 -17 -8 16 4 -7 -5 7 1 0 4 -7 -5 7 0 0 0 0 0 0 0 0 0 0c1,0 7,6 12,16 8,15 17,38 23,61 6,23 9,47 9,64l114 0zm-14 -484l-91 0 0 -738 91 0 0 738zm89 -852l0 -5 -213 0 0 -674 156 0 0 679 57 0zm0 0l0 -5 0 5zm-213 -793l0 -40c0,-15 6,-29 16,-39 10,-10 23,-16 39,-16l47 0c15,0 29,6 39,16 10,10 16,24 16,39l0 40 -156 0z"/>
 </g>
</svg>
