<?xml version="1.0" encoding="UTF-8"?>
<!DOCTYPE svg PUBLIC "-//W3C//DTD SVG 1.1//EN" "http://www.w3.org/Graphics/SVG/1.1/DTD/svg11.dtd">
<!-- Creator: CorelDRAW 2017 -->
<svg xmlns="http://www.w3.org/2000/svg" xml:space="preserve" width="69.4266mm" height="13.5528mm" version="1.1" style="shape-rendering:geometricPrecision; text-rendering:geometricPrecision; image-rendering:optimizeQuality; fill-rule:evenodd; clip-rule:evenodd"
viewBox="0 0 6943 1355"
 xmlns:xlink="http://www.w3.org/1999/xlink">
 <defs>
  <style type="text/css">
   <![CDATA[
    .fil3 {fill:#B2B3B3}
    .fil0 {fill:#C5C6C6}
    .fil1 {fill:#D9DADA}
    .fil2 {fill:#EBECEC}
    .fil4 {fill:#B2B3B3;fill-rule:nonzero}
    .fil5 {fill:#C5C6C6;fill-rule:nonzero}
    .fil6 {fill:#EBECEC;fill-rule:nonzero}
   ]]>
  </style>
 </defs>
 <g id="Слой_x0020_1">
  <metadata id="CorelCorpID_0Corel-Layer"/>
  <g id="_2171392749488">
   <path class="fil0" d="M321 1254l0 -576 0 0c0,-197 160,-357 357,-357 87,0 167,31 229,83l0 -364 0 0c-71,-26 -148,-39 -229,-39 -374,0 -678,303 -678,678 0,243 128,457 321,576l0 0zm357 -220c-87,0 -167,-31 -229,-83l0 364 0 0c71,26 148,40 229,40 374,0 678,-303 678,-678 0,-243 -128,-457 -321,-576l0 0 0 575 0 1c0,197 -160,357 -357,357zm-229 -357c0,126 102,229 229,229 126,0 229,-102 229,-229l0 0c0,-126 -102,-228 -229,-228 -126,0 -229,102 -229,229z"/>
   <path class="fil0" d="M321 1029c-87,-71 -186,-126 -295,-163 47,163 154,301 295,388l0 0 0 -225z"/>
   <path class="fil0" d="M449 1155l0 161 0 0c41,15 83,25 126,32 -34,-69 -77,-134 -126,-193z"/>
   <path class="fil1" d="M449 1155c50,59 92,123 126,193 33,5 67,8 102,8 49,0 98,-5 144,-15 -29,-111 -77,-214 -143,-306 -1,0 -1,0 -2,0 -87,0 -167,-31 -229,-83l0 203z"/>
   <path class="fil1" d="M321 1029l0 -304c-98,-51 -205,-87 -319,-105 -2,19 -2,38 -2,58 0,65 9,128 26,188 108,37 208,93 295,163z"/>
   <path class="fil2" d="M2 620c114,18 221,54 319,105l0 -47 0 0c0,-72 21,-139 58,-195 -102,-38 -211,-62 -326,-68 -27,64 -44,133 -50,205z"/>
   <path class="fil2" d="M449 678c0,126 102,229 229,229 66,0 126,-28 168,-73 -90,-122 -209,-224 -347,-296 -31,39 -49,88 -49,141z"/>
   <path class="fil2" d="M916 943c-63,56 -146,91 -237,91 65,92 114,195 143,306 71,-15 138,-42 199,-78 -15,-114 -51,-221 -105,-319z"/>
   <path class="fil1" d="M916 943c53,98 90,206 105,319 71,-42 133,-96 185,-159 -21,-161 -81,-310 -171,-437l0 11 0 1c0,105 -46,200 -118,265z"/>
   <path class="fil1" d="M906 678l0 0zm-61 155c38,-41 61,-95 61,-155l0 0c0,-126 -102,-228 -229,-228 -73,0 -138,34 -180,87 139,73 258,174 347,296z"/>
   <path class="fil1" d="M379 483c55,-84 145,-144 249,-158 -136,-64 -289,-100 -450,-100 -1,0 -3,0 -4,0 -50,56 -91,120 -121,190 115,6 224,30 326,68z"/>
   <path class="fil0" d="M178 224c161,0 314,36 450,100 16,-2 33,-3 50,-3 87,0 167,31 229,83l0 -214c-138,-83 -298,-135 -468,-146 -102,39 -192,101 -264,181 1,0 3,0 4,0z"/>
   <path class="fil0" d="M1034 280l0 386c89,128 150,277 171,437 82,-102 136,-228 148,-366 -62,-180 -173,-337 -318,-457z"/>
   <path class="fil3" d="M1034 280c145,119 257,277 318,457 2,-20 3,-39 3,-59 0,-243 -128,-457 -321,-576l0 0 0 179z"/>
   <path class="fil3" d="M906 190l0 -151 0 0c-71,-26 -148,-39 -229,-39 -84,0 -165,15 -240,44 171,12 330,64 468,146z"/>
   <g>
    <polygon class="fil4" points="6875,839 6673,650 6686,598 6943,839 6686,1080 6673,1028 "/>
    <polygon class="fil4" points="6626,432 6579,432 6364,1107 6411,1107 "/>
    <polygon class="fil4" points="1733,839 1935,650 1922,598 1665,839 1922,1080 1935,1028 "/>
    <path class="fil5" d="M4537 1095l0 -730 72 0c217,0 320,160 320,313 0,159 -106,313 -300,313l-44 0 0 105 57 0c174,0 302,-113 359,-228 30,-58 44,-124 44,-190 0,-66 -14,-130 -44,-190 -100,-199 -277,-228 -406,-228l-171 0 0 835 112 0z"/>
    <path id="1" class="fil5" d="M5693 692c-56,-124 -165,-181 -277,-181 -168,0 -297,129 -297,298 0,124 67,220 164,267 42,20 87,31 134,31 54,0 107,-12 154,-38 44,-25 132,-91 144,-228l-106 -13c-2,68 -38,125 -86,154 -32,19 -70,25 -109,25 -36,0 -72,-10 -101,-27 -48,-30 -86,-88 -86,-171 0,-113 75,-198 187,-198 41,0 90,8 132,55l-283 158 43 84 387 -215z"/>
    <path id="2" class="fil5" d="M6178 523l-167 442 -167 -442 -115 0 197 512c14,36 24,73 85,73 60,0 72,-38 85,-73l197 -512 -115 0z"/>
    <path class="fil6" d="M2254 1095l0 -554c0,-110 61,-189 164,-189 111,0 164,84 164,174 0,93 -63,159 -172,159l-112 0 0 105 99 0c95,0 204,-7 271,-130 21,-41 32,-86 32,-131 0,-150 -97,-282 -280,-282 -165,0 -277,109 -277,298l0 549 112 0z"/>
    <path id="1" class="fil6" d="M3174 523l0 307c0,48 -4,123 -76,162 -19,11 -42,16 -63,16 -21,0 -44,-5 -63,-16 -73,-39 -76,-115 -76,-162l0 -307 -105 0 0 307c0,81 13,181 113,243 39,24 85,35 131,35 47,0 92,-11 131,-35 100,-62 113,-162 113,-243l0 -307 -105 0z"/>
    <path id="2" class="fil6" d="M3932 692c-56,-124 -165,-181 -277,-181 -168,0 -297,129 -297,298 0,124 67,220 164,267 42,20 87,31 134,31 54,0 107,-12 154,-38 44,-25 132,-91 144,-228l-106 -13c-2,68 -38,125 -86,154 -32,19 -70,25 -109,25 -36,0 -72,-10 -101,-27 -48,-30 -86,-88 -86,-171 0,-113 75,-198 187,-198 41,0 90,8 132,55l-283 158 43 84 387 -215z"/>
    <path id="3" class="fil6" d="M4032 1095l105 0 0 -272c0,-210 127,-212 162,-212l14 0 0 -100 -18 0c-49,0 -116,6 -161,78l-2 0 0 -66 -100 0 0 573z"/>
   </g>
  </g>
 </g>
</svg>
