<?xml version="1.0" encoding="UTF-8"?>
<!DOCTYPE svg PUBLIC "-//W3C//DTD SVG 1.1//EN" "http://www.w3.org/Graphics/SVG/1.1/DTD/svg11.dtd">
<!-- Creator: CorelDRAW 2017 -->
<svg xmlns="http://www.w3.org/2000/svg" xml:space="preserve" width="95.2771mm" height="106.936mm" version="1.1" style="shape-rendering:geometricPrecision; text-rendering:geometricPrecision; image-rendering:optimizeQuality; fill-rule:evenodd; clip-rule:evenodd"
viewBox="0 0 9528 10694"
 xmlns:xlink="http://www.w3.org/1999/xlink">
 <defs>
  <style type="text/css">
   <![CDATA[
    .fil6 {fill:#00E3E3;fill-rule:nonzero}
    .fil2 {fill:#10C0C9;fill-rule:nonzero}
    .fil8 {fill:#10C0C9;fill-rule:nonzero}
    .fil5 {fill:#18B0B8;fill-rule:nonzero}
    .fil3 {fill:#20D6DE;fill-rule:nonzero}
    .fil4 {fill:#3BFFFF;fill-rule:nonzero}
    .fil7 {fill:#F9F9FB;fill-rule:nonzero}
    .fil1 {fill:white;fill-rule:nonzero}
    .fil0 {fill:white;fill-rule:nonzero}
   ]]>
  </style>
 </defs>
 <g id="Слой_x0020_1">
  <metadata id="CorelCorpID_0Corel-Layer"/>
  <g id="_2171010105136">
   <g>
    <path class="fil0" d="M3367 4974c-178,178 -467,178 -645,0l-734 -734c-178,-178 -178,-467 0,-645 178,-178 467,-178 645,0l734 734c178,178 178,467 0,645z"/>
   </g>
   <g>
    <path class="fil1" d="M7894 8063l0 1542 -2967 0 0 -618 -633 -266c-345,-145 -597,-448 -677,-813l2183 0 2095 156z"/>
   </g>
   <g>
    <path class="fil0" d="M5083 7907l-1467 0c51,230 170,435 337,592l1378 -524 -248 -68z"/>
   </g>
   <path class="fil2" d="M6510 8000l-3535 0c-141,0 -256,-115 -256,-256l0 -7048c0,-141 115,-256 256,-256l3535 0c141,0 256,115 256,256l0 7048c0,141 -115,256 -256,256z"/>
   <path class="fil3" d="M6510 8044l-3535 0c-165,0 -300,-134 -300,-300l0 -7048c0,-165 134,-300 300,-300l3535 0c165,0 300,134 300,300l0 7048c0,165 -134,300 -300,300zm-3535 -7560l0 0c-117,0 -212,95 -212,212l0 7048c0,117 95,212 212,212l3535 0c117,0 212,-95 212,-212l0 -7048c0,-117 -95,-212 -212,-212l-3535 0z"/>
   <g>
    <polygon class="fil3" points="3040,1171 3040,856 6446,856 6446,1171 "/>
   </g>
   <g>
    <path class="fil1" d="M6446 7372l-3407 0c-24,0 -44,-20 -44,-44l0 -6473c0,-24 20,-44 44,-44l3407 0c24,0 44,20 44,44l0 6473c0,24 -20,44 -44,44zm-3363 -87l0 0 3319 0 0 -6385 -3319 0 0 6385z"/>
   </g>
   <g>
    <path class="fil3" d="M5031 7837l-575 0c-89,0 -161,-72 -161,-161 0,-89 72,-161 161,-161l575 0c89,0 161,72 161,161 0,89 -72,161 -161,161zm-575 -235l0 0c-41,0 -74,33 -74,74 0,41 33,74 74,74l575 0c41,0 74,-33 74,-74 0,-41 -33,-74 -74,-74l-575 0z"/>
   </g>
   <g>
    <g>
     <path class="fil3" d="M5111 692l-735 0c-24,0 -44,-20 -44,-44 0,-24 20,-44 44,-44l735 0c24,0 44,20 44,44 0,24 -20,44 -44,44z"/>
    </g>
    <g>
     <path class="fil3" d="M5425 692l-53 0c-24,0 -44,-20 -44,-44 0,-24 20,-44 44,-44l53 0c24,0 44,20 44,44 0,24 -20,44 -44,44z"/>
    </g>
   </g>
   <g>
    <g>
     <path class="fil4" d="M3269 1014c0,40 -32,72 -72,72 -40,0 -72,-32 -72,-72 0,-40 32,-72 72,-72 40,0 72,32 72,72z"/>
    </g>
    <g>
     <path class="fil4" d="M3511 1014c0,40 -32,72 -72,72 -40,0 -72,-32 -72,-72 0,-40 32,-72 72,-72 40,0 72,32 72,72z"/>
    </g>
    <g>
     <path class="fil4" d="M3753 1014c0,40 -32,72 -72,72 -40,0 -72,-32 -72,-72 0,-40 32,-72 72,-72 40,0 72,32 72,72z"/>
    </g>
    <g>
     <polygon class="fil4" points="6321,1064 5921,1064 5921,963 6321,963 "/>
    </g>
    <g>
     <polygon class="fil4" points="5766,1064 5629,1064 5629,963 5766,963 "/>
    </g>
   </g>
   <g>
    <path class="fil3" d="M3257 4306l0 0c6,0 11,5 11,11l0 26c0,10 12,15 19,8l43 -42c2,-2 5,-3 8,-3l766 0c22,0 40,-18 40,-40l0 -224c0,-6 -5,-11 -11,-11l-904 0c-6,0 -11,5 -11,11l0 224c0,22 18,40 40,40z"/>
   </g>
   <g>
    <path class="fil3" d="M3224 3965l1839 0c6,0 11,-5 11,-11l0 -225c0,-22 -18,-40 -40,-40l-1782 0c-22,0 -40,18 -40,40l0 225c0,6 5,11 11,11z"/>
   </g>
   <g>
    <path class="fil4" d="M4455 4711l1693 0c3,0 6,1 8,3l43 42c7,7 19,2 19,-8l0 -27c0,-6 5,-11 11,-11l1 0c24,0 43,-19 43,-43l0 -190c0,-24 -19,-43 -43,-43l-1775 0c-24,0 -43,19 -43,43l0 190c0,24 19,43 43,43z"/>
   </g>
   <g>
    <path class="fil3" d="M4737 5447l-1395 0c-3,0 -6,1 -8,3l-43 42c-7,7 -19,2 -19,-8l0 -27c0,-6 -5,-11 -11,-11l-1 0c-24,0 -43,-19 -43,-43l0 -222c0,-6 5,-11 11,-11l1541 0c6,0 11,5 11,11l0 222c0,24 -19,43 -43,43z"/>
   </g>
   <g>
    <path class="fil3" d="M4471 5106l-1242 0c-6,0 -11,-5 -11,-11l0 -222c0,-24 19,-43 43,-43l1178 0c24,0 43,19 43,43l0 222c0,6 -5,11 -11,11z"/>
   </g>
   <g>
    <path class="fil4" d="M6233 5843l0 0c-6,0 -11,5 -11,11l0 26c0,10 -12,15 -19,8l-43 -42c-2,-2 -5,-3 -8,-3l-303 0c-22,0 -40,-18 -40,-40l0 -195c0,-22 18,-40 40,-40l384 0c22,0 40,18 40,40l0 195c0,22 -18,40 -40,40z"/>
   </g>
   <g>
    <path class="fil3" d="M4438 6588l-1097 0c-3,0 -6,1 -8,3l-43 42c-7,7 -19,2 -19,-8l0 -27c0,-6 -5,-11 -11,-11l-1 0c-24,0 -43,-19 -43,-43l0 -222c0,-6 5,-11 11,-11l1242 0c6,0 11,5 11,11l0 222c0,24 -19,43 -43,43z"/>
   </g>
   <g>
    <path class="fil3" d="M3669 6247l-441 0c-6,0 -11,-5 -11,-11l0 -220c0,-24 19,-43 43,-43l377 0c24,0 43,19 43,43l0 220c0,6 -5,11 -11,11z"/>
   </g>
   <g>
    <path class="fil3" d="M1639 2282l3056 0c10,0 18,-8 18,-18l0 -881c0,-10 -8,-18 -18,-18l-3056 0c-10,0 -18,8 -18,18l0 881c0,10 8,18 18,18z"/>
   </g>
   <g>
    <path class="fil3" d="M1827 2847l1529 0c36,0 66,-29 66,-66l0 -372c0,-10 -8,-18 -18,-18l-1758 0c-10,0 -18,8 -18,18l0 372c0,36 29,66 66,66l0 0c10,0 18,8 18,18l0 44c0,16 20,24 31,13l72 -70c3,-3 8,-5 13,-5z"/>
   </g>
   <g>
    <path class="fil4" d="M5105 3534l2598 0c4,0 9,2 12,5l66 65c11,10 29,3 29,-12l0 -41c0,-9 8,-17 17,-17l1 0c37,0 66,-30 66,-66l0 -715c0,-37 -30,-66 -66,-66l-2723 0c-37,0 -66,30 -66,66l0 715c0,37 30,66 66,66z"/>
   </g>
   <g>
    <path class="fil1" d="M3367 8043c-178,178 -467,178 -645,0l-362 -362c-178,-178 -178,-467 0,-645 178,-178 467,-178 645,0l362 362c178,178 178,467 0,645z"/>
   </g>
   <g>
    <path class="fil1" d="M3367 7020c-178,178 -467,178 -645,0l-362 -362c-178,-178 -178,-467 0,-645 178,-178 467,-178 645,0l362 362c178,178 178,467 0,645z"/>
   </g>
   <g>
    <path class="fil1" d="M3367 5997c-178,178 -467,178 -645,0l-362 -362c-178,-178 -178,-467 0,-645 178,-178 467,-178 645,0l362 362c178,178 178,467 0,645z"/>
   </g>
   <g>
    <path class="fil1" d="M7596 5386l-1396 -1396c-468,468 -468,1227 0,1695l495 495 0 847 -849 504c-403,240 -651,674 -651,1143l2697 -612 -13 -1995c-2,-256 -104,-501 -285,-682z"/>
   </g>
   <polygon class="fil3" points="4671,9834 8150,9834 8150,9605 4671,9605 "/>
   <path class="fil5" d="M8150 9878l-3479 0c-24,0 -44,-20 -44,-44l0 -229c0,-24 20,-44 44,-44l3479 0c24,0 44,20 44,44l0 229c0,24 -20,44 -44,44zm-3436 -87l0 0 3392 0 0 -142 -3392 0 0 142z"/>
   <polygon class="fil3" points="4543,10650 8278,10650 8278,9834 4543,9834 "/>
   <path class="fil5" d="M8278 10694l-3735 0c-24,0 -44,-20 -44,-44l0 -816c0,-24 20,-44 44,-44l3735 0c24,0 44,20 44,44l0 816c0,24 -20,44 -44,44zm-3691 -87l0 0 3648 0 0 -728 -3648 0 0 728z"/>
   <g>
    <polygon class="fil6" points="44,10650 9484,10650 "/>
    <path class="fil6" d="M9484 10694l-9440 0c-24,0 -44,-20 -44,-44 0,-24 20,-44 44,-44l9440 0c24,0 44,20 44,44 0,24 -20,44 -44,44z"/>
   </g>
   <g>
    <path class="fil6" d="M3100 9033c0,379 -307,687 -687,687 -379,0 -687,-307 -687,-687 0,-379 307,-687 687,-687 379,0 687,307 687,687z"/>
   </g>
   <g>
    <path class="fil7" d="M2642 9318l-459 0c-90,0 -164,-74 -164,-164l0 -241c0,-90 74,-164 164,-164l459 0c90,0 164,74 164,164l0 241c0,90 -74,164 -164,164zm-459 -511l0 0c-58,0 -106,47 -106,106l0 241c0,58 47,106 106,106l459 0c58,0 106,-47 106,-106l0 -241c0,-58 -47,-106 -106,-106l-459 0z"/>
   </g>
   <g>
    <path class="fil7" d="M2344 9166c-5,0 -10,-1 -14,-4 -9,-5 -15,-15 -15,-25l0 -230c0,-11 6,-20 15,-25 9,-5 21,-5 30,1l184 115c9,5 14,15 14,25 0,10 -5,19 -14,25l-184 115c-5,3 -10,4 -15,4zm29 -206l0 0 0 125 100 -62 -100 -62z"/>
   </g>
   <g>
    <g>
     <g>
      <path class="fil7" d="M2000 971c-5,0 -9,-1 -14,-3l-90 -48c-50,34 -108,52 -168,52 -108,0 -209,-59 -262,-153 -8,-14 -3,-32 11,-40 14,-8 32,-3 40,11 43,76 124,123 211,123 54,0 105,-18 148,-51 9,-7 22,-8 32,-3l26 14 -14 -29c-5,-10 -4,-21 3,-30 31,-42 48,-92 48,-144 0,-134 -109,-243 -243,-243 -16,0 -29,-13 -29,-29 0,-16 13,-29 29,-29 166,0 301,135 301,301 0,59 -17,115 -49,164l46 95c6,11 3,25 -6,34 -6,5 -13,8 -20,8z"/>
     </g>
     <g>
      <path class="fil7" d="M916 840c-7,0 -15,-3 -20,-8 -9,-9 -12,-22 -6,-34l69 -143c-47,-70 -72,-151 -72,-235 0,-232 188,-420 420,-420 232,0 420,188 420,420 0,232 -188,420 -420,420 -87,0 -170,-26 -241,-77l-136 73c-4,2 -9,3 -14,3zm152 -140l0 0c6,0 13,2 18,6 64,50 140,76 221,76 199,0 362,-162 362,-362 0,-199 -162,-362 -362,-362 -199,0 -362,162 -362,362 0,78 25,152 71,215 6,9 8,20 3,30l-38 77 73 -39c4,-2 9,-3 14,-3z"/>
     </g>
    </g>
    <g>
     <path class="fil7" d="M1477 337l-340 0c-16,0 -29,-13 -29,-29 0,-16 13,-29 29,-29l340 0c16,0 29,13 29,29 0,16 -13,29 -29,29z"/>
    </g>
    <g>
     <path class="fil7" d="M1477 456l-340 0c-16,0 -29,-13 -29,-29 0,-16 13,-29 29,-29l340 0c16,0 29,13 29,29 0,16 -13,29 -29,29z"/>
    </g>
    <g>
     <path class="fil7" d="M1306 576l-170 0c-16,0 -29,-13 -29,-29 0,-16 13,-29 29,-29l170 0c16,0 29,13 29,29 0,16 -13,29 -29,29z"/>
    </g>
   </g>
   <g>
    <path class="fil6" d="M7566 4162l52 52 52 -52c51,-51 134,-51 185,0 51,51 51,134 0,185l-237 237 -237 -237c-51,-51 -51,-134 0,-185 51,-51 134,-51 185,0z"/>
   </g>
   <g>
    <path class="fil6" d="M8261 1719c0,203 -164,367 -367,367 -203,0 -367,-164 -367,-367 0,-203 164,-367 367,-367 203,0 367,164 367,367z"/>
   </g>
   <g>
    <path class="fil8" d="M8033 1499l-218 69 0 236c-20,-7 -47,1 -67,21 -26,26 -32,64 -12,84 20,20 57,15 84,-12 16,-16 25,-37 24,-55l0 0 0 -253 161 -51 0 206c-20,-7 -47,1 -67,21 -26,26 -32,64 -12,84 20,20 57,15 84,-12 16,-16 25,-37 24,-55l0 0 0 -283z"/>
   </g>
   <g>
    <path class="fil7" d="M3945 10000l-383 0c-16,0 -29,-13 -29,-29l0 -143c0,-78 42,-150 108,-190 -13,-20 -19,-44 -19,-68 0,-73 59,-132 132,-132 73,0 132,59 132,132 0,24 -7,48 -19,68 66,39 108,111 108,190l0 143c0,16 -13,29 -29,29zm-354 -58l0 0 324 0 0 -114c0,-68 -43,-129 -107,-152 -10,-4 -17,-12 -19,-22 -2,-10 2,-21 10,-27 17,-14 27,-35 27,-56 0,-41 -33,-73 -73,-73 -41,0 -73,33 -73,73 0,21 10,42 27,56 8,7 12,17 10,27 -2,10 -9,19 -19,22 -64,23 -107,84 -107,152l0 114z"/>
   </g>
   <g>
    <g>
     <path class="fil3" d="M317 2132c-167,0 -303,-136 -303,-303 0,-167 136,-303 303,-303 167,0 303,136 303,303 0,167 -136,303 -303,303zm0 -547l0 0c-135,0 -244,110 -244,244 0,135 110,244 244,244 135,0 244,-110 244,-244 0,-135 -110,-244 -244,-244z"/>
    </g>
    <g>
     <g>
      <path class="fil3" d="M266 1780c-16,0 -29,-13 -29,-29 0,-9 -8,-17 -17,-17 -9,0 -17,8 -17,17 0,16 -13,29 -29,29 -16,0 -29,-13 -29,-29 0,-42 34,-75 75,-75 42,0 75,34 75,75 0,16 -13,29 -29,29z"/>
     </g>
     <g>
      <path class="fil3" d="M451 1780c-16,0 -29,-13 -29,-29 0,-9 -8,-17 -17,-17 -9,0 -17,8 -17,17 0,16 -13,29 -29,29 -16,0 -29,-13 -29,-29 0,-42 34,-75 75,-75 42,0 75,34 75,75 0,16 -13,29 -29,29z"/>
     </g>
    </g>
    <g>
     <path class="fil3" d="M317 2018c-88,0 -160,-72 -160,-160 0,-16 13,-29 29,-29l262 0c16,0 29,13 29,29 0,88 -72,160 -160,160zm-97 -131l0 0c13,42 51,73 97,73 46,0 85,-31 97,-73l-195 0z"/>
    </g>
   </g>
   <g>
    <g>
     <path class="fil3" d="M8650 7339c-167,0 -303,-136 -303,-303 0,-167 136,-303 303,-303 167,0 303,136 303,303 0,167 -136,303 -303,303zm0 -547l0 0c-135,0 -244,110 -244,244 0,135 110,244 244,244 135,0 244,-110 244,-244 0,-135 -110,-244 -244,-244z"/>
    </g>
    <g>
     <g>
      <path class="fil3" d="M8600 6987c-16,0 -29,-13 -29,-29 0,-9 -8,-17 -17,-17 -9,0 -17,8 -17,17 0,16 -13,29 -29,29 -16,0 -29,-13 -29,-29 0,-41 34,-75 75,-75 41,0 75,34 75,75 0,16 -13,29 -29,29z"/>
     </g>
     <g>
      <path class="fil3" d="M8785 6987c-16,0 -29,-13 -29,-29 0,-9 -8,-17 -17,-17 -9,0 -17,8 -17,17 0,16 -13,29 -29,29 -16,0 -29,-13 -29,-29 0,-41 34,-75 75,-75 42,0 75,34 75,75 0,16 -13,29 -29,29z"/>
     </g>
    </g>
    <g>
     <path class="fil3" d="M8650 7224c-88,0 -160,-72 -160,-160 0,-16 13,-29 29,-29 16,0 29,13 29,29 0,56 46,102 102,102 56,0 102,-46 102,-102 0,-16 13,-29 29,-29 16,0 29,13 29,29 0,88 -72,160 -160,160z"/>
    </g>
   </g>
   <g>
    <g>
     <path class="fil7" d="M8650 8198c-167,0 -303,-136 -303,-303 0,-167 136,-303 303,-303 167,0 303,136 303,303 0,167 -136,303 -303,303zm0 -547l0 0c-135,0 -244,110 -244,244 0,135 110,244 244,244 135,0 244,-110 244,-244 0,-135 -110,-244 -244,-244z"/>
    </g>
    <g>
     <g>
      <path class="fil7" d="M8739 7853c-42,0 -75,-34 -75,-75 0,-16 13,-29 29,-29 16,0 29,13 29,29 0,9 8,17 17,17 9,0 17,-8 17,-17 0,-16 13,-29 29,-29 16,0 29,13 29,29 0,41 -34,75 -75,75z"/>
     </g>
     <g>
      <path class="fil7" d="M8554 7853c-42,0 -75,-34 -75,-75 0,-16 13,-29 29,-29 16,0 29,13 29,29 0,9 8,17 17,17 9,0 17,-8 17,-17 0,-16 13,-29 29,-29 16,0 29,13 29,29 0,41 -34,75 -75,75z"/>
     </g>
    </g>
    <g>
     <path class="fil7" d="M8781 8055l-262 0c-16,0 -29,-13 -29,-29 0,-88 72,-160 160,-160 88,0 160,72 160,160 0,16 -13,29 -29,29zm-228 -58l0 0 195 0c-13,-42 -52,-73 -97,-73 -46,0 -85,31 -97,73z"/>
    </g>
   </g>
   <g>
    <g>
     <path class="fil3" d="M1620 5256c-118,0 -214,-96 -214,-214 0,-118 96,-214 214,-214 118,0 214,96 214,214 0,118 -96,214 -214,214zm0 -370l0 0c-86,0 -156,70 -156,156 0,86 70,156 156,156 86,0 156,-70 156,-156 0,-86 -70,-156 -156,-156z"/>
    </g>
    <g>
     <path class="fil3" d="M1620 5256c-64,0 -93,-111 -93,-214 0,-107 29,-214 93,-214 64,0 93,108 93,214 0,107 -29,214 -93,214zm0 -369l0 0c-12,10 -35,62 -35,155 0,93 23,145 35,155 12,-10 35,-62 35,-155 0,-93 -23,-145 -35,-155z"/>
    </g>
    <g>
     <path class="fil3" d="M1806 5071l-370 0c-16,0 -29,-13 -29,-29 0,-16 13,-29 29,-29l370 0c16,0 29,13 29,29 0,16 -13,29 -29,29z"/>
    </g>
   </g>
   <g>
    <g>
     <path class="fil3" d="M1062 8162l-690 0c-16,0 -29,-13 -29,-29l0 -512c0,-16 13,-29 29,-29l690 0c16,0 29,13 29,29l0 512c0,16 -13,29 -29,29zm-661 -58l0 0 632 0 0 -453 -632 0 0 453z"/>
    </g>
    <g>
     <g>
      <path class="fil3" d="M967 7868l-121 0c-16,0 -29,-13 -29,-29l0 -121c0,-16 13,-29 29,-29l121 0c16,0 29,13 29,29l0 121c0,16 -13,29 -29,29zm-92 -58l0 0 63 0 0 -63 -63 0 0 63z"/>
     </g>
    </g>
    <g>
     <g>
      <path class="fil3" d="M768 7868l-121 0c-16,0 -29,-13 -29,-29l0 -121c0,-16 13,-29 29,-29l121 0c16,0 29,13 29,29l0 121c0,16 -13,29 -29,29zm-92 -58l0 0 63 0 0 -63 -63 0 0 63z"/>
     </g>
    </g>
    <g>
     <g>
      <path class="fil3" d="M568 8061l-121 0c-16,0 -29,-13 -29,-29l0 -121c0,-16 13,-29 29,-29l121 0c16,0 29,13 29,29l0 121c0,16 -13,29 -29,29zm-92 -58l0 0 63 0 0 -63 -63 0 0 63z"/>
     </g>
     <g>
      <path class="fil3" d="M768 8061l-121 0c-16,0 -29,-13 -29,-29l0 -121c0,-16 13,-29 29,-29l121 0c16,0 29,13 29,29l0 121c0,16 -13,29 -29,29zm-92 -58l0 0 63 0 0 -63 -63 0 0 63z"/>
     </g>
    </g>
    <g>
     <path class="fil3" d="M492 7557c-30,0 -54,-24 -54,-54l0 -54c0,-30 24,-54 54,-54 30,0 54,24 54,54l0 54c0,30 -24,54 -54,54z"/>
    </g>
    <g>
     <path class="fil3" d="M942 7557c-30,0 -54,-24 -54,-54l0 -54c0,-30 24,-54 54,-54 30,0 54,24 54,54l0 54c0,30 -24,54 -54,54z"/>
    </g>
    <g>
     <path class="fil3" d="M1062 7650l-690 0c-16,0 -29,-13 -29,-29l0 -145c0,-16 13,-29 29,-29l95 0c11,0 20,6 25,14 5,-9 14,-14 25,-14l400 0c11,0 20,6 25,14 5,-9 14,-14 25,-14l95 0c16,0 29,13 29,29l0 145c0,16 -13,29 -29,29zm-661 -58l0 0 632 0 0 -87 -37 0c-1,29 -25,52 -54,52 -29,0 -53,-23 -54,-52l-342 0c-1,29 -25,52 -54,52 -29,0 -53,-23 -54,-52l-37 0 0 87z"/>
    </g>
   </g>
   <g>
    <g>
     <path class="fil7" d="M9237 2410c-74,0 -143,-29 -196,-81 -108,-108 -108,-283 0,-391 52,-52 122,-81 196,-81 74,0 143,29 196,81 108,108 108,283 0,391 -52,52 -122,81 -196,81zm0 -495l0 0c-58,0 -113,23 -154,64 -85,85 -85,224 0,309 41,41 96,64 154,64 58,0 113,-23 154,-64 85,-85 85,-224 0,-309 -41,-41 -96,-64 -154,-64z"/>
    </g>
    <g>
     <path class="fil7" d="M9001 2399c-7,0 -15,-3 -21,-9 -11,-11 -11,-30 0,-41l61 -61c11,-11 30,-11 41,0 11,11 11,30 0,41l-61 61c-6,6 -13,9 -21,9z"/>
    </g>
    <g>
     <path class="fil7" d="M8756 2705c-24,0 -47,-9 -64,-27 -17,-17 -27,-40 -27,-64 0,-24 9,-47 27,-64l201 -201c34,-34 94,-34 129,0 35,36 35,93 0,129l-201 201c-17,17 -40,27 -64,27zm201 -324l0 0c-9,0 -17,3 -23,10l-201 201c-6,6 -10,14 -10,23 0,9 3,17 10,23 12,12 34,12 46,0l201 -201c13,-13 13,-33 0,-46 -6,-6 -14,-10 -23,-10z"/>
    </g>
    <g>
     <path class="fil7" d="M9364 2290c-7,0 -15,-3 -21,-9 -11,-11 -11,-30 0,-41 59,-59 59,-155 0,-214 -11,-11 -11,-30 0,-41 11,-11 30,-11 41,0 82,82 82,215 0,297 -6,6 -13,9 -21,9z"/>
    </g>
   </g>
   <g>
    <g>
     <path class="fil7" d="M756 4021l-680 0c-34,0 -61,-27 -61,-61l0 -471c0,-34 27,-61 61,-61l680 0c34,0 61,27 61,61l0 471c0,34 -27,61 -61,61zm-680 -534l0 0c-1,0 -3,1 -3,3l0 471c0,1 1,3 3,3l680 0c1,0 3,-1 3,-3l0 -471c0,-1 -1,-3 -3,-3l-680 0z"/>
    </g>
    <g>
     <path class="fil7" d="M589 3763l-347 0c-125,0 -227,-102 -227,-227l0 -47c0,-34 27,-61 61,-61l680 0c34,0 61,27 61,61l0 47c0,125 -102,227 -227,227zm-514 -277l0 0c-1,0 -3,1 -3,3l0 47c0,93 76,169 169,169l347 0c93,0 169,-76 169,-169l0 -47c0,-1 -1,-3 -3,-3l-680 0z"/>
    </g>
    <g>
     <path class="fil7" d="M488 3829l-146 0c-16,0 -29,-13 -29,-29l0 -60c0,-16 13,-29 29,-29l146 0c16,0 29,13 29,29l0 60c0,16 -13,29 -29,29zm-117 -58l0 0 87 0 0 -2 -87 0 0 2z"/>
    </g>
    <g>
     <path class="fil7" d="M532 3487l-233 0c-16,0 -29,-13 -29,-29l0 -44c0,-43 35,-77 77,-77l137 0c43,0 77,35 77,77l0 44c0,16 -13,29 -29,29zm-204 -58l0 0 175 0 0 -15c0,-10 -8,-19 -19,-19l-137 0c-10,0 -19,8 -19,19l0 15z"/>
    </g>
   </g>
   <g>
    <g>
     <g>
      <path class="fil7" d="M9387 4315l-301 0c-70,0 -126,-57 -126,-126l0 -301c0,-70 57,-126 126,-126l301 0c70,0 126,57 126,126l0 301c0,70 -57,126 -126,126zm-301 -495l0 0c-37,0 -68,30 -68,68l0 301c0,37 30,68 68,68l301 0c37,0 68,-30 68,-68l0 -301c0,-37 -30,-68 -68,-68l-301 0z"/>
     </g>
     <g>
      <path class="fil7" d="M9237 4179c-78,0 -141,-63 -141,-141 0,-78 63,-141 141,-141 78,0 141,63 141,141 0,78 -63,141 -141,141zm0 -223l0 0c-45,0 -82,37 -82,82 0,45 37,82 82,82 45,0 83,-37 83,-82 0,-45 -37,-82 -83,-82z"/>
     </g>
    </g>
    <g>
     <path class="fil7" d="M9137 3998l-148 0c-16,0 -29,-13 -29,-29 0,-16 13,-29 29,-29l148 0c16,0 29,13 29,29 0,16 -13,29 -29,29z"/>
    </g>
    <g>
     <path class="fil7" d="M9484 3998l-153 0c-16,0 -29,-13 -29,-29 0,-16 13,-29 29,-29l153 0c16,0 29,13 29,29 0,16 -13,29 -29,29z"/>
    </g>
   </g>
   <g>
    <path class="fil6" d="M1080 6475c0,206 -167,373 -373,373 -206,0 -373,-167 -373,-373 0,-206 167,-373 373,-373 206,0 373,167 373,373z"/>
   </g>
   <g>
    <g>
     <path class="fil7" d="M707 6469c-29,0 -52,-23 -52,-52 0,-29 23,-52 52,-52 29,0 52,23 52,52 0,29 -23,52 -52,52zm0 -58l0 0c-4,0 -7,3 -7,7 0,7 13,7 13,0 0,-4 -3,-7 -7,-7z"/>
    </g>
    <g>
     <path class="fil7" d="M707 6709c-8,0 -15,-3 -21,-9 -6,-6 -145,-146 -145,-283 0,-91 74,-165 165,-165 91,0 165,74 165,165 0,137 -139,277 -145,283 -5,5 -13,9 -21,9zm0 -398l0 0c-59,0 -107,48 -107,107 0,85 71,177 107,219 36,-42 107,-135 107,-219 0,-59 -48,-107 -107,-107z"/>
    </g>
   </g>
   <g>
    <g>
     <g>
      <path class="fil7" d="M8150 5299c-7,0 -15,-3 -20,-8 -9,-9 -12,-22 -6,-34l52 -107c-36,-54 -55,-117 -55,-182 0,-183 149,-332 332,-332 183,0 332,149 332,332 0,183 -149,332 -332,332 -67,0 -132,-20 -187,-58l-102 55c-4,2 -9,3 -14,3zm118 -122l0 0c6,0 13,2 18,6 48,37 106,57 167,57 151,0 273,-123 273,-273 0,-151 -123,-273 -273,-273 -151,0 -273,123 -273,273 0,59 19,115 54,162 6,9 8,20 3,30l-20 42 38 -21c4,-2 9,-3 14,-3z"/>
     </g>
    </g>
    <g>
     <path class="fil7" d="M8584 4910l-263 0c-16,0 -29,-13 -29,-29 0,-16 13,-29 29,-29l263 0c16,0 29,13 29,29 0,16 -13,29 -29,29z"/>
    </g>
    <g>
     <path class="fil7" d="M8584 5002l-263 0c-16,0 -29,-13 -29,-29 0,-16 13,-29 29,-29l263 0c16,0 29,13 29,29 0,16 -13,29 -29,29z"/>
    </g>
    <g>
     <path class="fil7" d="M8452 5095l-132 0c-16,0 -29,-13 -29,-29 0,-16 13,-29 29,-29l132 0c16,0 29,13 29,29 0,16 -13,29 -29,29z"/>
    </g>
   </g>
   <g>
    <path class="fil3" d="M8678 939c-4,0 -8,-1 -11,-2l-113 -48 -113 48c-9,4 -20,3 -29,-3 -8,-6 -13,-16 -12,-26l11 -122 -81 -93c-7,-8 -9,-18 -6,-28 3,-10 11,-17 21,-19l120 -28 63 -105c11,-18 39,-18 50,0l63 105 120 28c10,2 18,10 21,19 3,10 1,20 -6,28l-81 93 11 122c1,10 -4,20 -12,26 -5,4 -11,6 -17,6zm-125 -111l0 0c4,0 8,1 11,2l80 34 -7 -87c-1,-8 2,-16 7,-22l57 -66 -85 -20c-8,-2 -14,-7 -18,-13l-45 -74 -45 74c-4,7 -11,12 -18,13l-85 20 57 66c5,6 8,14 7,22l-7 87 80 -34c4,-2 7,-2 11,-2z"/>
   </g>
   <g>
    <g>
     <g>
      <g>
       <g>
        <path class="fil7" d="M684 9384c-16,0 -29,-13 -29,-29l0 -132c0,-16 13,-29 29,-29 16,0 29,13 29,29l0 132c0,16 -13,29 -29,29z"/>
       </g>
      </g>
      <g>
       <g>
        <path class="fil7" d="M684 9384c-16,0 -29,-13 -29,-29l0 -132c0,-16 13,-29 29,-29 16,0 29,13 29,29l0 132c0,16 -13,29 -29,29z"/>
       </g>
      </g>
      <g>
       <g>
        <path class="fil7" d="M750 9318l-132 0c-16,0 -29,-13 -29,-29 0,-16 13,-29 29,-29l132 0c16,0 29,13 29,29 0,16 -13,29 -29,29z"/>
       </g>
      </g>
     </g>
     <g>
      <g>
       <g>
        <path class="fil7" d="M4217 9354c-16,0 -29,-13 -29,-29l0 -132c0,-16 13,-29 29,-29 16,0 29,13 29,29l0 132c0,16 -13,29 -29,29z"/>
       </g>
      </g>
      <g>
       <g>
        <path class="fil7" d="M4217 9354c-16,0 -29,-13 -29,-29l0 -132c0,-16 13,-29 29,-29 16,0 29,13 29,29l0 132c0,16 -13,29 -29,29z"/>
       </g>
      </g>
      <g>
       <g>
        <path class="fil7" d="M4283 9288l-132 0c-16,0 -29,-13 -29,-29 0,-16 13,-29 29,-29l132 0c16,0 29,13 29,29 0,16 -13,29 -29,29z"/>
       </g>
      </g>
     </g>
     <g>
      <g>
       <g>
        <path class="fil7" d="M1293 1858c-16,0 -29,-13 -29,-29l0 -132c0,-16 13,-29 29,-29 16,0 29,13 29,29l0 132c0,16 -13,29 -29,29z"/>
       </g>
      </g>
      <g>
       <g>
        <path class="fil7" d="M1293 1858c-16,0 -29,-13 -29,-29l0 -132c0,-16 13,-29 29,-29 16,0 29,13 29,29l0 132c0,16 -13,29 -29,29z"/>
       </g>
      </g>
      <g>
       <g>
        <path class="fil7" d="M1359 1792l-132 0c-16,0 -29,-13 -29,-29 0,-16 13,-29 29,-29l132 0c16,0 29,13 29,29 0,16 -13,29 -29,29z"/>
       </g>
      </g>
     </g>
     <g>
      <g>
       <g>
        <path class="fil7" d="M2408 579c-16,0 -29,-13 -29,-29l0 -132c0,-16 13,-29 29,-29 16,0 29,13 29,29l0 132c0,16 -13,29 -29,29z"/>
       </g>
      </g>
      <g>
       <g>
        <path class="fil7" d="M2408 579c-16,0 -29,-13 -29,-29l0 -132c0,-16 13,-29 29,-29 16,0 29,13 29,29l0 132c0,16 -13,29 -29,29z"/>
       </g>
      </g>
      <g>
       <g>
        <path class="fil7" d="M2474 513l-132 0c-16,0 -29,-13 -29,-29 0,-16 13,-29 29,-29l132 0c16,0 29,13 29,29 0,16 -13,29 -29,29z"/>
       </g>
      </g>
     </g>
     <g>
      <g>
       <g>
        <path class="fil7" d="M7397 783c-16,0 -29,-13 -29,-29l0 -132c0,-16 13,-29 29,-29 16,0 29,13 29,29l0 132c0,16 -13,29 -29,29z"/>
       </g>
      </g>
      <g>
       <g>
        <path class="fil7" d="M7397 783c-16,0 -29,-13 -29,-29l0 -132c0,-16 13,-29 29,-29 16,0 29,13 29,29l0 132c0,16 -13,29 -29,29z"/>
       </g>
      </g>
      <g>
       <g>
        <path class="fil7" d="M7463 717l-132 0c-16,0 -29,-13 -29,-29 0,-16 13,-29 29,-29l132 0c16,0 29,13 29,29 0,16 -13,29 -29,29z"/>
       </g>
      </g>
     </g>
     <g>
      <g>
       <g>
        <path class="fil7" d="M5696 234c-16,0 -29,-13 -29,-29l0 -132c0,-16 13,-29 29,-29 16,0 29,13 29,29l0 132c0,16 -13,29 -29,29z"/>
       </g>
      </g>
      <g>
       <g>
        <path class="fil7" d="M5696 234c-16,0 -29,-13 -29,-29l0 -132c0,-16 13,-29 29,-29 16,0 29,13 29,29l0 132c0,16 -13,29 -29,29z"/>
       </g>
      </g>
      <g>
       <g>
        <path class="fil7" d="M5762 168l-132 0c-16,0 -29,-13 -29,-29 0,-16 13,-29 29,-29l132 0c16,0 29,13 29,29 0,16 -13,29 -29,29z"/>
       </g>
      </g>
     </g>
     <g>
      <g>
       <g>
        <path class="fil7" d="M9333 4760c-16,0 -29,-13 -29,-29l0 -132c0,-16 13,-29 29,-29 16,0 29,13 29,29l0 132c0,16 -13,29 -29,29z"/>
       </g>
      </g>
      <g>
       <g>
        <path class="fil7" d="M9333 4760c-16,0 -29,-13 -29,-29l0 -132c0,-16 13,-29 29,-29 16,0 29,13 29,29l0 132c0,16 -13,29 -29,29z"/>
       </g>
      </g>
      <g>
       <g>
        <path class="fil7" d="M9399 4694l-132 0c-16,0 -29,-13 -29,-29 0,-16 13,-29 29,-29l132 0c16,0 29,13 29,29 0,16 -13,29 -29,29z"/>
       </g>
      </g>
     </g>
     <g>
      <g>
       <g>
        <path class="fil7" d="M9331 7520c-16,0 -29,-13 -29,-29l0 -132c0,-16 13,-29 29,-29 16,0 29,13 29,29l0 132c0,16 -13,29 -29,29z"/>
       </g>
      </g>
      <g>
       <g>
        <path class="fil7" d="M9331 7520c-16,0 -29,-13 -29,-29l0 -132c0,-16 13,-29 29,-29 16,0 29,13 29,29l0 132c0,16 -13,29 -29,29z"/>
       </g>
      </g>
      <g>
       <g>
        <path class="fil7" d="M9397 7454l-132 0c-16,0 -29,-13 -29,-29 0,-16 13,-29 29,-29l132 0c16,0 29,13 29,29 0,16 -13,29 -29,29z"/>
       </g>
      </g>
     </g>
     <g>
      <g>
       <g>
        <path class="fil7" d="M3220 6634c-16,0 -29,-13 -29,-29l0 -132c0,-16 13,-29 29,-29 16,0 29,13 29,29l0 132c0,16 -13,29 -29,29z"/>
       </g>
      </g>
      <g>
       <g>
        <path class="fil7" d="M3220 6634c-16,0 -29,-13 -29,-29l0 -132c0,-16 13,-29 29,-29 16,0 29,13 29,29l0 132c0,16 -13,29 -29,29z"/>
       </g>
      </g>
      <g>
       <g>
        <path class="fil7" d="M3286 6568l-132 0c-16,0 -29,-13 -29,-29 0,-16 13,-29 29,-29l132 0c16,0 29,13 29,29 0,16 -13,29 -29,29z"/>
       </g>
      </g>
     </g>
     <g>
      <g>
       <g>
        <path class="fil7" d="M901 5161c-16,0 -29,-13 -29,-29l0 -132c0,-16 13,-29 29,-29 16,0 29,13 29,29l0 132c0,16 -13,29 -29,29z"/>
       </g>
      </g>
      <g>
       <g>
        <path class="fil7" d="M901 5161c-16,0 -29,-13 -29,-29l0 -132c0,-16 13,-29 29,-29 16,0 29,13 29,29l0 132c0,16 -13,29 -29,29z"/>
       </g>
      </g>
      <g>
       <g>
        <path class="fil7" d="M967 5095l-132 0c-16,0 -29,-13 -29,-29 0,-16 13,-29 29,-29l132 0c16,0 29,13 29,29 0,16 -13,29 -29,29z"/>
       </g>
      </g>
     </g>
    </g>
    <g>
     <g>
      <g>
       <g>
        <path class="fil7" d="M8777 9468c-56,0 -101,-46 -101,-101 0,-56 46,-101 101,-101 56,0 101,46 101,101 0,56 -46,101 -101,101zm0 -145l0 0c-24,0 -43,19 -43,43 0,24 19,43 43,43 24,0 43,-19 43,-43 0,-24 -19,-43 -43,-43z"/>
       </g>
      </g>
     </g>
     <g>
      <g>
       <g>
        <path class="fil7" d="M8452 3559c-56,0 -102,-46 -102,-101 0,-56 46,-101 102,-101 56,0 101,46 101,101 0,56 -46,101 -101,101zm0 -145l0 0c-24,0 -43,19 -43,43 0,24 19,43 43,43 24,0 43,-19 43,-43 0,-24 -19,-43 -43,-43z"/>
       </g>
      </g>
     </g>
     <g>
      <g>
       <g>
        <path class="fil7" d="M8452 6074c-56,0 -101,-46 -101,-102 0,-56 46,-101 101,-101 56,0 101,46 101,101 0,56 -46,102 -101,102zm0 -145l0 0c-24,0 -43,19 -43,43 0,24 19,43 43,43 24,0 43,-19 43,-43 0,-24 -19,-43 -43,-43z"/>
       </g>
      </g>
     </g>
     <g>
      <g>
       <g>
        <path class="fil7" d="M9331 5143c-56,0 -101,-46 -101,-101 0,-56 46,-102 101,-102 56,0 102,46 102,102 0,56 -46,101 -102,101zm0 -145l0 0c-24,0 -43,19 -43,43 0,24 19,43 43,43 24,0 43,-19 43,-43 0,-24 -19,-43 -43,-43z"/>
       </g>
      </g>
     </g>
     <g>
      <g>
       <g>
        <path class="fil7" d="M1807 6707c-16,0 -29,-13 -29,-29l0 -132c0,-16 13,-29 29,-29 16,0 29,13 29,29l0 132c0,16 -13,29 -29,29z"/>
       </g>
      </g>
      <g>
       <g>
        <path class="fil7" d="M1807 6707c-16,0 -29,-13 -29,-29l0 -132c0,-16 13,-29 29,-29 16,0 29,13 29,29l0 132c0,16 -13,29 -29,29z"/>
       </g>
      </g>
      <g>
       <g>
        <path class="fil7" d="M1874 6641l-132 0c-16,0 -29,-13 -29,-29 0,-16 13,-29 29,-29l132 0c16,0 29,13 29,29 0,16 -13,29 -29,29z"/>
       </g>
      </g>
     </g>
     <g>
      <g>
       <g>
        <path class="fil7" d="M1806 7090c-56,0 -102,-46 -102,-101 0,-56 46,-101 102,-101 56,0 101,46 101,101 0,56 -46,101 -101,101zm0 -145l0 0c-24,0 -43,19 -43,43 0,24 19,43 43,43 24,0 43,-19 43,-43 0,-24 -19,-43 -43,-43z"/>
       </g>
      </g>
     </g>
     <g>
      <g>
       <g>
        <path class="fil7" d="M8785 1466c-56,0 -101,-46 -101,-101 0,-56 46,-101 101,-101 56,0 102,46 102,101 0,56 -46,101 -102,101zm0 -145l0 0c-24,0 -43,19 -43,43 0,24 19,43 43,43 24,0 43,-19 43,-43 0,-24 -19,-43 -43,-43z"/>
       </g>
      </g>
     </g>
     <g>
      <g>
       <g>
        <path class="fil7" d="M8150 240c-56,0 -101,-46 -101,-101 0,-56 46,-102 101,-102 56,0 101,46 101,102 0,56 -46,101 -101,101zm0 -145l0 0c-24,0 -43,19 -43,43 0,24 19,43 43,43 24,0 43,-19 43,-43 0,-24 -19,-43 -43,-43z"/>
       </g>
      </g>
     </g>
     <g>
      <g>
       <g>
        <path class="fil7" d="M405 771c-56,0 -101,-46 -101,-101 0,-56 46,-102 101,-102 56,0 102,46 102,102 0,56 -46,101 -102,101zm0 -145l0 0c-24,0 -43,19 -43,43 0,24 19,43 43,43 24,0 43,-19 43,-43 0,-24 -19,-43 -43,-43z"/>
       </g>
      </g>
     </g>
     <g>
      <g>
       <g>
        <path class="fil7" d="M2413 240c-8,0 -17,-1 -25,-3 -36,-9 -65,-38 -74,-74 -7,-31 -1,-63 19,-88 25,-31 65,-45 105,-36 36,9 65,38 74,74 7,31 1,63 -19,88 -19,25 -48,39 -80,39zm0 -145l0 0c-13,0 -26,6 -34,16 -8,11 -11,24 -8,38 4,15 16,27 31,31 17,4 35,-2 45,-15 8,-11 11,-24 8,-38 -4,-15 -16,-27 -31,-31 -4,-1 -8,-1 -11,-1z"/>
       </g>
      </g>
     </g>
     <g>
      <g>
       <g>
        <path class="fil7" d="M5696 8962c-8,0 -17,-1 -25,-3 -36,-9 -65,-38 -74,-74 -7,-31 -1,-63 19,-88 25,-31 65,-45 105,-36 36,9 65,38 74,74 7,31 1,63 -19,88 -19,25 -48,39 -80,39zm0 -145l0 0c-13,0 -26,6 -34,16 -8,11 -11,24 -8,38 4,15 16,27 31,31 17,4 35,-2 45,-15 8,-11 11,-24 8,-38 -4,-15 -16,-27 -31,-31 -4,-1 -8,-1 -11,-1z"/>
       </g>
      </g>
     </g>
     <g>
      <g>
       <g>
        <path class="fil7" d="M1062 2932c-56,0 -102,-46 -102,-102 0,-56 46,-101 102,-101 56,0 101,46 101,101 0,56 -46,102 -101,102zm0 -145l0 0c-24,0 -43,19 -43,43 0,24 19,43 43,43 24,0 43,-19 43,-43 0,-24 -19,-43 -43,-43z"/>
       </g>
      </g>
     </g>
     <g>
      <g>
       <g>
        <path class="fil7" d="M5331 240c-56,0 -102,-46 -102,-102 0,-56 46,-101 102,-101 56,0 101,46 101,101 0,56 -46,102 -101,102zm0 -145l0 0c-24,0 -43,19 -43,43 0,24 19,43 43,43 24,0 43,-19 43,-43 0,-24 -19,-43 -43,-43z"/>
       </g>
      </g>
     </g>
     <g>
      <g>
       <g>
        <path class="fil7" d="M145 6200c-56,0 -101,-46 -101,-102 0,-56 46,-101 101,-101 56,0 101,46 101,101 0,56 -46,102 -101,102zm0 -145l0 0c-24,0 -43,19 -43,43 0,24 19,43 43,43 24,0 43,-19 43,-43 0,-24 -19,-43 -43,-43z"/>
       </g>
      </g>
     </g>
     <g>
      <g>
       <g>
        <path class="fil7" d="M2651 6625c-56,0 -102,-46 -102,-102 0,-56 46,-101 102,-101 56,0 101,46 101,101 0,56 -46,102 -101,102zm0 -145l0 0c-24,0 -43,19 -43,43 0,24 19,43 43,43 24,0 43,-19 43,-43 0,-24 -19,-43 -43,-43z"/>
       </g>
      </g>
     </g>
    </g>
   </g>
  </g>
 </g>
</svg>
